<svg width="1339" height="883" viewBox="0 0 1339 883" fill="none" xmlns="http://www.w3.org/2000/svg">
<path d="M290.2 384.8L304.8 520.6C307.7 547.5 333.1 566.1 359.7 560.7C456.2 540.9 671.7 500.2 803.6 502.4C977.5 505.2 1134.7 593 1134.7 593L1133.1 513.9C1130.6 391.6 1111.9 270.1 1077.4 152.7L1054.6 75.1C1054.6 75.1 932.8 210.1 755.2 266.5C621.6 309 422.7 327.5 332.5 334.1C306.6 336 287.4 359 290.2 384.8Z" fill="#DC3341" stroke="#1A004F" stroke-width="2"/>
<path d="M391.4 154.3C391.4 95.6 343.9 48.1 285.2 48.1C226.5 48.1 179 95.6 179 154.3C179 213 226.5 260.5 285.2 260.5C343.9 260.5 391.4 213 391.4 154.3Z" fill="#1A004F"/>
<path d="M370.3 154.3C370.3 107.3 332.2 69.2 285.2 69.2C238.2 69.2 200.1 107.3 200.1 154.3C200.1 201.3 238.2 239.4 285.2 239.4C332.2 239.4 370.3 201.3 370.3 154.3Z" fill="white" stroke="#1A004F" stroke-width="2"/>
<path d="M339.7 154.3C339.7 124.2 315.3 99.8 285.2 99.8C255.1 99.8 230.7 124.2 230.7 154.3C230.7 184.4 255.1 208.8 285.2 208.8C315.3 208.8 339.7 184.4 339.7 154.3Z" fill="#1A004F"/>
<path d="M316 154.3C316 137.3 302.2 123.5 285.2 123.5C268.2 123.5 254.4 137.3 254.4 154.3C254.4 171.3 268.2 185.1 285.2 185.1C302.2 185.1 316 171.3 316 154.3Z" fill="white" stroke="#1A004F" stroke-width="2"/>
<path d="M298.2 154.3C298.2 147.1 292.4 141.3 285.2 141.3C278 141.3 272.2 147.1 272.2 154.3C272.2 161.5 278 167.3 285.2 167.3C292.4 167.3 298.2 161.5 298.2 154.3Z" fill="#DC3341" stroke="#1A004F" stroke-width="2"/>
<path d="M282.6 156.9H139.8V151.7H282.6C284.1 151.7 285.2 152.9 285.2 154.3C285.2 155.7 284.1 156.9 282.6 156.9Z" fill="#1A004F"/>
<path d="M127.1 136L127.9 136.9L142.8 151.7H98.1001L82.2001 136H127.1Z" fill="#1A004F"/>
<path d="M82.2001 172L98.1001 156.8H142.8C137 161.2 131.7 166.3 127 172H82.2001Z" fill="#1A004F"/>
<path d="M653.4 207.5H506.2V107.8H653.4V207.5Z" fill="#1A004F" stroke="#1A004F" stroke-width="2"/>
<path d="M661.3 196.8H514.2V101.1H661.3V196.8Z" fill="white" stroke="#1A004F" stroke-width="2"/>
<path d="M514.2 101.1L587.8 152.5L661.3 101.1" stroke="#1A004F" stroke-width="2"/>
<path d="M223.2 435.1H67V306.2H223.2V435.1Z" fill="#1A004F" stroke="#1A004F" stroke-width="2"/>
<path d="M231.4 422H75.2V293.1H231.4V422Z" fill="#D8DCF6" stroke="#1A004F" stroke-width="2"/>
<path d="M104.2 349H84.6V329.4H104.2V349Z" fill="#DC3341" stroke="#1A004F" stroke-width="2"/>
<path d="M133.7 349H114V329.4H133.7V349Z" fill="white" stroke="#1A004F" stroke-width="2"/>
<path d="M163.1 349H143.5V329.4H163.1V349Z" fill="white" stroke="#1A004F" stroke-width="2"/>
<path d="M192.5 349H172.9V329.4H192.5V349Z" fill="white" stroke="#1A004F" stroke-width="2"/>
<path d="M222 349H202.3V329.4H222V349Z" fill="white" stroke="#1A004F" stroke-width="2"/>
<path d="M104.2 379.3H84.6V359.6H104.2V379.3Z" fill="white" stroke="#1A004F" stroke-width="2"/>
<path d="M133.7 379.3H114V359.6H133.7V379.3Z" fill="white" stroke="#1A004F" stroke-width="2"/>
<path d="M163.1 379.3H143.5V359.6H163.1V379.3Z" fill="#DC3341" stroke="#1A004F" stroke-width="2"/>
<path d="M192.5 379.3H172.9V359.6H192.5V379.3Z" fill="white" stroke="#1A004F" stroke-width="2"/>
<path d="M222 379.3H202.3V359.6H222V379.3Z" fill="white" stroke="#1A004F" stroke-width="2"/>
<path d="M104.2 409.5H84.6V389.9H104.2V409.5Z" fill="white" stroke="#1A004F" stroke-width="2"/>
<path d="M133.7 409.5H114V389.9H133.7V409.5Z" fill="white" stroke="#1A004F" stroke-width="2"/>
<path d="M163.1 409.5H143.5V389.9H163.1V409.5Z" fill="white" stroke="#1A004F" stroke-width="2"/>
<path d="M192.5 409.5H172.9V389.9H192.5V409.5Z" fill="white" stroke="#1A004F" stroke-width="2"/>
<path d="M222 409.5H202.3V389.9H222V409.5Z" fill="white" stroke="#1A004F" stroke-width="2"/>
<path d="M133.2 304C130.1 304 127.5 301.5 127.5 298.3V278.7C127.5 275.6 130.1 273 133.2 273C136.4 273 138.9 275.6 138.9 278.7V298.3C138.9 301.5 136.4 304 133.2 304Z" fill="#1A004F"/>
<path d="M173.3 304C170.2 304 167.6 301.5 167.6 298.3V278.7C167.6 275.6 170.2 273 173.3 273C176.5 273 179 275.6 179 278.7V298.3C179 301.5 176.5 304 173.3 304Z" fill="#1A004F"/>
<path d="M29.8 621.4H1V554.4H29.8V621.4Z" fill="#1A004F" stroke="#1A004F" stroke-width="2"/>
<path d="M65 621.4H36.2V528.3H65V621.4Z" fill="#1A004F" stroke="#1A004F" stroke-width="2"/>
<path d="M100.2 621.4H71.4V465.1H100.2V621.4Z" fill="#1A004F" stroke="#1A004F" stroke-width="2"/>
<path d="M135.3 621.4H106.6V506H135.3V621.4Z" fill="#1A004F" stroke="#1A004F" stroke-width="2"/>
<path d="M37.2 613H8.40002V543.5H37.2V613Z" fill="white" stroke="#1A004F" stroke-width="2"/>
<path d="M72.4 613H43.6V516.5H72.4V613Z" fill="white" stroke="#1A004F" stroke-width="2"/>
<path d="M107.6 613H78.8V451H107.6V613Z" fill="#DC3341" stroke="#1A004F" stroke-width="2"/>
<path d="M142.8 613H114V493.4H142.8V613Z" fill="white" stroke="#1A004F" stroke-width="2"/>
<path d="M1096.5 693.8C1102.8 696.5 1118.1 696.2 1118.1 696.2C1118.2 696.2 1114.8 686.2 1114.5 685.6C1111.2 678.6 1100.5 667 1091.9 668.1C1085.7 669 1082.2 675.2 1083.6 681.1C1085 687 1091.2 691.5 1096.5 693.8Z" fill="#1A004F"/>
<path d="M402.4 715.6C407.9 718 421.4 717.7 421.4 717.7C421.6 717.7 418.5 708.9 418.3 708.3C415.3 702.1 405.9 691.9 398.3 692.9C392.8 693.6 389.8 699.1 391 704.3C392.3 709.6 397.7 713.5 402.4 715.6Z" fill="#1A004F"/>
<path d="M407.1 754.7C412.8 755.6 424.8 752.1 425.8 751.8C427.7 758.5 430.2 765.3 433.1 772C434.8 775.9 436.6 779.7 438.4 783.5C437.3 781.9 436.3 780.5 436.2 780.3C431.7 775.1 419.9 767.7 412.8 770.7C407.7 772.8 406.2 779 408.8 783.6C411.4 788.4 417.7 790.7 422.8 791.5C427.9 792.2 438.2 789.5 441 788.7C441.733 790.167 442.433 791.6 443.1 793C446.6 800 450.1 806.9 453.4 813.8C454.5 816.2 455.6 818.7 456.6 821.1C455.6 819.7 454.8 818.5 454.6 818.3C450.1 813.1 438.4 805.7 431.3 808.7C426.2 810.9 424.7 817 427.3 821.7C429.9 826.4 436.2 828.8 441.2 829.5C446.2 830.3 455.7 827.8 459 826.9C460 829.4 461 831.9 461.8 834.4C462.4 836.1 463 837.7 463.5 839.5C463.967 841.233 464.433 842.933 464.9 844.6C465.7 847.9 466.5 851.3 467.2 854.5C467.7 856.8 468.1 858.9 468.6 861.1C467.5 858.6 465.2 853.9 465 853.5C461.3 847.7 450.8 838.6 443.3 840.5C438 841.9 435.6 847.7 437.4 852.7C439.3 857.8 445.1 861.1 450 862.6C455.4 864.3 467.4 862.7 468.9 862.5C469.6 866.1 470.3 869.6 470.8 872.9C471.267 875.367 471.667 877.7 472 879.9H476.8C476.333 877.433 475.833 874.833 475.3 872.1C474.6 868.4 473.8 864.6 472.9 860.6C473.8 860.2 478.9 858.2 483.4 855.6C487.3 859.9 497.4 864.9 498.7 865.5C497.4 868.9 496 872.2 494.7 875.3C494 876.9 493.3 878.4 492.6 879.9H497.7C498.1 879 498.5 878 498.9 877C500.3 873.6 501.7 869.9 503.2 866.1C504.6 866.4 516.5 868.8 522 867.6C527 866.5 533 863.6 535.3 858.7C537.5 853.8 535.5 847.8 530.3 846.1C523 843.6 511.8 851.9 507.7 857.4C507.5 857.8 505.3 861.6 503.9 864C504.5 862.5 505.1 861 505.7 859.4C506.8 856.2 507.9 853 509.1 849.6C509.567 847.867 510.067 846.167 510.6 844.5C511.1 842.8 511.5 840.9 512 839.1C513 835 513.8 830.7 514.5 826.4C517.2 827.4 527.2 830.8 532.3 830.5C537.5 830.1 543.9 828.2 546.8 823.7C549.7 819.2 548.7 813 543.8 810.5C536.9 806.9 524.7 813.4 519.8 818.3C519.5 818.6 516.4 822.5 514.7 824.6C515.1 822 515.6 819.4 515.9 816.8C516.8 809.2 517.5 801.4 518.3 793.7C518.567 791.3 518.8 788.933 519 786.6C520 786.9 531.7 791.3 537.5 790.9C542.6 790.5 549.1 788.7 552 784.1C554.9 779.6 553.9 773.4 549 770.9C542.1 767.4 529.8 773.9 525 778.7C524.6 779.1 520.1 784.7 519.1 786.1C519.6 780.9 520.2 775.8 521 770.7C522.1 763.7 523.6 756.9 525.5 750.4C525.9 750.5 538.1 755.1 544 754.7C549.2 754.4 555.6 752.5 558.5 747.9C561.5 743.5 560.4 737.3 555.5 734.7C548.6 731.2 536.4 737.7 531.5 742.5C531.1 742.9 526.3 748.9 525.5 750.1C525.6 749.7 525.7 749.3 525.8 748.9C528 742 530.9 735.5 533.9 729.7C535.6 726.2 537.5 723 539.4 720C541.6 721.1 551.6 726 557 726.2C562.1 726.4 568.7 725.2 572.2 721C575.5 716.9 575.2 710.6 570.6 707.6C564.1 703.3 551.2 708.4 545.9 712.7C545.6 712.9 542.9 715.6 540.9 717.6C541.8 716.3 542.7 714.8 543.5 713.5C546.7 708.7 550 704.5 552.9 700.7C554.6 698.6 556.1 696.7 557.6 695C560.3 694.9 571.2 694.6 576 692.4C580.6 690.2 585.9 686.1 587 680.8C588.1 675.6 584.9 670.2 579.4 669.6C571.8 668.8 562.7 679.3 559.9 685.5C559.6 686.1 556.8 695 557 695H557.1C555.7 696.6 554.1 698.4 552.5 700.4C549.5 704.1 546.2 708.3 542.8 713.1C539.5 717.9 536 723.2 532.8 729.1C529.6 735 526.5 741.4 524.2 748.4C524.2 748.467 524.167 748.533 524.1 748.6C524.2 746.4 524.1 740 524 739.6C523.1 732.7 517.4 720.1 509.8 718.7C504.4 717.7 499.8 722 499.3 727.3C498.9 732.7 502.8 738.1 506.7 741.5C511 745.4 523 749.1 523.9 749.4C521.8 756.1 520.1 763.1 518.9 770.3C518.1 774.4 517.5 778.6 516.9 782.8C516.9 780.9 516.9 779.1 516.8 778.9C516 772 510.2 759.4 502.7 758C497.2 757 492.6 761.3 492.2 766.6C491.7 772 495.6 777.4 499.5 780.8C503.4 784.3 513.5 787.7 516.2 788.5C516 790.167 515.8 791.8 515.6 793.4C514.7 801.1 513.8 808.8 512.7 816.4C512.3 819 511.8 821.6 511.4 824.2C511.3 822.5 511.3 821 511.3 820.8C510.4 814 504.7 801.3 497.1 799.9C491.6 798.9 487 803.2 486.6 808.5C486.1 813.9 490.1 819.3 493.9 822.8C497.6 826.1 507 829.3 510.2 830.3C509.6 833 509 835.6 508.4 838.2C507.9 839.9 507.5 841.6 506.9 843.3C506.367 845.033 505.833 846.733 505.3 848.4C504.2 851.6 503 854.9 501.8 857.9C501 860.1 500.1 862.1 499.3 864.1C499.7 861.5 500.4 856.3 500.4 855.9C500.5 851.3 498.9 843.9 495.7 838.7C495.7 838.033 495.667 837.333 495.6 836.6C494.7 831.4 489.8 827.5 484.4 828.9C477 830.9 472.3 844 471.9 850.8C471.9 851.2 472.2 855.7 472.4 858.4C472 856.8 471.7 855.2 471.2 853.6C470.5 850.3 469.6 847 468.7 843.5C468.167 841.833 467.633 840.133 467.1 838.4C466.6 836.7 465.9 835 465.3 833.2C463.9 829.2 462.2 825.2 460.4 821.2C463.3 820.5 473.4 817.9 477.5 814.8C481.6 811.6 485.9 806.5 485.9 801.1C485.9 795.8 481.6 791.2 476.1 791.8C468.4 792.6 461.8 804.8 460.4 811.5C460.3 811.9 459.8 816.9 459.6 819.6C458.5 817.2 457.5 814.8 456.3 812.4C452.9 805.5 449.2 798.7 445.5 791.8C444.433 789.667 443.333 787.567 442.2 785.5C443.3 785.3 455.4 782.4 460 778.9C464.1 775.8 468.4 770.7 468.4 765.2C468.3 759.9 464.1 755.3 458.5 755.9C450.9 756.7 444.2 768.9 442.9 775.7C442.8 776.2 442.1 783.3 442 785.1C439.6 780.5 437.3 775.8 435.1 771.1C432.2 764.7 429.6 758.2 427.6 751.7C428.1 751.6 440.8 748.7 445.5 745.1C449.6 742 453.9 736.9 453.9 731.5C453.8 726.1 449.5 721.5 444 722.1C436.4 723 429.7 735.1 428.3 741.9C428.2 742.4 427.5 750.1 427.5 751.5C427.4 751.1 427.2 750.7 427.1 750.3C425.1 743.4 424 736.4 423.2 729.8C422.8 726 422.6 722.3 422.5 718.7C424.9 718.4 436 717 440.6 714.2C445 711.5 449.8 706.9 450.4 701.5C450.9 696.2 447.2 691.2 441.6 691.2C433.9 691.1 426 702.5 423.9 709.1C423.7 709.4 423 713.2 422.4 715.9C422.4 714.3 422.4 712.6 422.4 711.1C422.4 705.2 422.8 699.9 423.1 695.2C423.3 692.5 423.6 690.1 423.9 687.8C426.1 686.3 435 680 437.7 675.5C440.4 671.1 442.6 664.8 440.6 659.8C438.7 654.8 433 652.1 428.1 654.6C421.2 658.1 419.4 671.9 420.6 678.7C420.7 679.3 423.2 688.3 423.4 688.2L423.5 688.1C423.167 690.233 422.867 692.567 422.6 695.1C422.1 699.9 421.7 705.2 421.5 711.1C421.4 716.9 421.4 723.2 422 729.9C422.6 736.6 423.5 743.7 425.5 750.8C425.5 750.867 425.533 750.933 425.6 751C424.3 749.1 420.8 743.9 420.5 743.5C416 738.3 404.2 730.9 397.1 733.9C392 736.1 390.5 742.2 393.1 746.9C395.7 751.6 402 754 407.1 754.7Z" fill="#1A004F"/>
<path d="M539.1 718.6C539.2 718.6 541.5 709.6 541.6 709C542.6 702.2 540.4 688.5 533.5 685.1C528.5 682.7 522.9 685.6 521.1 690.6C519.2 695.7 521.6 702 524.4 706.3C527.6 711.4 539.1 718.6 539.1 718.6Z" fill="#1A004F"/>
<path d="M233.6 535.7C233.6 535.7 252.4 542.9 254.1 540.2C255.9 537.5 274.6 474.2 274.6 474.2C274.6 474.2 282.1 470.7 285.6 463.8C289.2 457 284.4 433.2 284.4 433.2C284.4 433.2 280 428.5 274.3 430.3C268.7 432.1 265.4 439.8 265.4 439.8C265.4 439.8 262.8 438.5 260.7 448.8C258.6 459.1 261.9 471.9 261.9 471.9L238.4 510.2L224.4 499.2L220 526.5L233.6 535.7Z" fill="#1A004F" stroke="#1A004F" stroke-width="2"/>
<path d="M136.5 572.7C136.5 572.7 129.3 596.3 128.5 608.4C127.8 620.6 119.8 700.4 119.8 700.4L95.5001 780.5C95.5001 780.5 85.6001 803 88.7001 814C91.7001 825 95.9001 819.3 100.1 810.9C104.2 802.6 106.5 781.7 106.5 781.7C106.5 781.7 148.7 711.8 151.7 705.3C154.8 698.9 170 654.8 170 654.8C170 654.8 175.3 725.5 175.7 727.7C176 730 177.9 798 177.9 798C177.9 798 175.3 815.9 178.3 816.3C181.4 816.6 192.4 815.5 192.4 815.5C192.4 815.5 204.2 819.3 209.1 818.9C214 818.5 217.1 820.1 216.7 816.3C216.3 812.5 193.1 799.2 192.4 795.7C191.6 792.3 207.2 728.9 208.3 718.2C209.5 707.6 216.7 610.7 217.1 605.4C217.5 600.1 219.4 587.1 219.4 587.1C219.4 587.1 206.1 595.9 188.2 591.7C170.3 587.5 136.5 572.7 136.5 572.7Z" fill="#1A004F" stroke="#1A004F" stroke-width="2"/>
<path d="M194.2 441.1C194.2 441.1 180.1 444.9 167.1 466.1C154.2 487.3 134.3 569 136 577.2C137.7 585.4 172.3 599.4 191.1 598.7C209.9 598 217.7 592.9 219.4 587.1C221.2 581.3 228.7 483.8 229 476C229.4 468.1 229.7 464 225.6 455.5C221.5 446.9 210.2 437.7 194.2 441.1Z" fill="#596BFB" stroke="#1A004F" stroke-width="2"/>
<path d="M180.2 517.9L158.5 516.4" stroke="#1A004F" stroke-width="2" stroke-linecap="round" stroke-linejoin="round"/>
<path d="M187.3 524.8C187.3 524.8 159.1 535.4 150.8 538.4" stroke="#1A004F" stroke-width="2" stroke-linecap="round" stroke-linejoin="round"/>
<path d="M191.5 528C191.5 528 162.6 553.3 151.9 559.2" stroke="#1A004F" stroke-width="2" stroke-linecap="round" stroke-linejoin="round"/>
<path d="M256.9 385.2C256.9 385.2 258.5 393.2 259.2 397.7C259.9 402.3 259 405.7 259.6 407.1C260.3 408.4 269.5 417.8 268.1 420.3C266.7 422.8 259.6 427.1 259.6 427.1C259.6 427.1 259.4 445.6 258.7 446.3C258.1 447 256 448.8 252.3 448.4C248.7 447.9 240 447.5 240 447.5L225.7 466.6L223.1 472.8L221.1 466.2L205.8 438.1L212.4 426L204.4 401.1C204.4 401.1 198.5 390 216.1 380.8C233.6 371.7 249.8 373.5 253.5 375.4C257.1 377.2 256.9 385.2 256.9 385.2Z" fill="white" stroke="#1A004F" stroke-width="2"/>
<path d="M256.9 385.2C256.9 385.2 253.5 379.7 240.5 384C227.5 388.4 235.9 392.9 236.6 395C237.3 397 226.1 398.4 225.2 401.6C224.3 404.8 228.2 429.7 228.2 429.7C228.2 429.7 236.6 418.9 249.2 422.1C261.7 425.3 261.2 430.6 261 434C260.8 437.4 261 445.9 259.2 448.8C257.4 451.8 244.4 449.7 230.9 445.6C217.4 441.5 218.8 431.9 218.8 431.9C218.8 431.9 218.8 416.7 217.4 413.9C216.1 411.2 209.5 409.4 208.5 411.9C207.6 414.4 207.4 415.5 207.4 415.5C207.4 415.5 200.1 399.1 201 390.6C201.9 382.2 236.1 364.6 247.6 364.9C259 365.1 262.2 382.9 256.9 385.2Z" fill="#1A004F" stroke="#1A004F" stroke-width="2"/>
<path d="M207.4 415.5C207.4 415.5 206.3 420.1 207.9 425.8C209.5 431.5 216.5 434.7 219 426.7C221.5 418.7 219.5 412.8 214.5 410C209.5 407.3 208.3 412.3 207.4 415.5Z" fill="white" stroke="#1A004F" stroke-width="2"/>
<path d="M255.2 409.4C255.2 411.2 254.4 412.8 253.3 412.8C252.3 412.8 251.4 411.2 251.4 409.4C251.4 407.5 252.3 405.9 253.3 405.9C254.4 405.9 255.2 407.5 255.2 409.4Z" fill="#1A004F"/>
<path d="M257.6 402.1C257.6 402.1 249.6 398.4 244.4 401.4C239.1 404.3 242.1 413.5 245.7 415.7C249.4 418 254.9 416.2 257.1 412.3C259.4 408.4 259.6 402.3 257.6 402.1Z" stroke="#1A004F" stroke-width="2" stroke-linecap="round" stroke-linejoin="round"/>
<path d="M257.6 402.1C257.6 402.1 260.1 402.3 264.2 402.3C268.3 402.3 267.9 405.2 267.6 409.4C267.4 413.5 265.6 414.4 265.6 414.4" stroke="#1A004F" stroke-width="2" stroke-linecap="round" stroke-linejoin="round"/>
<path d="M242.3 403.6L217 411.4" stroke="#1A004F" stroke-width="2" stroke-linecap="round" stroke-linejoin="round"/>
<path d="M247.3 397.7C247.3 397.7 250.8 392.9 255.1 396.8" stroke="#1A004F" stroke-width="2" stroke-linecap="round" stroke-linejoin="round"/>
<path d="M245.5 424.6C245.5 424.6 247.8 429 253.5 430.8C253.5 430.8 248 437.2 244.6 436C241.2 434.9 245.5 424.6 245.5 424.6Z" fill="white"/>
<path d="M190.8 441L209.3 481.5L225.7 466.6L203.9 431L190.8 441Z" fill="white" stroke="#1A004F" stroke-width="2"/>
<path d="M223.1 472.8L227.5 471.1L234.5 483L231.7 458.1L223.1 472.8Z" fill="white" stroke="#1A004F" stroke-width="2"/>
<path d="M218.4 506.1C218.4 506.1 195.5 472.2 190.4 466.4C185.3 460.6 171.9 467.1 167.8 483.5C163.7 499.9 177.4 516 194.8 530C212.3 544 214.3 550.2 221.2 549.5C228 548.8 270.7 472.6 270.7 472.6C270.7 472.6 284.7 459.9 285.8 456.8C286.8 453.8 286.1 443.8 285.4 441.1C284.7 438.4 284.4 434 282.7 430.9C282 429.6 280.6 426.1 279.3 424.7C277.9 423.3 273.4 422.5 271.1 425.7C269.4 428.1 263.2 434.6 261.2 437.7C259.1 440.8 260.1 454.1 260.8 458.2C261.5 462.3 261.5 465.7 261.5 465.7L218.4 506.1Z" fill="white" stroke="#1A004F" stroke-width="2"/>
<path d="M268.3 429.3C268.3 429.3 263.8 443 263.7 445.6" stroke="#1A004F" stroke-width="2" stroke-linecap="round" stroke-linejoin="round"/>
<path d="M277.2 424.6L271.1 444.8" stroke="#1A004F" stroke-width="2" stroke-linecap="round" stroke-linejoin="round"/>
<path d="M281.7 429.3L277.9 447.8" stroke="#1A004F" stroke-width="2" stroke-linecap="round" stroke-linejoin="round"/>
<path d="M284.7 437.8C284.7 437.8 283.8 447.6 282.4 450.8" stroke="#1A004F" stroke-width="2" stroke-linecap="round" stroke-linejoin="round"/>
<path d="M228.4 496.7L218.4 506.1C218.4 506.1 195.5 472.2 190.4 466.4C185.3 460.6 171.9 467.1 167.8 483.5C163.7 499.9 177.4 516 194.8 530C212.3 544 214.3 550.2 221.2 549.5C224.4 549.2 235.7 531.9 246.7 513.8L228.4 496.7Z" fill="#596BFB" stroke="#1A004F" stroke-width="2"/>
<path d="M239.3 525L218.4 506.1L224.7 536.6" stroke="#1A004F" stroke-width="2" stroke-linecap="round" stroke-linejoin="round"/>
<path d="M218.4 506.1L215.5 536.6" stroke="#1A004F" stroke-width="2" stroke-linecap="round" stroke-linejoin="round"/>
<path d="M1055.8 93.6L1054.6 89.6C1054.6 89.6 932.8 224.7 755.2 281C745.7 284.1 735.7 287 725.5 289.8" stroke="white" stroke-width="10"/>
<path d="M685.3 300C655.2 307 623.5 313.1 591.8 318.5" stroke="white" stroke-width="10"/>
<path d="M604.1 301.8C499.5 320.1 392.2 329.7 332.5 334.1C306.6 336 287.4 359 290.2 384.8L304.8 520.6C307.7 547.5 333.1 566.1 359.7 560.7C419.3 548.4 524.3 528.3 627 515.1L604.1 301.8Z" fill="#1A004F" stroke="#1A004F" stroke-width="2" stroke-linecap="round" stroke-linejoin="round"/>
<path d="M427.1 524.2C427.1 524.2 469.3 610 475.9 617.9C478.4 620.9 483 623 487.8 624.5C499.5 628.2 509.5 635.7 516.2 645.9C546.4 691.6 623.5 808.4 627.4 812.6C632.3 817.8 644.2 822.2 650.9 817.2C657.5 812.2 706.8 763.8 703.1 742.7C699.4 721.6 692.9 728 681.9 719.2C673.1 712 638.9 650.9 625.9 627.4C622.8 621.7 623.1 614.8 626.6 609.4L638.1 591.9C638.1 591.9 587.9 551.4 587.1 544.3C586.3 537.2 607.3 532.1 608 524.8C608.6 517.6 590.1 492.3 590.1 492.3L427.1 524.2Z" fill="#DC3341" stroke="#1A004F" stroke-width="2"/>
<path d="M606.8 565.5L643.7 579C645.1 579.6 645.6 581.3 644.8 582.6L638.1 591.9L606.8 565.5Z" fill="#DC3341" stroke="#DC3341" stroke-width="2"/>
<path d="M515.1 600L504.5 608.2" stroke="#1A004F" stroke-width="2"/>
<path d="M587.1 544.3L524.3 592.9" stroke="#1A004F" stroke-width="2"/>
<path d="M511.7 424.3L470.9 428.7L468.1 402.6L508.9 398.3L511.7 424.3Z" fill="#DC3341" stroke="#DC3341" stroke-width="2"/>
<path d="M62 817.5H317.093V881H62V817.5Z" fill="#1A004F" stroke="#1A004F" stroke-width="2"/>
<path d="M142.304 817.5H995.4V881H142.304V817.5Z" fill="#D8DCF6" stroke="#1A004F" stroke-width="2"/>
<path d="M775.9 664H661.8V716.2H775.9V664Z" fill="#1A004F" stroke="#1A004F" stroke-width="2"/>
<path d="M775.9 714.5H604.4V766.7H775.9V714.5Z" fill="#1A004F" stroke="#1A004F" stroke-width="2"/>
<path d="M775.9 765H547.1V817.3H775.9V765Z" fill="#1A004F" stroke="#1A004F" stroke-width="2"/>
<path d="M815.8 664H701.7V716.2H815.8V664Z" fill="#D8DCF6" stroke="#1A004F" stroke-width="2"/>
<path d="M815.8 714.5H644.3V766.7H815.8V714.5Z" fill="#D8DCF6" stroke="#1A004F" stroke-width="2"/>
<path d="M815.8 765H587V817.3H815.8V765Z" fill="#D8DCF6" stroke="#1A004F" stroke-width="2"/>
<path d="M833.5 707.7L831.5 709.8L824.6 716.7L815.6 707.7C813.7 705.8 813.7 702.8 815.6 700.9C816.5 699.9 817.8 699.4 819 699.4C820.3 699.4 821.5 699.9 822.5 700.9L824.6 703L826.7 700.9C827.6 699.9 828.9 699.4 830.1 699.4C831.4 699.4 832.6 699.9 833.5 700.9C835.4 702.8 835.4 705.8 833.5 707.7Z" fill="#DC3341" stroke="#DC3341" stroke-width="2"/>
<path d="M860.9 712.1C861.6 710.9 862 709.5 862 708C862 703.3 858.2 699.4 853.4 699.4C848.7 699.4 844.8 703.3 844.8 708C844.8 712.8 848.7 716.6 853.4 716.6C855 716.6 856.5 716.1 857.8 715.4L861.4 717.2L860.9 712.1Z" fill="white" stroke="#1A004F" stroke-width="2"/>
<path d="M892.1 699.4L879.1 710.1L871.6 705.6L892.1 699.4Z" fill="white" stroke="#1A004F" stroke-width="2" stroke-linecap="round" stroke-linejoin="round"/>
<path d="M879.1 710.1L880.9 718.4L892.1 699.4L879.1 710.1Z" fill="white" stroke="#1A004F" stroke-width="2" stroke-linecap="round" stroke-linejoin="round"/>
<path d="M811.5 739.1H891.2" stroke="#1A004F" stroke-width="2"/>
<path d="M811.5 755.2H976.8" stroke="#1A004F" stroke-width="2"/>
<path d="M811.5 771.3H891.2" stroke="#1A004F" stroke-width="2"/>
<path d="M986.3 882H816.9C804.8 882 795 872.2 795 860V482.9C795 470.8 804.8 460.9 816.9 460.9H986.3C998.4 460.9 1008.3 470.8 1008.3 482.9V860C1008.3 872.2 998.4 882 986.3 882Z" fill="#1A004F" stroke="#1A004F" stroke-width="2"/>
<path d="M977.7 873.9H825.5C813.4 873.9 803.5 864 803.5 851.9V491.1C803.5 478.9 813.4 469.1 825.5 469.1H977.7C989.9 469.1 999.7 478.9 999.7 491.1V851.9C999.7 864 989.9 873.9 977.7 873.9Z" fill="white" stroke="#1A004F" stroke-width="2"/>
<path d="M999.7 500.3V486.5C999.7 476.9 991.9 469.1 982.3 469.1H820.9C811.3 469.1 803.5 476.9 803.5 486.5V500.3H999.7Z" fill="#596BFB" stroke="#1A004F" stroke-width="2"/>
<path d="M803.5 850.5V856.5C803.5 866.1 811.3 873.9 820.9 873.9H982.3C991.9 873.9 999.7 866.1 999.7 856.5V850.5H803.5Z" fill="#596BFB" stroke="#1A004F" stroke-width="2"/>
<path d="M806.7 691.6H996H806.7Z" fill="white"/>
<path d="M806.7 691.6H996" stroke="#1A004F" stroke-width="2"/>
<path d="M993.1 507L829.6 516.6L827.9 487.9L822 386.7L985.5 377.1L987 403.1L993.1 507Z" fill="white" stroke="#1A004F" stroke-width="2"/>
<path d="M872.4 412.7C872.4 404.7 865.9 398.2 857.9 398.2C849.8 398.2 843.3 404.7 843.3 412.7C843.3 420.7 849.8 427.2 857.9 427.2C865.9 427.2 872.4 420.7 872.4 412.7Z" fill="#1A004F"/>
<path d="M993.1 507L829.6 516.6L827.9 487.9L894.5 427.2L929.7 450L973.2 393.3L987 403.1L993.1 507Z" fill="#1A004F"/>
<path d="M398.2 656.2C398.2 630.6 377.5 609.8 351.9 609.8C326.3 609.8 305.6 630.6 305.6 656.2C305.6 681.7 326.3 702.5 351.9 702.5C377.5 702.5 398.2 681.7 398.2 656.2Z" fill="white" stroke="#1A004F" stroke-width="2"/>
<path d="M388 656.2C388 636.3 371.8 620.1 351.9 620.1C332 620.1 315.9 636.3 315.9 656.2C315.9 676.1 332 692.2 351.9 692.2C371.8 692.2 388 676.1 388 656.2Z" fill="#BCD7F4" stroke="#1A004F" stroke-width="2"/>
<path d="M317.9 687.5L271.7 727" stroke="#1A004F" stroke-width="8"/>
<path d="M1268.4 67.9999C1268.4 67.9999 1266.9 66.0999 1263.7 62.8999" stroke="#1A004F" stroke-width="2" stroke-linecap="round" stroke-linejoin="round"/>
<path d="M1253 52.1787C1224.43 27.5754 1150.95 -17.7105 1019.57 9.34342C843.859 45.7093 525.849 303.113 388.677 475.925C256.442 642.463 142.908 699.806 27 710" stroke="#1A004F" stroke-width="2" stroke-linecap="round" stroke-linejoin="round" stroke-dasharray="14 14"/>
<path d="M1304.9 169.9L1272.6 88.2999L1306.9 58.5999L1304.9 169.9Z" fill="white" stroke="#1A004F" stroke-width="2" stroke-linecap="round" stroke-linejoin="round"/>
<path d="M1272.6 88.2999L1228.6 84.3999L1304.9 169.9L1272.6 88.2999Z" fill="white" stroke="#1A004F" stroke-width="2" stroke-linecap="round" stroke-linejoin="round"/>
<path d="M1101.8 738.1C1108.3 739.1 1121.9 735.1 1123 734.8C1125.2 742.5 1128 750.1 1131.3 757.7C1133.2 762.1 1135.2 766.4 1137.3 770.7C1136.1 768.9 1134.9 767.3 1134.8 767.1C1129.7 761.2 1116.4 752.8 1108.3 756.2C1102.5 758.7 1100.9 765.6 1103.8 770.9C1106.7 776.3 1113.8 778.9 1119.6 779.8C1125.4 780.6 1137.1 777.5 1140.2 776.6C1141 778.267 1141.83 779.9 1142.7 781.5C1146.6 789.4 1150.6 797.2 1154.3 805.1C1155.6 807.8 1156.7 810.6 1157.9 813.3C1156.8 811.7 1155.9 810.3 1155.7 810.2C1150.6 804.3 1137.3 795.9 1129.3 799.3C1123.5 801.7 1121.8 808.7 1124.7 814C1127.7 819.3 1134.8 822 1140.5 822.9C1146.1 823.7 1156.9 820.9 1160.6 819.8C1161.7 822.7 1162.9 825.6 1163.8 828.4C1164.4 830.3 1165.2 832.1 1165.7 834.1C1166.23 836.1 1166.77 838.033 1167.3 839.9C1168.2 843.7 1169.1 847.5 1169.9 851.2C1170.5 853.7 1171 856.1 1171.5 858.6C1170.2 855.8 1167.6 850.5 1167.4 850C1163.2 843.5 1151.3 833.2 1142.9 835.3C1136.8 836.9 1134.1 843.4 1136.2 849.1C1138.3 854.9 1144.9 858.6 1150.4 860.3C1156.6 862.2 1170.1 860.5 1171.8 860.2C1172.6 864.3 1173.4 868.2 1174 872C1174.53 874.733 1175 877.367 1175.4 879.9H1180.8C1180.27 877.1 1179.7 874.133 1179.1 871C1178.3 866.9 1177.3 862.5 1176.3 858C1177.4 857.6 1183.1 855.3 1188.3 852.4C1192.7 857.3 1204.2 862.9 1205.6 863.6C1204.1 867.5 1202.5 871.2 1201 874.6C1200.2 876.5 1199.4 878.2 1198.7 879.9H1204.4C1204.9 878.9 1205.3 877.8 1205.8 876.7C1207.4 872.8 1209 868.6 1210.6 864.3C1212.3 864.6 1225.7 867.4 1231.9 865.9C1237.6 864.7 1244.5 861.5 1247 855.8C1249.5 850.4 1247.3 843.6 1241.3 841.6C1233.1 838.8 1220.4 848.2 1215.8 854.5C1215.6 854.8 1213 859.2 1211.5 861.9C1212.2 860.2 1212.8 858.5 1213.5 856.6C1214.8 853.1 1216 849.4 1217.3 845.5C1217.9 843.633 1218.47 841.733 1219 839.8C1219.7 837.8 1220.1 835.7 1220.6 833.7C1221.7 829 1222.6 824.2 1223.4 819.3C1226.6 820.4 1237.8 824.3 1243.7 823.9C1249.5 823.5 1256.7 821.4 1260.1 816.2C1263.4 811.2 1262.2 804.1 1256.6 801.3C1248.9 797.3 1235 804.6 1229.5 810.1C1229.1 810.5 1225.6 814.9 1223.7 817.3C1224.2 814.4 1224.7 811.4 1225 808.4C1226.1 799.8 1226.9 791 1227.8 782.2C1228.07 779.533 1228.33 776.867 1228.6 774.2C1229.7 774.6 1243 779.6 1249.5 779.1C1255.3 778.7 1262.6 776.6 1266 771.4C1269.3 766.4 1268.1 759.3 1262.5 756.5C1254.8 752.5 1240.9 759.8 1235.3 765.3C1234.9 765.7 1229.9 772 1228.7 773.7C1229.3 767.8 1230 762 1230.9 756.2C1232.1 748.3 1233.7 740.5 1235.9 733.2C1236.4 733.4 1250.2 738.6 1256.9 738.1C1262.7 737.7 1270 735.6 1273.4 730.4C1276.7 725.4 1275.5 718.4 1269.9 715.5C1262.1 711.5 1248.3 718.8 1242.7 724.3C1242.3 724.8 1236.9 731.6 1236 732.9C1236.1 732.4 1236.2 732 1236.3 731.5C1238.7 723.7 1242 716.4 1245.4 709.7C1247.4 705.9 1249.5 702.3 1251.7 698.8C1254.1 700 1265.5 705.6 1271.6 705.8C1277.4 706 1284.9 704.7 1288.8 700C1292.6 695.3 1292.2 688.2 1287 684.7C1279.7 679.9 1265.1 685.7 1259 690.5C1258.7 690.8 1255.6 693.9 1253.4 696.1C1254.4 694.6 1255.4 693 1256.3 691.5C1260 686 1263.7 681.2 1267 677C1268.9 674.6 1270.6 672.5 1272.3 670.5C1275.3 670.4 1287.7 670.1 1293.1 667.5C1298.3 665.1 1304.4 660.4 1305.6 654.4C1306.9 648.5 1303.2 642.4 1297 641.7C1288.3 640.8 1278 652.7 1274.9 659.8C1274.6 660.4 1271.4 670.5 1271.6 670.5C1271.6 670.5 1271.7 670.5 1271.8 670.5C1270.1 672.4 1268.4 674.4 1266.5 676.6C1263.1 680.8 1259.3 685.5 1255.6 691C1251.8 696.4 1247.8 702.4 1244.2 709.1C1240.6 715.8 1237.1 723 1234.5 730.9C1234.43 731.033 1234.4 731.133 1234.4 731.2C1234.4 728.7 1234.3 721.5 1234.3 721C1233.3 713.2 1226.8 698.9 1218.2 697.3C1212 696.2 1206.8 701 1206.3 707C1205.8 713.2 1210.3 719.3 1214.6 723.2C1219.5 727.5 1233.1 731.8 1234.1 732.1C1231.7 739.7 1229.9 747.6 1228.4 755.8C1227.6 760.5 1226.9 765.2 1226.2 769.9C1226.2 767.7 1226.2 765.8 1226.1 765.5C1225.1 757.8 1218.7 743.4 1210.1 741.8C1203.9 740.7 1198.7 745.5 1198.2 751.5C1197.7 757.7 1202.1 763.8 1206.5 767.7C1210.9 771.6 1222.4 775.5 1225.4 776.4C1225.2 778.267 1224.97 780.1 1224.7 781.9C1223.7 790.7 1222.7 799.4 1221.4 807.9C1221 810.9 1220.5 813.9 1219.9 816.8C1219.9 814.9 1219.9 813.2 1219.8 813C1218.8 805.2 1212.4 790.9 1203.8 789.3C1197.6 788.2 1192.4 793 1191.9 799C1191.4 805.2 1195.8 811.3 1200.2 815.2C1204.4 818.9 1214.9 822.6 1218.6 823.8C1217.9 826.8 1217.3 829.8 1216.6 832.7C1216 834.6 1215.6 836.5 1214.9 838.5C1214.3 840.433 1213.7 842.333 1213.1 844.2C1211.8 847.8 1210.4 851.5 1209.1 855C1208.1 857.4 1207.2 859.7 1206.3 862C1206.7 859.1 1207.5 853.2 1207.6 852.7C1207.7 847.5 1205.8 839.1 1202.2 833.2C1202.2 832.4 1202.13 831.633 1202 830.9C1201.1 825 1195.5 820.5 1189.4 822.2C1181 824.4 1175.6 839.2 1175.3 847C1175.2 847.4 1175.5 852.4 1175.8 855.6C1175.3 853.8 1175 852 1174.5 850.1C1173.6 846.4 1172.6 842.7 1171.6 838.7C1171 836.767 1170.4 834.833 1169.8 832.9C1169.3 831 1168.5 829 1167.8 827C1166.1 822.5 1164.2 817.9 1162.2 813.4C1165.4 812.6 1177 809.7 1181.6 806.1C1186.2 802.6 1191.1 796.8 1191.1 790.6C1191 784.6 1186.2 779.4 1179.9 780.1C1171.3 781 1163.7 794.8 1162.2 802.5C1162.1 802.9 1161.6 808.5 1161.3 811.6C1160.1 808.9 1158.9 806.2 1157.5 803.5C1153.7 795.7 1149.5 787.9 1145.4 780.1C1144.13 777.767 1142.87 775.4 1141.6 773C1142.8 772.7 1156.6 769.5 1161.8 765.5C1166.4 762 1171.3 756.2 1171.3 750C1171.2 744 1166.4 738.8 1160.1 739.5C1151.4 740.4 1143.9 754.2 1142.3 761.8C1142.2 762.4 1141.5 770.5 1141.4 772.5C1138.7 767.3 1136 762 1133.6 756.7C1130.2 749.4 1127.3 742.1 1125.1 734.7C1125.6 734.6 1140 731.3 1145.4 727.3C1150 723.7 1154.9 717.9 1154.8 711.8C1154.8 705.7 1149.9 700.5 1143.7 701.2C1135 702.2 1127.5 716 1125.9 723.6C1125.8 724.2 1125 732.9 1125 734.4C1124.8 734 1124.7 733.6 1124.5 733.1C1122.2 725.3 1120.9 717.4 1120.1 709.9C1119.6 705.6 1119.4 701.4 1119.3 697.4C1122 697 1134.6 695.4 1139.8 692.2C1144.7 689.2 1150.2 684 1150.9 677.9C1151.5 671.9 1147.2 666.2 1140.9 666.1C1132.2 666.1 1123.2 679 1120.8 686.4C1120.7 686.8 1119.8 691.1 1119.2 694.2C1119.2 692.3 1119.1 690.4 1119.1 688.7C1119.2 682.1 1119.6 676.1 1120 670.7C1120.2 667.7 1120.5 664.9 1120.8 662.4C1123.4 660.6 1133.5 653.5 1136.6 648.4C1139.6 643.5 1142.1 636.3 1139.8 630.6C1137.6 625 1131.2 621.9 1125.6 624.7C1117.8 628.7 1115.8 644.3 1117.1 652C1117.2 652.7 1120.1 662.9 1120.3 662.8L1120.4 662.7C1120.1 665.1 1119.7 667.8 1119.4 670.7C1118.9 676 1118.3 682.1 1118.2 688.7C1118 695.3 1118 702.5 1118.7 710.1C1119.4 717.6 1120.5 725.6 1122.7 733.6C1122.7 733.733 1122.7 733.833 1122.7 733.9C1121.4 731.8 1117.3 725.9 1117 725.5C1111.9 719.6 1098.6 711.2 1090.6 714.6C1084.8 717 1083.1 724 1086 729.2C1088.9 734.6 1096 737.3 1101.8 738.1Z" fill="#1A004F"/>
<path d="M1251.3 697.2C1251.5 697.3 1254.1 687 1254.2 686.3C1255.3 678.6 1252.8 663.1 1245 659.3C1239.3 656.6 1233 659.9 1230.9 665.5C1228.8 671.3 1231.5 678.4 1234.6 683.3C1238.4 689 1251.3 697.2 1251.3 697.2Z" fill="#1A004F"/>
<path d="M1137.6 619.3C1136.8 619.433 1136 619.5 1135.2 619.5C1120.6 619.8 1108.5 608.2 1108.2 593.6L1106.6 514.4C1104.2 394.5 1085.8 275.3 1052 160.2L1029.2 82.5C1025.1 68.5 1033.2 53.8 1047.2 49.7C1061.2 45.6 1075.9 53.6 1080 67.6L1102.8 145.3C1137.9 264.9 1157 388.7 1159.5 513.3L1161.2 592.5C1161.4 606.3 1151.1 617.9 1137.6 619.3Z" fill="#1A004F" stroke="#1A004F" stroke-width="2" stroke-linecap="round" stroke-linejoin="round"/>
<path d="M1338.2 881.8L62 882" stroke="#1A004F" stroke-width="2"/>
<path d="M1233.7 50.8L1134.5 112.4" stroke="#1A004F" stroke-width="2" stroke-linecap="round" stroke-linejoin="round"/>
<path d="M1167 315.9L1240.7 307.9" stroke="#1A004F" stroke-width="2" stroke-linecap="round" stroke-linejoin="round"/>
<path d="M1178.9 514.2L1267.8 545" stroke="#1A004F" stroke-width="2" stroke-linecap="round" stroke-linejoin="round"/>
<path d="M1297.1 352.2C1276.2 352.2 1259.2 335.3 1259.2 314.3C1259.2 293.4 1276.2 276.5 1297.1 276.5C1318 276.5 1335 293.4 1335 314.3C1335 335.3 1318 352.2 1297.1 352.2Z" fill="#1A004F"/>
<path d="M1291.1 337.2H1300.3V314.1H1306.8L1307.5 306.4H1300.3C1300.3 306.4 1300.3 303.5 1300.3 302C1300.3 300.2 1300.7 299.5 1302.5 299.5C1303.9 299.5 1307.5 299.5 1307.5 299.5V291.4C1307.5 291.4 1302.2 291.4 1301.1 291.4C1294.2 291.4 1291.1 294.5 1291.1 300.3C1291.1 305.3 1291.1 306.4 1291.1 306.4H1286.3V314.2H1291.1V337.2Z" fill="white"/>
<path d="M1219.9 465.7C1199 465.7 1182 448.8 1182 427.8C1182 406.9 1199 390 1219.9 390C1240.8 390 1257.8 406.9 1257.8 427.8C1257.8 448.8 1240.8 465.7 1219.9 465.7Z" fill="#1A004F"/>
<path fill-rule="evenodd" clip-rule="evenodd" d="M1228.5 407.2C1230.7 407.3 1232.2 407.6 1233.5 408.2C1234.9 408.7 1236.1 409.4 1237.2 410.5C1238.4 411.7 1239.1 412.9 1239.6 414.2C1240.1 415.5 1240.5 417.1 1240.6 419.3C1240.7 421.5 1240.7 422.2 1240.7 427.8C1240.7 433.5 1240.7 434.2 1240.6 436.4C1240.5 438.6 1240.1 440.1 1239.6 441.4C1239.1 442.8 1238.4 444 1237.2 445.1C1236.1 446.3 1234.9 447 1233.5 447.5C1232.2 448 1230.7 448.4 1228.5 448.5C1226.3 448.6 1225.6 448.6 1219.9 448.6C1214.3 448.6 1213.6 448.6 1211.4 448.5C1209.2 448.4 1207.6 448 1206.3 447.5C1205 447 1203.8 446.3 1202.6 445.1C1201.5 444 1200.8 442.8 1200.2 441.4C1199.7 440.1 1199.4 438.6 1199.3 436.4C1199.2 434.2 1199.2 433.5 1199.2 427.8C1199.2 422.2 1199.2 421.5 1199.3 419.3C1199.4 417.1 1199.7 415.5 1200.2 414.2C1200.8 412.9 1201.5 411.7 1202.6 410.5C1203.8 409.4 1205 408.7 1206.3 408.2C1207.6 407.6 1209.2 407.3 1211.4 407.2C1213.6 407.1 1214.3 407.1 1219.9 407.1C1225.6 407.1 1226.3 407.1 1228.5 407.2ZM1211.5 410.9C1209.5 411 1208.4 411.4 1207.7 411.6C1206.7 412 1206 412.5 1205.3 413.2C1204.6 413.9 1204.1 414.6 1203.7 415.6C1203.5 416.3 1203.1 417.4 1203 419.4C1202.9 421.6 1202.9 422.3 1202.9 427.8C1202.9 433.4 1202.9 434 1203 436.2C1203.1 438.2 1203.5 439.3 1203.7 440.1C1204.1 441 1204.6 441.7 1205.3 442.5C1206 443.2 1206.7 443.6 1207.7 444C1208.4 444.3 1209.5 444.6 1211.5 444.7C1213.7 444.8 1214.4 444.9 1219.9 444.9C1225.5 444.9 1226.1 444.8 1228.3 444.7C1230.3 444.6 1231.4 444.3 1232.2 444C1233.1 443.6 1233.8 443.2 1234.6 442.5C1235.3 441.7 1235.7 441 1236.1 440.1C1236.4 439.3 1236.7 438.2 1236.8 436.2C1236.9 434 1237 433.4 1237 427.8C1237 422.3 1236.9 421.6 1236.8 419.4C1236.7 417.4 1236.4 416.3 1236.1 415.6C1235.7 414.6 1235.3 413.9 1234.6 413.2C1233.8 412.5 1233.1 412 1232.2 411.6C1231.4 411.4 1230.3 411 1228.3 410.9C1226.1 410.8 1225.5 410.8 1219.9 410.8C1214.4 410.8 1213.7 410.8 1211.5 410.9Z" fill="white"/>
<path fill-rule="evenodd" clip-rule="evenodd" d="M1230.6 427.8C1230.6 433.7 1225.8 438.5 1219.9 438.5C1214 438.5 1209.3 433.7 1209.3 427.8C1209.3 421.9 1214 417.2 1219.9 417.2C1225.8 417.2 1230.6 421.9 1230.6 427.8ZM1226.8 427.8C1226.8 424 1223.8 420.9 1219.9 420.9C1216.1 420.9 1213 424 1213 427.8C1213 431.7 1216.1 434.8 1219.9 434.8C1223.8 434.8 1226.8 431.7 1226.8 427.8Z" fill="white"/>
<path d="M1233.5 416.7C1233.5 418.1 1232.4 419.2 1231 419.2C1229.6 419.2 1228.5 418.1 1228.5 416.7C1228.5 415.4 1229.6 414.3 1231 414.3C1232.4 414.3 1233.5 415.4 1233.5 416.7Z" fill="white" stroke="white" stroke-width="2"/>
<path d="M1208.8 240.2C1187.9 240.2 1170.9 223.2 1170.9 202.3C1170.9 181.4 1187.9 164.4 1208.8 164.4C1229.7 164.4 1246.7 181.4 1246.7 202.3C1246.7 223.2 1229.7 240.2 1208.8 240.2Z" fill="#1A004F"/>
<path d="M1188.6 215C1192.3 217.3 1196.6 218.7 1201.3 218.7C1216.7 218.7 1225.4 205.7 1224.8 194.1C1226.5 192.9 1227.9 191.4 1229 189.8C1227.47 190.467 1225.87 190.9 1224.2 191.1C1225.9 190.1 1227.2 188.4 1227.9 186.5C1226.3 187.5 1224.5 188.1 1222.6 188.5C1221.1 186.9 1218.9 185.9 1216.6 185.9C1211.2 185.9 1207.3 190.9 1208.5 196.1C1201.6 195.7 1195.5 192.4 1191.4 187.4C1189.2 191.1 1190.3 196 1194 198.5C1192.6 198.4 1191.3 198.1 1190.2 197.4C1190.1 201.3 1192.9 204.9 1196.9 205.7C1195.7 206 1194.4 206.1 1193.1 205.8C1194.2 209.1 1197.2 211.5 1200.9 211.6C1197.4 214.3 1193 215.5 1188.6 215Z" fill="white"/>
</svg>
