<svg width="508" height="531" viewBox="0 0 508 531" fill="none" xmlns="http://www.w3.org/2000/svg">
<path d="M379 378.6C347.1 384.8 303.4 390.4 283 368.5C262.5 346.6 265.2 297.1 245.4 277.5C225.5 257.9 194.8 268.8 168.9 263.5C143 258.2 121.8 236.7 114 211.4C106.1 186 111.6 156.8 97.9 135.4C84.2 114 45.5 106.3 26 85C6.6 63.8 6.50002 29 0.400024 0H379V378.6Z" fill="#2921C7"/>
<path d="M508 530.5C496 498 486.938 494 508 516.5C487.5 494.6 490 512.771 508 530.5C488.1 510.9 457.4 521.8 431.5 516.5C405.6 511.2 384.4 489.7 376.6 464.4C368.7 439 374.2 409.8 360.5 388.4C346.8 367 308.1 359.3 288.6 338C269.2 316.8 269.1 282 263 253H508V530.5Z" fill="#2921C7"/>
<path d="M507.6 386.6C475.7 392.8 443.8 399 423.4 377.1C402.9 355.2 393.8 305.1 374 285.5C354.1 265.9 323.4 276.8 297.5 271.5C271.6 266.2 250.4 244.7 242.6 219.4C234.7 194 240.2 164.8 226.5 143.4C212.8 122 174.1 114.3 154.6 93C135.2 71.8 135.1 37 129 8H507.6V386.6Z" fill="#2921C7"/>
</svg>
