<svg width="1053" height="307" viewBox="0 0 1053 307" fill="none" xmlns="http://www.w3.org/2000/svg">
<path d="M34.5 75L42.0901 50.5047C66.6302 57.3322 115.71 70.9872 164.562 69.8167C213.528 68.7439 262.152 52.7481 311.118 38.5079C359.97 24.1701 409.05 11.4905 457.902 20.9515C506.868 30.3149 555.492 61.9164 604.458 70.4995C653.31 79.0826 702.39 64.8425 751.242 46.3107C800.208 27.779 848.832 4.95562 897.798 1.73695C946.65 -1.48172 995.73 14.7092 1020.27 22.9022L1044.81 30.9976V184.128H1020.27C995.73 184.128 946.65 184.128 897.798 184.128C848.832 184.128 800.208 184.128 751.242 184.128C702.39 184.128 653.31 184.128 604.458 184.128C555.492 184.128 506.868 184.128 457.902 184.128C409.05 184.128 359.97 184.128 311.118 184.128C262.152 184.128 213.528 184.128 164.562 184.128C115.71 184.128 66.6302 184.128 42.0901 184.128H17.55L34.5 75Z" fill="url(#paint0_linear_9_17)"/>
<path d="M0 85.2317L17.55 70.2474C35.1 55.263 70.2 25.2944 105.3 10.8095C140.4 -3.67537 175.5 -2.67641 210.6 8.3121C245.7 19.3006 280.8 40.2787 315.9 60.4576C351 80.5366 386.1 99.9164 421.2 103.712C456.3 107.508 491.4 85.6313 526.5 70.2474C561.6 54.9634 596.7 24.7949 631.8 27.2923C699.075 27.2923 716.625 60.4576 747.63 82.7343C782.73 98.3181 807.3 113.902 842.4 102.713C877.5 91.5252 912.6 61.9561 947.7 42.9759C982.8 23.9957 1017.9 15.6045 1035.45 11.5088L1053 7.31315V307H1035.45C1017.9 307 982.8 307 947.7 307C912.6 307 877.5 307 842.4 307C807.3 307 772.2 307 737.1 307C702 307 666.9 307 631.8 307C596.7 307 561.6 307 526.5 307C491.4 307 456.3 307 421.2 307C386.1 307 351 307 315.9 307C280.8 307 245.7 307 210.6 307C175.5 307 140.4 307 105.3 307C70.2 307 35.1 307 17.55 307H0V85.2317Z" fill="url(#paint1_linear_9_17)"/>
<defs>
<linearGradient id="paint0_linear_9_17" x1="92.8824" y1="295.389" x2="1407.68" y2="21.3421" gradientUnits="userSpaceOnUse">
<stop stop-color="#250C86"/>
<stop offset="0.486664" stop-color="#7262AE"/>
<stop offset="0.911145" stop-color="#D1C9EC"/>
</linearGradient>
<linearGradient id="paint1_linear_9_17" x1="654.03" y1="219.092" x2="-646.898" y2="-97.3849" gradientUnits="userSpaceOnUse">
<stop stop-color="#2D1395"/>
<stop offset="1" stop-color="#8E77EA"/>
</linearGradient>
</defs>
</svg>
