<svg version="1.2" xmlns="http://www.w3.org/2000/svg" viewBox="0 0 2475 1650" width="2475" height="1650">
	<title>20945183-ai</title>
	<defs>
		<linearGradient id="g1" x1="125.7" y1="132.4" x2="2257.3" y2="132.4" gradientUnits="userSpaceOnUse">
			<stop offset="0" stop-color="#dae3fe"/>
			<stop offset="1" stop-color="#e9effd"/>
		</linearGradient>
		<linearGradient id="g2" x1="630" y1="732.7" x2="1042.1" y2="732.7" gradientUnits="userSpaceOnUse">
			<stop offset="0" stop-color="#dae3fe"/>
			<stop offset="1" stop-color="#e9effd"/>
		</linearGradient>
		<linearGradient id="g3" x1="-217.9" y1="995.5" x2="1269.3" y2="-836.4" gradientUnits="userSpaceOnUse">
			<stop offset="0" stop-color="#09005d"/>
			<stop offset="1" stop-color="#1a0f91"/>
		</linearGradient>
		<linearGradient id="g4" x1="3954.4" y1="-1060.8" x2="2108.2" y2="1300.9" gradientUnits="userSpaceOnUse">
			<stop offset="0" stop-color="#4042e2"/>
			<stop offset="1" stop-color="#4f52ff"/>
		</linearGradient>
		<linearGradient id="g5" x1="1269.4" y1="241" x2="1448.8" y2="241" gradientUnits="userSpaceOnUse">
			<stop offset="0" stop-color="#4042e2"/>
			<stop offset="1" stop-color="#4f52ff"/>
		</linearGradient>
		<linearGradient id="g6" x1="1592.4" y1="1298.2" x2="1537.3" y2="2230.1" gradientUnits="userSpaceOnUse">
			<stop offset="0" stop-color="#4042e2"/>
			<stop offset="1" stop-color="#4f52ff"/>
		</linearGradient>
		<linearGradient id="g7" x1="1683.4" y1="509.2" x2="2268.7" y2="509.2" gradientUnits="userSpaceOnUse">
			<stop offset="0" stop-color="#dae3fe"/>
			<stop offset="1" stop-color="#e9effd"/>
		</linearGradient>
		<linearGradient id="g8" x1="1343.8" y1="184.8" x2="2103.1" y2="184.8" gradientUnits="userSpaceOnUse">
			<stop offset="0" stop-color="#dae3fe"/>
			<stop offset="1" stop-color="#e9effd"/>
		</linearGradient>
		<linearGradient id="g9" x1="1227.2" y1="1316.3" x2="1297.3" y2="1316.3" gradientUnits="userSpaceOnUse">
			<stop offset="0" stop-color="#09005d"/>
			<stop offset="1" stop-color="#1a0f91"/>
		</linearGradient>
		<linearGradient id="g10" x1="1390.2" y1="1279.8" x2="1166.8" y2="1455.2" gradientUnits="userSpaceOnUse">
			<stop offset="0" stop-color="#53d8ff"/>
			<stop offset="1" stop-color="#3840f7"/>
		</linearGradient>
		<linearGradient id="g11" x1="1793.9" y1="93.6" x2="1492.8" y2="405.6" gradientUnits="userSpaceOnUse">
			<stop offset="0" stop-color="#4042e2"/>
			<stop offset="1" stop-color="#4f52ff"/>
		</linearGradient>
		<linearGradient id="g12" x1="1547.2" y1="143.3" x2="1564.3" y2="241.7" gradientUnits="userSpaceOnUse">
			<stop offset="0" stop-color="#ff928e"/>
			<stop offset="1" stop-color="#feb3b1"/>
		</linearGradient>
		<linearGradient id="g13" x1="1663.4" y1="234.7" x2="1587.6" y2="332.7" gradientUnits="userSpaceOnUse">
			<stop offset="0" stop-color="#4042e2"/>
			<stop offset="1" stop-color="#4f52ff"/>
		</linearGradient>
		<linearGradient id="g14" x1="1133.3" y1="815.1" x2="1226.7" y2="815.1" gradientUnits="userSpaceOnUse">
			<stop offset="0" stop-color="#ff928e"/>
			<stop offset="1" stop-color="#feb3b1"/>
		</linearGradient>
		<linearGradient id="g15" x1="1273" y1="1264.8" x2="1258.9" y2="1388.1" gradientUnits="userSpaceOnUse">
			<stop offset="0" stop-color="#ff928e"/>
			<stop offset="1" stop-color="#feb3b1"/>
		</linearGradient>
		<linearGradient id="g16" x1="1453.9" y1="1320.3" x2="1188.4" y2="1528.8" gradientUnits="userSpaceOnUse">
			<stop offset="0" stop-color="#53d8ff"/>
			<stop offset="1" stop-color="#3840f7"/>
		</linearGradient>
		<linearGradient id="g17" x1="1333.9" y1="1321.2" x2="1434.7" y2="1321.2" gradientUnits="userSpaceOnUse">
			<stop offset="0" stop-color="#09005d"/>
			<stop offset="1" stop-color="#1a0f91"/>
		</linearGradient>
		<linearGradient id="g18" x1="1392.6" y1="1280.5" x2="1378.9" y2="1400.6" gradientUnits="userSpaceOnUse">
			<stop offset="0" stop-color="#ff928e"/>
			<stop offset="1" stop-color="#feb3b1"/>
		</linearGradient>
		<linearGradient id="g19" x1="1803.7" y1="1274.5" x2="1699.8" y2="1684" gradientUnits="userSpaceOnUse">
			<stop offset="0" stop-color="#4042e2"/>
			<stop offset="1" stop-color="#4f52ff"/>
		</linearGradient>
		<linearGradient id="g20" x1="1648.4" y1="564.6" x2="1182.7" y2="1586.5" gradientUnits="userSpaceOnUse">
			<stop offset="0" stop-color="#fe7062"/>
			<stop offset="1" stop-color="#ff928e"/>
		</linearGradient>
		<linearGradient id="g21" x1="1628.8" y1="302.6" x2="1594.2" y2="523.7" gradientUnits="userSpaceOnUse">
			<stop offset="0" stop-color="#ff928e"/>
			<stop offset="1" stop-color="#feb3b1"/>
		</linearGradient>
		<linearGradient id="g22" x1="1579.6" y1="298.8" x2="1545.5" y2="517.5" gradientUnits="userSpaceOnUse">
			<stop offset="0" stop-color="#ff928e"/>
			<stop offset="1" stop-color="#feb3b1"/>
		</linearGradient>
		<linearGradient id="g23" x1="1327.1" y1="514.8" x2="1272.1" y2="752.7" gradientUnits="userSpaceOnUse">
			<stop offset="0" stop-color="#ff928e"/>
			<stop offset="1" stop-color="#feb3b1"/>
		</linearGradient>
		<linearGradient id="g24" x1="1597.7" y1="383.2" x2="1432.5" y2="493.3" gradientUnits="userSpaceOnUse">
			<stop offset="0" stop-color="#ff928e"/>
			<stop offset="1" stop-color="#feb3b1"/>
		</linearGradient>
		<linearGradient id="g25" x1="1122.6" y1="483.7" x2="1250.3" y2="348.1" gradientUnits="userSpaceOnUse">
			<stop offset="0" stop-color="#09005d"/>
			<stop offset="1" stop-color="#1a0f91"/>
		</linearGradient>
		<linearGradient id="g26" x1="1230" y1="631.3" x2="1225.4" y2="524.2" gradientUnits="userSpaceOnUse">
			<stop offset="0" stop-color="#ff928e"/>
			<stop offset="1" stop-color="#feb3b1"/>
		</linearGradient>
		<linearGradient id="g27" x1="934.2" y1="833.5" x2="19" y2="1000.3" gradientUnits="userSpaceOnUse">
			<stop offset="0" stop-color="#e1473d"/>
			<stop offset="1" stop-color="#e9605a"/>
		</linearGradient>
		<linearGradient id="g28" x1="1361.2" y1="817.1" x2="1244" y2="1025.7" gradientUnits="userSpaceOnUse">
			<stop offset="0" stop-color="#09005d"/>
			<stop offset="1" stop-color="#1a0f91"/>
		</linearGradient>
		<linearGradient id="g29" x1="2195.3" y1="836.2" x2="2301.4" y2="1447.7" gradientUnits="userSpaceOnUse">
			<stop offset="0" stop-color="#4042e2"/>
			<stop offset="1" stop-color="#4f52ff"/>
		</linearGradient>
		<linearGradient id="g30" x1="1851.3" y1="1375.6" x2="1800.4" y2="1322.5" gradientUnits="userSpaceOnUse">
			<stop offset="0" stop-color="#09005d"/>
			<stop offset="1" stop-color="#1a0f91"/>
		</linearGradient>
		<linearGradient id="g31" x1="2011.5" y1="1225.4" x2="1956.7" y2="1431.7" gradientUnits="userSpaceOnUse">
			<stop offset="0" stop-color="#09005d"/>
			<stop offset="1" stop-color="#1a0f91"/>
		</linearGradient>
		<linearGradient id="g32" x1="1803.1" y1="1488.3" x2="1709.9" y2="1420" gradientUnits="userSpaceOnUse">
			<stop offset="0" stop-color="#09005d"/>
			<stop offset="1" stop-color="#1a0f91"/>
		</linearGradient>
		<linearGradient id="g33" x1="2134.5" y1="1210.3" x2="2042.5" y2="1375.7" gradientUnits="userSpaceOnUse">
			<stop offset="0" stop-color="#09005d"/>
			<stop offset="1" stop-color="#1a0f91"/>
		</linearGradient>
		<linearGradient id="g34" x1="2014.1" y1="1159.9" x2="2032.3" y2="1417.6" gradientUnits="userSpaceOnUse">
			<stop offset="0" stop-color="#ff928e"/>
			<stop offset="1" stop-color="#feb3b1"/>
		</linearGradient>
		<linearGradient id="g35" x1="1931.1" y1="1224.5" x2="1823.7" y2="847.7" gradientUnits="userSpaceOnUse">
			<stop offset="0" stop-color="#fe7062"/>
			<stop offset="1" stop-color="#ff928e"/>
		</linearGradient>
		<linearGradient id="g36" x1="2036.3" y1="1099" x2="2034.3" y2="1213.6" gradientUnits="userSpaceOnUse">
			<stop offset="0" stop-color="#ff928e"/>
			<stop offset="1" stop-color="#feb3b1"/>
		</linearGradient>
		<linearGradient id="g37" x1="2106.5" y1="1063" x2="2139.9" y2="1199.1" gradientUnits="userSpaceOnUse">
			<stop offset="0" stop-color="#ff928e"/>
			<stop offset="1" stop-color="#feb3b1"/>
		</linearGradient>
		<linearGradient id="g38" x1="5990.6" y1="-277.2" x2="5865.8" y2="-229.4" gradientUnits="userSpaceOnUse">
			<stop offset="0" stop-color="#ff928e"/>
			<stop offset="1" stop-color="#feb3b1"/>
		</linearGradient>
		<linearGradient id="g39" x1="1983.8" y1="1135.8" x2="2067.7" y2="985.6" gradientUnits="userSpaceOnUse">
			<stop offset="0" stop-color="#09005d"/>
			<stop offset="1" stop-color="#1a0f91"/>
		</linearGradient>
		<linearGradient id="g40" x1="6615.6" y1="-129.1" x2="6471" y2="-73.7" gradientUnits="userSpaceOnUse">
			<stop offset="0" stop-color="#ff928e"/>
			<stop offset="1" stop-color="#feb3b1"/>
		</linearGradient>
		<linearGradient id="g41" x1="1971.8" y1="1313.4" x2="1931.1" y2="1394.4" gradientUnits="userSpaceOnUse">
			<stop offset="0" stop-color="#4042e2"/>
			<stop offset="1" stop-color="#4f52ff"/>
		</linearGradient>
		<linearGradient id="g42" x1="2037.4" y1="1171.6" x2="2045.5" y2="1171.6" gradientUnits="userSpaceOnUse">
			<stop offset="0" stop-color="#e1473d"/>
			<stop offset="1" stop-color="#e9605a"/>
		</linearGradient>
		<linearGradient id="g43" x1="2044.6" y1="875.5" x2="2090.4" y2="1051.5" gradientUnits="userSpaceOnUse">
			<stop offset="0" stop-color="#e1473d"/>
			<stop offset="1" stop-color="#e9605a"/>
		</linearGradient>
		<linearGradient id="g44" x1="2031.9" y1="767.7" x2="2088.3" y2="984.5" gradientUnits="userSpaceOnUse">
			<stop offset="0" stop-color="#e1473d"/>
			<stop offset="1" stop-color="#e9605a"/>
		</linearGradient>
		<linearGradient id="g45" x1="602.3" y1="1297.6" x2="478.6" y2="2070.3" gradientUnits="userSpaceOnUse">
			<stop offset="0" stop-color="#4042e2"/>
			<stop offset="1" stop-color="#4f52ff"/>
		</linearGradient>
		<linearGradient id="g46" x1="398.3" y1="1178.7" x2="786.7" y2="1178.7" gradientUnits="userSpaceOnUse">
			<stop offset="0" stop-color="#dae3fe"/>
			<stop offset="1" stop-color="#e9effd"/>
		</linearGradient>
		<linearGradient id="g47" x1="398.3" y1="1188.1" x2="786.7" y2="1188.1" gradientUnits="userSpaceOnUse">
			<stop offset="0" stop-color="#dae3fe"/>
			<stop offset="1" stop-color="#e9effd"/>
		</linearGradient>
		<linearGradient id="g48" x1="398.3" y1="1197.4" x2="786.7" y2="1197.4" gradientUnits="userSpaceOnUse">
			<stop offset="0" stop-color="#dae3fe"/>
			<stop offset="1" stop-color="#e9effd"/>
		</linearGradient>
		<linearGradient id="g49" x1="398.3" y1="1206.8" x2="786.7" y2="1206.8" gradientUnits="userSpaceOnUse">
			<stop offset="0" stop-color="#dae3fe"/>
			<stop offset="1" stop-color="#e9effd"/>
		</linearGradient>
		<linearGradient id="g50" x1="398.3" y1="1216.1" x2="786.7" y2="1216.1" gradientUnits="userSpaceOnUse">
			<stop offset="0" stop-color="#dae3fe"/>
			<stop offset="1" stop-color="#e9effd"/>
		</linearGradient>
		<linearGradient id="g51" x1="868.7" y1="606.3" x2="753.4" y2="930.6" gradientUnits="userSpaceOnUse">
			<stop offset="0" stop-color="#4042e2"/>
			<stop offset="1" stop-color="#4f52ff"/>
		</linearGradient>
		<linearGradient id="g52" x1="659.8" y1="1311" x2="697.1" y2="1311" gradientUnits="userSpaceOnUse">
			<stop offset="0" stop-color="#4042e2"/>
			<stop offset="1" stop-color="#4f52ff"/>
		</linearGradient>
		<linearGradient id="g53" x1="780.4" y1="1311" x2="817.7" y2="1311" gradientUnits="userSpaceOnUse">
			<stop offset="0" stop-color="#4042e2"/>
			<stop offset="1" stop-color="#4f52ff"/>
		</linearGradient>
		<linearGradient id="g54" x1="658.2" y1="1284" x2="819.1" y2="1284" gradientUnits="userSpaceOnUse">
			<stop offset="0" stop-color="#4042e2"/>
			<stop offset="1" stop-color="#4f52ff"/>
		</linearGradient>
		<linearGradient id="g55" x1="912.5" y1="1394.6" x2="943.9" y2="1007" gradientUnits="userSpaceOnUse">
			<stop offset="0" stop-color="#4042e2"/>
			<stop offset="1" stop-color="#4f52ff"/>
		</linearGradient>
		<linearGradient id="g56" x1="940.1" y1="1265.5" x2="909.4" y2="1477.7" gradientUnits="userSpaceOnUse">
			<stop offset="0" stop-color="#4042e2"/>
			<stop offset="1" stop-color="#4f52ff"/>
		</linearGradient>
		<linearGradient id="g57" x1="866.1" y1="1442.2" x2="890.2" y2="1442.2" gradientUnits="userSpaceOnUse">
			<stop offset="0" stop-color="#ff928e"/>
			<stop offset="1" stop-color="#feb3b1"/>
		</linearGradient>
		<linearGradient id="g58" x1="1016.7" y1="1418" x2="1042.9" y2="1094.4" gradientUnits="userSpaceOnUse">
			<stop offset="0" stop-color="#4042e2"/>
			<stop offset="1" stop-color="#4f52ff"/>
		</linearGradient>
		<linearGradient id="g59" x1="1079" y1="1324.2" x2="1053.8" y2="1498.6" gradientUnits="userSpaceOnUse">
			<stop offset="0" stop-color="#4042e2"/>
			<stop offset="1" stop-color="#4f52ff"/>
		</linearGradient>
		<linearGradient id="g60" x1="1084.8" y1="1205.2" x2="826.3" y2="1609.7" gradientUnits="userSpaceOnUse">
			<stop offset="0" stop-color="#09005d"/>
			<stop offset="1" stop-color="#1a0f91"/>
		</linearGradient>
		<linearGradient id="g61" x1="980.4" y1="1438.3" x2="1009.2" y2="1438.3" gradientUnits="userSpaceOnUse">
			<stop offset="0" stop-color="#ff928e"/>
			<stop offset="1" stop-color="#feb3b1"/>
		</linearGradient>
		<linearGradient id="g62" x1="1617.5" y1="678.3" x2="1306" y2="1019.8" gradientUnits="userSpaceOnUse">
			<stop offset="0" stop-color="#09005d"/>
			<stop offset="1" stop-color="#1a0f91"/>
		</linearGradient>
		<linearGradient id="g63" x1="914.3" y1="984.1" x2="831.1" y2="1099.9" gradientUnits="userSpaceOnUse">
			<stop offset="0" stop-color="#ff928e"/>
			<stop offset="1" stop-color="#feb3b1"/>
		</linearGradient>
		<linearGradient id="g64" x1="887.2" y1="1013.8" x2="1112" y2="1382.9" gradientUnits="userSpaceOnUse">
			<stop offset="0" stop-color="#fe7062"/>
			<stop offset="1" stop-color="#ff928e"/>
		</linearGradient>
		<linearGradient id="g65" x1="1140.7" y1="650.4" x2="972.9" y2="934.6" gradientUnits="userSpaceOnUse">
			<stop offset="0" stop-color="#e1473d"/>
			<stop offset="1" stop-color="#e9605a"/>
		</linearGradient>
		<linearGradient id="g66" x1="941.7" y1="1180" x2="1008.2" y2="1180" gradientUnits="userSpaceOnUse">
			<stop offset="0" stop-color="#ff928e"/>
			<stop offset="1" stop-color="#feb3b1"/>
		</linearGradient>
		<linearGradient id="g67" x1="-546.8" y1="-883.3" x2="-456.5" y2="-771.4" gradientUnits="userSpaceOnUse">
			<stop offset="0" stop-color="#ff928e"/>
			<stop offset="1" stop-color="#feb3b1"/>
		</linearGradient>
		<linearGradient id="g68" x1="823" y1="868.7" x2="982.1" y2="1026" gradientUnits="userSpaceOnUse">
			<stop offset="0" stop-color="#09005d"/>
			<stop offset="1" stop-color="#1a0f91"/>
		</linearGradient>
		<linearGradient id="g69" x1="-346.9" y1="-570.6" x2="-270.8" y2="-476.2" gradientUnits="userSpaceOnUse">
			<stop offset="0" stop-color="#ff928e"/>
			<stop offset="1" stop-color="#feb3b1"/>
		</linearGradient>
		<linearGradient id="g70" x1="990.2" y1="737" x2="988.2" y2="916.6" gradientUnits="userSpaceOnUse">
			<stop offset="0" stop-color="#09005d"/>
			<stop offset="1" stop-color="#1a0f91"/>
		</linearGradient>
		<linearGradient id="g71" x1="1211" y1="743.3" x2="1209" y2="921.5" gradientUnits="userSpaceOnUse">
			<stop offset="0" stop-color="#09005d"/>
			<stop offset="1" stop-color="#1a0f91"/>
		</linearGradient>
	</defs>
	<style>
		.s0 { fill: url(#g1) } 
		.s1 { fill: #91b3fa } 
		.s2 { fill: #bdd0fb } 
		.s3 { fill: url(#g2) } 
		.s4 { fill: #7d97f4 } 
		.s5 { fill: url(#g3) } 
		.s6 { fill: url(#g4) } 
		.s7 { fill: url(#g5) } 
		.s8 { fill: url(#g6) } 
		.s9 { opacity: .7;fill: #ffffff } 
		.s10 { fill: #ffffff } 
		.s11 { fill: url(#g7) } 
		.s12 { fill: url(#g8) } 
		.s13 { fill: url(#g9) } 
		.s14 { fill: url(#g10) } 
		.s15 { fill: url(#g11) } 
		.s16 { fill: url(#g12) } 
		.s17 { fill: url(#g13) } 
		.s18 { fill: url(#g14) } 
		.s19 { fill: url(#g15) } 
		.s20 { fill: url(#g16) } 
		.s21 { fill: url(#g17) } 
		.s22 { fill: url(#g18) } 
		.s23 { fill: url(#g19) } 
		.s24 { fill: url(#g20) } 
		.s25 { fill: url(#g21) } 
		.s26 { fill: url(#g22) } 
		.s27 { fill: url(#g23) } 
		.s28 { fill: url(#g24) } 
		.s29 { fill: url(#g25) } 
		.s30 { fill: url(#g26) } 
		.s31 { fill: url(#g27) } 
		.s32 { fill: url(#g28) } 
		.s33 { fill: url(#g29) } 
		.s34 { fill: url(#g30) } 
		.s35 { fill: url(#g31) } 
		.s36 { fill: url(#g32) } 
		.s37 { fill: url(#g33) } 
		.s38 { fill: url(#g34) } 
		.s39 { fill: url(#g35) } 
		.s40 { fill: url(#g36) } 
		.s41 { fill: url(#g37) } 
		.s42 { fill: url(#g38) } 
		.s43 { fill: url(#g39) } 
		.s44 { fill: url(#g40) } 
		.s45 { fill: url(#g41) } 
		.s46 { fill: url(#g42) } 
		.s47 { fill: url(#g43) } 
		.s48 { fill: url(#g44) } 
		.s49 { fill: #fcfcfc } 
		.s50 { fill: url(#g45) } 
		.s51 { fill: url(#g46) } 
		.s52 { fill: url(#g47) } 
		.s53 { fill: url(#g48) } 
		.s54 { fill: url(#g49) } 
		.s55 { fill: url(#g50) } 
		.s56 { fill: url(#g51) } 
		.s57 { fill: url(#g52) } 
		.s58 { fill: url(#g53) } 
		.s59 { fill: url(#g54) } 
		.s60 { fill: url(#g55) } 
		.s61 { fill: url(#g56) } 
		.s62 { fill: url(#g57) } 
		.s63 { fill: url(#g58) } 
		.s64 { fill: url(#g59) } 
		.s65 { fill: url(#g60) } 
		.s66 { fill: url(#g61) } 
		.s67 { fill: url(#g62) } 
		.s68 { fill: url(#g63) } 
		.s69 { fill: url(#g64) } 
		.s70 { fill: url(#g65) } 
		.s71 { fill: url(#g66) } 
		.s72 { fill: url(#g67) } 
		.s73 { fill: url(#g68) } 
		.s74 { fill: url(#g69) } 
		.s75 { fill: url(#g70) } 
		.s76 { fill: url(#g71) } 
	</style>
	<g id="_Artboards_">
	</g>
	<g id="Background">
	</g>
	<g id="Illustration">
		<g id="&lt;Group&gt;">
			<path id="&lt;Path&gt;" class="s0" d="m504.6 217.3c-165.3 136.7 55.7 312.1-58.8 388.7-114.5 76.6-588.8 225.9-111.2 522.2 477.6 296.3 501.8 440.2 842.7 252.6 341-187.6 305.5-168.9 586-42 280.6 126.8 573.9-70.5 474.2-304.7-99.7-234.2-163.2-231.3-49.4-380.9 113.9-149.5-64.2-563.4-456.1-243.5-391.9 319.8-637.2 81-680.3-38.6-43-119.6-285.8-369.8-547.1-153.8z"/>
			<g id="&lt;Group&gt;">
				<path id="&lt;Path&gt;" class="s1" d="m1032.7 1463.9c0 0-39.4-313-230.1-371.2-182.8-55.8-211.3 34.3-312.1-70.2-4.6-4.8-12.7-1.2-12.1 5.4 5.7 70.9 40.4 307.7 247.7 312 239.5 5 306.6 124 306.6 124z"/>
				<path id="&lt;Path&gt;" class="s2" d="m1020.3 1416.6c-0.5 0-1-0.3-1.3-0.8l-3.3-6.3c-42.8-80.2-91.2-171-267.4-198.4-94.2-14.6-151.1-46.6-182.2-70.8-33.8-26.4-45.2-49-45.6-50-0.4-0.7-0.1-1.6 0.6-2 0.8-0.4 1.7 0 2.1 0.7 0.1 0.2 11.5 23.1 44.9 49 30.9 24 87.2 55.7 180.6 70.2 79.2 12.2 139.9 38.6 185.7 80.6 39.9 36.7 63.3 80.6 83.9 119.3l3.4 6.3c0.3 0.7 0.1 1.6-0.7 2q-0.3 0.2-0.7 0.2z"/>
			</g>
			<g id="&lt;Group&gt;">
				<path id="&lt;Path&gt;" class="s2" d="m1051.6 1475.6l-21.2-7.1c-21.9-148.8-106.3-412.7-268.6-454.8-110-28.6-158.8-76.1-176.8-196.2-11.9-80.1-49.8-129.2-73.7-152.9-4.9-4.9-0.3-13 6.3-11.3 67 16.9 243.7 71.5 345.9 196.6 128 156.6 188.1 625.7 188.1 625.7z"/>
				<path id="&lt;Path&gt;" class="s3" d="m1040.6 1425.5c-0.7 0-1.4-0.5-1.5-1.2-0.1-0.7-10.4-64.9-35.8-152.8-23.6-81.1-65.2-199.6-130-303.3-64.7-103.7-127.2-161.4-168.3-191.6-44.3-32.6-73.6-40.9-73.9-41-0.8-0.2-1.3-1-1.1-1.8 0.2-0.8 1-1.3 1.9-1.1 0.2 0.1 30.1 8.5 74.9 41.5 41.2 30.3 104 88.3 169.1 192.4 65 104.1 106.7 222.8 130.2 304.1 25.6 88.1 35.9 152.4 36 153.1 0.1 0.8-0.5 1.6-1.3 1.7q-0.1 0-0.2 0z"/>
			</g>
			<g id="&lt;Group&gt;">
				<path id="&lt;Path&gt;" class="s1" d="m1069.8 1403.9c-1.1 4.5-7.5 4.2-8.2-0.4-12.3-80.4-71-431.6-183.4-591.1-125.9-178.7-317.7-339.5-23.5-565.9 3.6-2.8 8.8 0.2 8.2 4.7-3.3 25.8-4.4 86.5 45.6 146 65.7 78.2 108.6 231.1 43.7 414.8 0 0 149.6 460.4 117.6 591.9z"/>
				<path id="&lt;Path&gt;" class="s2" d="m826.3 314.6c0 0-1.6 1.4-4.3 4.3-2.8 2.9-6.6 7.3-11.1 13.4-4.4 6-9.4 13.7-14.3 22.9-2.4 4.6-4.8 9.6-7.2 14.9-2.3 5.4-4.5 11.1-6.6 17.2-4 12.2-7.4 25.7-9.7 40.2-1.1 7.3-1.8 14.8-2.4 22.5-0.5 7.7-0.7 15.6-0.6 23.7 0.3 16 1.8 32.5 4.5 49.2 2.8 16.6 6.8 33.3 11.6 49.7 4.9 16.4 10.7 32.6 17.1 48.1 6.4 15.6 13.4 30.7 20.7 45 7.2 14.4 14.8 27.9 22.2 40.7 3.8 6.3 7.3 12.5 11.1 18.3q2.7 4.4 5.4 8.7 2.7 4.2 5.3 8.2 2.7 4.1 5.2 7.9 2.6 3.8 5.1 7.5 2.4 3.6 4.8 7 2.4 3.4 4.6 6.7c6 8.5 11.4 15.8 15.8 21.9 4.5 6 8.1 10.7 10.5 13.9 2.4 3.2 3.7 4.9 3.7 4.9 0.5 0.7 0.4 1.6-0.2 2.1-0.7 0.5-1.6 0.4-2.1-0.3 0 0-1.3-1.7-3.8-4.9-2.4-3.2-6-7.9-10.4-14-4.4-6.1-9.8-13.4-15.8-22q-2.2-3.3-4.6-6.7-2.4-3.4-4.8-7.1-2.5-3.6-5.1-7.5-2.5-3.9-5.1-7.9-2.6-4.1-5.3-8.3-2.7-4.3-5.4-8.7c-3.8-5.9-7.3-12.1-11.1-18.5-7.4-12.8-14.9-26.4-22.1-40.8-7.2-14.4-14.2-29.6-20.6-45.2-6.3-15.7-12.1-31.9-16.9-48.5-4.8-16.5-8.7-33.2-11.5-49.9-2.6-16.8-4.2-33.4-4.4-49.5 0-8.1 0.2-16 0.7-23.8 0.6-7.7 1.4-15.3 2.6-22.6 2.3-14.6 5.7-28.2 9.9-40.4 2.1-6.1 4.3-11.8 6.7-17.2 2.4-5.4 4.8-10.4 7.3-15.1 5-9.2 10-16.9 14.5-22.9 4.4-6.1 8.3-10.5 11.1-13.4 2.8-3 4.4-4.4 4.4-4.4 0.2-0.2 0.5-0.1 0.7 0 0.1 0.2 0.1 0.5-0.1 0.7z"/>
			</g>
			<path id="&lt;Path&gt;" class="s4" d="m464.1 1461.4c0 0-279-153.6-259-382 20-228.4 263.7-281 535.6-103.3 273 178.4 797.3 278.2 1049.1 68.4 251.8-209.8 252.1-453.4 252.1-453.4l208 188.1c0 0-62.4 560.8-830.5 528.8 0 0-193.2-1.5-410.2-128.5-196.7-115.2-351-270.1-473.6-228.3-151.1 51.6-132.4 304.4 122.6 429.6z"/>
			<g id="&lt;Group&gt;">
				<g id="&lt;Group&gt;">
					<path id="&lt;Path&gt;" class="s5" d="m947.9 280.1c-5 203.1-21.3 903.7-13.5 1152 0.8 26.3 21.9 47.4 48.2 48.2 130.1 4.3 504.3 15.1 717.1 6.2 44.3-1.9 79.5-37.8 80.4-82.1 4.5-213.2 14.2-812.9-9-1087.6-2.8-32.9-28.6-59.1-61.4-62.4-141.7-14.1-518-48.8-701.8-36.8-33.2 2.1-59.2 29.3-60 62.5z"/>
					<path id="&lt;Path&gt;" class="s6" d="m1000.8 343.2c-7.1 166.3-29.5 719.7-22.4 924.4 1 29.9 24.6 54.1 54.5 55.8 123 7.2 438.5 23.1 618.9 8.6 32.5-2.6 58-28.8 59.8-61.4 9.1-169.7 35.4-685 28.5-887.3-1-32.3-26-58.7-58.2-61.6-133.1-11.9-474.9-40.3-628.2-32-28.8 1.6-51.7 24.7-52.9 53.5z"/>
					<path id="&lt;Path&gt;" class="s7" d="m1269.4 253c0 6.3 4.9 11.4 11.1 11.7 30.7 1.6 117.3 6.2 156 8.4 7.6 0.5 13.6-6.4 12.1-13.9l-0.2-1.2c-1-5.2-5.2-9-10.4-9.5-26.2-2.4-105.1-9-157.4-7.2-6.2 0.3-11.2 5.5-11.2 11.7z"/>
				</g>
				<path id="&lt;Path&gt;" class="s8" d="m1026.4 383.3c7.8 101.3 28.6 427.7 34.5 520.9 0.9 14.1 12.5 25.2 26.7 25.3l558 6.6c14.5 0.2 26.6-11.1 27.4-25.6l26.7-505c0.8-15.1-10.9-27.9-26-28.5l-619.4-22.8c-16.1-0.6-29.2 12.9-27.9 29.1z"/>
				<path id="&lt;Path&gt;" class="s4" d="m1418.4 1164.4c0 39.5-32 71.6-71.5 71.6-39.6 0-78.5-30-78.5-69.5 0-39.6 38.9-73.7 78.5-73.7 39.5 0 71.5 32.1 71.5 71.6z"/>
				<path id="&lt;Path&gt;" class="s9" d="m1333.9 1208.4c-4.9 0-8.9-3.7-9.4-8.5l-6.5-60.3c-0.6-5.9 4.3-10.9 10.2-10.4l6.4 0.5c5 0.3 8.8 4.5 8.8 9.4v59.8c0 5.3-4.3 9.5-9.5 9.5z"/>
				<path id="&lt;Path&gt;" class="s9" d="m1354.3 1138.2v60.8c0 5.2 4.2 9.4 9.4 9.5h1.6c5.1 0.1 9.4-4 9.6-9.2l2.2-60.7c0.2-5.4-4.2-9.9-9.5-9.9h-3.8c-5.2 0-9.5 4.3-9.5 9.5z"/>
				<g id="&lt;Group&gt;">
					<path id="&lt;Path&gt;" class="s4" d="m1569.2 1164.4c0 30.1-24.4 54.5-54.6 54.5-30.1 0-59.8-22.8-59.8-52.9 0-30.1 29.7-56.1 59.8-56.1 30.2 0 54.6 24.4 54.6 54.5z"/>
					<path id="&lt;Path&gt;" class="s9" d="m1492 1140.9v48.6c0 4.2 3.4 7.5 7.5 7.6h1.3c4.1 0 7.5-3.2 7.6-7.3l1.8-48.6c0.2-4.3-3.3-7.9-7.6-7.9h-3c-4.2 0-7.6 3.4-7.6 7.6z"/>
					<path id="&lt;Path&gt;" class="s9" d="m1521.3 1139.3l-2.6 50.8c-0.2 3.8 4.4 5.8 7 3.1l24.6-25.3c1.4-1.5 1.5-3.9 0.1-5.5l-22-25.6c-2.4-2.8-7-1.2-7.1 2.5z"/>
				</g>
				<g id="&lt;Group&gt;">
					<path id="&lt;Path&gt;" class="s4" d="m1126.8 1164.4c0 30.1 24.5 54.5 54.6 54.5 30.1 0 59.8-22.8 59.8-52.9 0-30.1-29.7-56.1-59.8-56.1-30.1 0-54.6 24.4-54.6 54.5z"/>
					<path id="&lt;Path&gt;" class="s9" d="m1204 1140.9v48.6c0 4.2-3.4 7.5-7.5 7.6h-1.3c-4.1 0-7.5-3.2-7.6-7.3l-1.8-48.6c-0.1-4.3 3.3-7.9 7.6-7.9h3c4.2 0 7.6 3.4 7.6 7.6z"/>
					<path id="&lt;Path&gt;" class="s9" d="m1174.8 1139.3l2.5 50.8c0.2 3.8-4.3 5.8-7 3.1l-24.6-25.3c-1.4-1.5-1.5-3.9-0.1-5.5l22-25.6c2.4-2.8 7-1.2 7.2 2.5z"/>
				</g>
				<path id="&lt;Path&gt;" class="s9" d="m1023.6 1024l0.6 6.3c0.6 5.8 5.5 10.2 11.3 10.2h612c6.3 0 11.3-5.1 11.3-11.3 0-6.3-5-11.3-11.2-11.4l-612.6-6.3c-6.7-0.1-12.1 5.8-11.4 12.5z"/>
				<path id="&lt;Path&gt;" class="s4" d="m1415.3 1033.2c-0.7-5.8-1.6-11.8-2.5-17.8l-377.8-3.9c-6.7-0.1-12.1 5.8-11.4 12.5l0.6 6.3c0.6 5.8 5.5 10.2 11.3 10.2h380.8c-0.4-2.6-0.7-5-1-7.3z"/>
				<path id="&lt;Path&gt;" class="s10" d="m1438.8 1027.4c0 11.3-9.2 20.4-20.5 20.4-11.3 0-20.5-9.1-20.5-20.4 0-11.3 9.2-20.5 20.5-20.5 11.3 0 20.5 9.2 20.5 20.5z"/>
				<g id="&lt;Group&gt;">
					<path id="&lt;Path&gt;" class="s1" d="m2222.3 943.1l-526.5-46.7c-21.3-1.9-37.7-19.8-37.8-41.2l-2-354.9c-0.1-24.2 20.3-43.4 44.4-41.7l560.6 39c23.2 1.6 40.5 22 38.5 45.1l-32.2 362.7c-2 22.8-22.2 39.7-45 37.7z"/>
					<path id="&lt;Path&gt;" class="s11" d="m1686.9 534.6l-3.5 306.5c-0.1 13.3 9.9 24.5 23.2 25.8l504.7 50.2c14.3 1.4 26.9-9.1 28.2-23.3l29.1-327.7c1.2-14.5-9.7-27.1-24.2-27.9l-530.4-28.9c-14.6-0.8-26.9 10.7-27.1 25.3z"/>
					<path id="&lt;Path&gt;" class="s2" d="m1926.2 802.4l285.7 16.8c2.9 0.1 5.1 2.7 4.9 5.6l-0.5 4.6c-0.2 2.8-2.7 4.9-5.5 4.7l-285.3-21.3c-2.9-0.2-5-2.8-4.8-5.7 0.3-2.8 2.7-4.9 5.5-4.7z"/>
					<path id="&lt;Path&gt;" class="s2" d="m1918.6 831l-0.2 2c-0.2 2.8 1.9 5.4 4.7 5.6l285 25.3c2.8 0.2 5.3-1.9 5.6-4.7l0.2-2c0.2-2.8-1.9-5.4-4.7-5.6l-285-25.3c-2.8-0.3-5.4 1.8-5.6 4.7z"/>
					<path id="&lt;Path&gt;" class="s2" d="m2002.8 864.2l-0.1 0.9c-0.2 2.8 1.9 5.4 4.7 5.6l198.5 17.6c2.9 0.3 5.4-1.8 5.6-4.7l0.4-4c0.2-2.9-1.9-5.5-4.8-5.7l-198.7-14.4c-2.9-0.2-5.3 1.9-5.6 4.7z"/>
				</g>
				<g id="&lt;Group&gt;">
					<path id="&lt;Path&gt;" class="s1" d="m2178.1 816.3l-621.2-12.7c-25.2-0.5-45.9-20.1-47.7-45.2l-30.7-416.2c-2.1-28.3 20.3-52.5 48.7-52.4l660.7 0.8c27.3 0.1 49.3 22.5 48.8 49.9l-8.8 427.9c-0.5 27-22.8 48.4-49.8 47.9z"/>
					<path id="&lt;Path&gt;" class="s2" d="m1517.4 380l20.5 359.8c0.9 15.6 13.5 28 29.2 28.5l596.1 18.4c16.8 0.5 30.8-12.8 31.2-29.6l7.8-386.7c0.4-17.1-13.5-31.1-30.6-30.9l-624.5 8.6c-17.1 0.2-30.7 14.8-29.7 31.9z"/>
					<path id="&lt;Path&gt;" class="s1" d="m1819.6 675l336.4-3.3c3.5 0 6.3 2.8 6.2 6.3l-0.1 5.4c-0.1 3.3-2.8 6-6.2 6l-336.3-2.2c-3.4 0-6.2-2.8-6.1-6.3 0.1-3.3 2.8-5.9 6.1-5.9z"/>
					<path id="&lt;Path&gt;" class="s1" d="m1812.9 709.1v2.3c-0.1 3.4 2.6 6.2 6 6.3l336.2 6.8c3.4 0.1 6.2-2.6 6.3-6v-2.3c0.1-3.4-2.6-6.1-6-6.2l-336.2-6.9c-3.4 0-6.2 2.7-6.3 6z"/>
					<path id="&lt;Path&gt;" class="s1" d="m1914.4 741.4v1c-0.1 3.3 2.6 6.1 5.9 6.2l234.2 4.8c3.4 0 6.2-2.6 6.3-6l0.1-4.8c0-3.4-2.7-6.2-6.1-6.2l-234.3-1c-3.3-0.1-6.1 2.6-6.1 6z"/>
				</g>
				<g id="&lt;Group&gt;">
					<path id="&lt;Path&gt;" class="s4" d="m2086.4 713.3h-689.2c-27.9 0-51.3-21.2-53.9-49.1l-43.5-460.8c-2.9-31.4 21.4-58.7 52.9-59.3l732.7-13.9c30.3-0.6 55.2 23.8 55.2 54.1v474.9c0 29.9-24.2 54.1-54.2 54.1z"/>
					<path id="&lt;Path&gt;" class="s12" d="m1343.9 244.5l30.8 398.5c1.3 17.3 15.7 30.7 33 30.9l661.6 6.9c18.6 0.2 33.8-14.9 33.8-33.5v-429c0-19-15.7-34.1-34.6-33.5l-692.3 23.6c-19.1 0.6-33.8 17-32.3 36.1z"/>
					<path id="&lt;Path&gt;" class="s4" d="m1697.1 240.8l373-11.2c3.8-0.1 7 3 7 6.8v6c0 3.7-3 6.8-6.7 6.8l-373 5.2c-3.8 0-6.9-3-6.9-6.8 0-3.7 2.9-6.7 6.6-6.8z"/>
					<path id="&lt;Path&gt;" class="s4" d="m1690.5 278.9v2.5c0 3.8 3 6.8 6.8 6.8h373c3.7 0 6.8-3 6.8-6.8v-2.5c0-3.8-3.1-6.8-6.8-6.8h-373c-3.8 0-6.8 3-6.8 6.8z"/>
					<path id="&lt;Path&gt;" class="s4" d="m1803.7 312.3v1.1c0 3.8 3 6.8 6.8 6.8h259.8c3.7 0 6.8-3 6.8-6.8v-5.3c0-3.7-3.1-6.8-6.9-6.7l-259.8 4.1c-3.7 0.1-6.7 3.1-6.7 6.8z"/>
					<path id="&lt;Path&gt;" class="s4" d="m1978.2 515.6q-0.5 0-1-0.3l-112.8-91.7-111.3 81.6c-0.6 0.4-1.5 0.3-2-0.3l-154.5-185.3c-13.1 11.4-131.4 115.2-146.8 128.6-0.6 0.5-1.5 0.5-2.1-0.1-0.5-0.7-0.5-1.6 0.2-2.2 16.1-14.1 146.6-128.5 147.9-129.6 0.3-0.3 0.7-0.4 1.1-0.4 0.4 0.1 0.7 0.2 1 0.6l154.6 185.4 111.1-81.4c0.5-0.4 1.3-0.3 1.8 0.1l112.8 91.6 60.7-53.1c0.7-0.6 1.6-0.5 2.2 0.1 0.5 0.6 0.4 1.6-0.2 2.1l-61.7 54c-0.3 0.2-0.7 0.3-1 0.3z"/>
					<g id="&lt;Group&gt;">
						<path id="&lt;Compound Path&gt;" class="s4" d="m1599.1 628.1c-0.6 0-1-0.4-1-1v-3c0-0.5 0.4-1 1-1 0.5 0 1 0.5 1 1v3c0 0.6-0.5 1-1 1zm0-10c-0.6 0-1-0.4-1-1v-3c0-0.5 0.4-1 1-1 0.5 0 1 0.5 1 1v3c0 0.6-0.5 1-1 1zm0-10c-0.6 0-1-0.4-1-1v-3c0-0.5 0.4-1 1-1 0.5 0 1 0.5 1 1v3c0 0.6-0.5 1-1 1zm0-10c-0.6 0-1-0.4-1-1v-3c0-0.5 0.4-1 1-1 0.5 0 1 0.5 1 1v3c0 0.6-0.5 1-1 1zm0-10c-0.6 0-1-0.4-1-1v-3c0-0.5 0.4-1 1-1 0.5 0 1 0.5 1 1v3c0 0.6-0.5 1-1 1zm0-10c-0.6 0-1-0.4-1-1v-3c0-0.5 0.4-1 1-1 0.5 0 1 0.5 1 1v3c0 0.6-0.5 1-1 1zm0-10c-0.6 0-1-0.4-1-1v-3c0-0.5 0.4-1 1-1 0.5 0 1 0.5 1 1v3c0 0.6-0.5 1-1 1zm0-10c-0.6 0-1-0.4-1-1v-3c0-0.5 0.4-1 1-1 0.5 0 1 0.5 1 1v3c0 0.6-0.5 1-1 1zm0-10c-0.6 0-1-0.4-1-1v-3c0-0.5 0.4-1 1-1 0.5 0 1 0.5 1 1v3c0 0.6-0.5 1-1 1zm0-10c-0.6 0-1-0.4-1-1v-3c0-0.5 0.4-1 1-1 0.5 0 1 0.5 1 1v3c0 0.6-0.5 1-1 1zm0-10c-0.6 0-1-0.4-1-1v-3c0-0.5 0.4-1 1-1 0.5 0 1 0.5 1 1v3c0 0.6-0.5 1-1 1zm0-10c-0.6 0-1-0.4-1-1v-3c0-0.5 0.4-1 1-1 0.5 0 1 0.5 1 1v3c0 0.6-0.5 1-1 1zm0-10c-0.6 0-1-0.4-1-1v-3c0-0.5 0.4-1 1-1 0.5 0 1 0.5 1 1v3c0 0.6-0.5 1-1 1zm0-10c-0.6 0-1-0.4-1-1v-3c0-0.5 0.4-1 1-1 0.5 0 1 0.5 1 1v3c0 0.6-0.5 1-1 1zm0-10c-0.6 0-1-0.4-1-1v-3c0-0.5 0.4-1 1-1 0.5 0 1 0.5 1 1v3c0 0.6-0.5 1-1 1zm0-10c-0.6 0-1-0.4-1-1v-3c0-0.5 0.4-1 1-1 0.5 0 1 0.5 1 1v3c0 0.6-0.5 1-1 1zm0-10c-0.6 0-1-0.4-1-1v-3c0-0.5 0.4-1 1-1 0.5 0 1 0.5 1 1v3c0 0.6-0.5 1-1 1zm0-10c-0.6 0-1-0.4-1-1v-3c0-0.5 0.4-1 1-1 0.5 0 1 0.5 1 1v3c0 0.6-0.5 1-1 1zm0-10c-0.6 0-1-0.4-1-1v-3c0-0.5 0.4-1 1-1 0.5 0 1 0.5 1 1v3c0 0.6-0.5 1-1 1zm0-10c-0.6 0-1-0.4-1-1v-3c0-0.5 0.4-1 1-1 0.5 0 1 0.5 1 1v3c0 0.6-0.5 1-1 1zm0-10c-0.6 0-1-0.4-1-1v-3c0-0.5 0.4-1 1-1 0.5 0 1 0.5 1 1v3c0 0.6-0.5 1-1 1zm0-10c-0.6 0-1-0.4-1-1v-3c0-0.5 0.4-1 1-1 0.5 0 1 0.5 1 1v3c0 0.6-0.5 1-1 1zm0-10c-0.6 0-1-0.4-1-1v-3c0-0.5 0.4-1 1-1 0.5 0 1 0.5 1 1v3c0 0.6-0.5 1-1 1zm0-10c-0.6 0-1-0.4-1-1v-3c0-0.5 0.4-1 1-1 0.5 0 1 0.5 1 1v3c0 0.6-0.5 1-1 1zm0-10c-0.6 0-1-0.4-1-1v-3c0-0.5 0.4-1 1-1 0.5 0 1 0.5 1 1v3c0 0.6-0.5 1-1 1zm0-10c-0.6 0-1-0.4-1-1v-3c0-0.5 0.4-1 1-1 0.5 0 1 0.5 1 1v3c0 0.6-0.5 1-1 1zm0-10c-0.6 0-1-0.4-1-1v-3c0-0.5 0.4-1 1-1 0.5 0 1 0.5 1 1v3c0 0.6-0.5 1-1 1zm0-10c-0.6 0-1-0.4-1-1v-3c0-0.5 0.4-1 1-1 0.5 0 1 0.5 1 1v3c0 0.6-0.5 1-1 1z"/>
					</g>
					<g id="&lt;Group&gt;">
						<path id="&lt;Compound Path&gt;" class="s4" d="m1752.2 618.1c-0.5 0-1-0.4-1-1v-3c0-0.5 0.5-1 1-1 0.6 0 1 0.5 1 1v3c0 0.6-0.4 1-1 1zm0-10c-0.5 0-1-0.4-1-1v-3c0-0.5 0.5-1 1-1 0.6 0 1 0.5 1 1v3c0 0.6-0.4 1-1 1zm0-10c-0.5 0-1-0.4-1-1v-3c0-0.5 0.5-1 1-1 0.6 0 1 0.5 1 1v3c0 0.6-0.4 1-1 1zm0-10c-0.5 0-1-0.4-1-1v-3c0-0.5 0.5-1 1-1 0.6 0 1 0.5 1 1v3c0 0.6-0.4 1-1 1zm0-10c-0.5 0-1-0.4-1-1v-3c0-0.5 0.5-1 1-1 0.6 0 1 0.5 1 1v3c0 0.6-0.4 1-1 1zm0-10c-0.5 0-1-0.4-1-1v-3c0-0.5 0.5-1 1-1 0.6 0 1 0.5 1 1v3c0 0.6-0.4 1-1 1zm0-10c-0.5 0-1-0.4-1-1v-3c0-0.5 0.5-1 1-1 0.6 0 1 0.5 1 1v3c0 0.6-0.4 1-1 1zm0-10c-0.5 0-1-0.4-1-1v-3c0-0.5 0.5-1 1-1 0.6 0 1 0.5 1 1v3c0 0.6-0.4 1-1 1zm0-10c-0.5 0-1-0.4-1-1v-3c0-0.5 0.5-1 1-1 0.6 0 1 0.5 1 1v3c0 0.6-0.4 1-1 1zm0-10c-0.5 0-1-0.4-1-1v-3c0-0.5 0.5-1 1-1 0.6 0 1 0.5 1 1v3c0 0.6-0.4 1-1 1zm0-10c-0.5 0-1-0.4-1-1v-3c0-0.5 0.5-1 1-1 0.6 0 1 0.5 1 1v3c0 0.6-0.4 1-1 1z"/>
					</g>
					<g id="&lt;Group&gt;">
						<path id="&lt;Compound Path&gt;" class="s4" d="m1868.7 623.7c-0.6 0-1-0.4-1-1l-0.1-3c0-0.5 0.4-1 0.9-1 0.6 0 1.1 0.4 1.1 1l0.1 3c0 0.5-0.4 1-1 1q0 0 0 0zm-0.3-10c-0.6 0-1-0.4-1-1l-0.1-3c-0.1-0.5 0.4-1 0.9-1 0.6 0 1 0.4 1.1 1l0.1 3c0 0.5-0.5 1-1 1q0 0 0 0zm-0.4-10c-0.5 0-0.9-0.4-1-1v-3c-0.1-0.5 0.4-1 0.9-1 0.6 0 1 0.4 1.1 1v3c0.1 0.5-0.4 1-0.9 1q0 0-0.1 0zm-0.3-10c-0.5 0-0.9-0.4-1-1l-0.1-3c0-0.5 0.5-1 1-1 0.6 0 1 0.4 1 1l0.1 3c0.1 0.5-0.4 1-0.9 1q0 0-0.1 0zm-0.3-10c-0.5 0-1-0.4-1-1l-0.1-3c0-0.5 0.5-1 1-1 0.6 0 1 0.4 1 1l0.1 3c0 0.5-0.4 1-0.9 1q-0.1 0-0.1 0zm-0.3-10c-0.5 0-1-0.4-1-1l-0.1-2.9c0-0.6 0.4-1.1 1-1.1 0.6 0 1 0.4 1 1l0.1 3c0 0.5-0.4 1-1 1q0 0 0 0zm-0.3-10c-0.5 0-1-0.4-1-0.9l-0.1-3c0-0.6 0.4-1.1 1-1.1 0.5 0 1 0.4 1 1l0.1 3c0 0.5-0.4 1-1 1q0 0 0 0zm-0.3-10c-0.5 0-1-0.4-1-0.9l-0.1-3c0-0.6 0.4-1.1 1-1.1 0.5 0 1 0.4 1 1l0.1 3c0 0.5-0.4 1-1 1q0 0 0 0zm-0.3-10c-0.6 0-1-0.4-1-0.9l-0.1-3c0-0.6 0.4-1 1-1.1 0.5 0 1 0.5 1 1l0.1 3c0 0.6-0.4 1-1 1q0 0 0 0zm-0.3-10c-0.6 0-1-0.4-1-0.9l-0.1-3c0-0.6 0.4-1 1-1.1 0.5 0 1 0.5 1 1l0.1 3c0 0.6-0.4 1-1 1q0 0 0 0zm-0.3-10c-0.6 0-1-0.4-1-0.9l-0.1-3c0-0.6 0.4-1 0.9-1.1 0.6 0 1.1 0.5 1.1 1l0.1 3c0 0.6-0.5 1-1 1q0 0 0 0zm-0.3-10c-0.6 0-1-0.4-1-0.9l-0.1-3c-0.1-0.6 0.4-1 0.9-1.1 0.6 0 1 0.5 1.1 1l0.1 3c0 0.6-0.5 1-1 1q0 0 0 0zm-0.4-9.9c-0.5 0-0.9-0.5-1-1v-3c-0.1-0.6 0.4-1 0.9-1 0.6-0.1 1 0.4 1.1 0.9v3c0.1 0.6-0.4 1-0.9 1.1q0 0-0.1 0zm-0.3-10c-0.5 0-0.9-0.5-1-1l-0.1-3c0-0.6 0.5-1 1-1 0.6-0.1 1 0.4 1 0.9l0.1 3c0.1 0.6-0.4 1-0.9 1.1q0 0-0.1 0zm-0.3-10c-0.5 0-1-0.5-1-1l-0.1-3c0-0.6 0.4-1 1-1 0.5-0.1 1 0.4 1 0.9l0.1 3c0 0.6-0.4 1-0.9 1.1q-0.1 0-0.1 0zm-0.3-10c-0.5 0-1-0.5-1-1l-0.1-3c0-0.6 0.4-1 1-1 0.6-0.1 1 0.4 1 0.9l0.1 3c0 0.6-0.4 1-1 1.1q0 0 0 0zm-0.3-10c-0.5 0-1-0.5-1-1l-0.1-3c0-0.5 0.4-1 1-1 0.5 0 1 0.4 1 0.9l0.1 3c0 0.6-0.4 1.1-1 1.1q0 0 0 0zm-0.3-10c-0.5 0-1-0.5-1-1l-0.1-3c0-0.5 0.4-1 1-1 0.5 0 1 0.4 1 0.9l0.1 3c0 0.6-0.4 1.1-1 1.1q0 0 0 0zm-0.3-10c-0.6 0-1-0.4-1-1l-0.1-3c0-0.5 0.4-1 1-1 0.5 0 1 0.4 1 1l0.1 2.9c0 0.6-0.4 1.1-1 1.1q0 0 0 0z"/>
					</g>
					<g id="&lt;Group&gt;">
						<path id="&lt;Compound Path&gt;" class="s4" d="m1979.6 615.4c-0.5 0-1-0.4-1-1v-3c0-0.5 0.5-1 1-1 0.6 0 1 0.5 1 1v3c0 0.6-0.4 1-1 1zm0-10c-0.5 0-1-0.4-1-1v-3c0-0.5 0.5-1 1-1 0.6 0 1 0.5 1 1v3c0 0.6-0.4 1-1 1zm0-10c-0.5 0-1-0.4-1-1v-3c0-0.5 0.5-1 1-1 0.6 0 1 0.5 1 1v3c0 0.6-0.4 1-1 1zm0-10c-0.5 0-1-0.4-1-1v-3c0-0.5 0.5-1 1-1 0.6 0 1 0.5 1 1v3c0 0.6-0.4 1-1 1zm0-10c-0.5 0-1-0.4-1-1v-3c0-0.5 0.5-1 1-1 0.6 0 1 0.5 1 1v3c0 0.6-0.4 1-1 1zm0-10c-0.5 0-1-0.4-1-1v-3c0-0.5 0.5-1 1-1 0.6 0 1 0.5 1 1v3c0 0.6-0.4 1-1 1zm0-10c-0.5 0-1-0.4-1-1v-3c0-0.5 0.5-1 1-1 0.6 0 1 0.5 1 1v3c0 0.6-0.4 1-1 1zm0-10c-0.5 0-1-0.4-1-1v-3c0-0.5 0.5-1 1-1 0.6 0 1 0.5 1 1v3c0 0.6-0.4 1-1 1zm0-10c-0.5 0-1-0.4-1-1v-3c0-0.5 0.5-1 1-1 0.6 0 1 0.5 1 1v3c0 0.6-0.4 1-1 1zm0-10c-0.5 0-1-0.4-1-1v-3c0-0.5 0.5-1 1-1 0.6 0 1 0.5 1 1v3c0 0.6-0.4 1-1 1z"/>
					</g>
					<g id="&lt;Group&gt;">
						<path id="&lt;Path&gt;" class="s4" d="m1435.7 646.6c-0.7 0-1.4-0.6-1.4-1.3l-31.8-375.5c-0.1-0.8 0.5-1.5 1.3-1.6 0.9-0.1 1.6 0.5 1.7 1.3l31.7 375.5c0.1 0.8-0.5 1.6-1.3 1.6q-0.1 0-0.2 0z"/>
						<g id="&lt;Group&gt;">
							<path id="&lt;Path&gt;" class="s4" d="m1399.4 276.1l4.6-5.5 5.5 4.6-0.3-4.3-5.5-4.6-4.7 5.5z"/>
						</g>
					</g>
					<g id="&lt;Group&gt;">
						<path id="&lt;Path&gt;" class="s4" d="m2061.1 629.3h-649c-0.9 0-1.5-0.7-1.5-1.5 0-0.9 0.6-1.5 1.5-1.5h649c0.8 0 1.5 0.6 1.5 1.5 0 0.8-0.7 1.5-1.5 1.5z"/>
						<g id="&lt;Group&gt;">
							<path id="&lt;Path&gt;" class="s4" d="m2055.1 632.8l5.1-5-5.1-5.1h4.3l5.1 5.1-5.1 5z"/>
						</g>
					</g>
				</g>
				<g id="&lt;Clip Group&gt;">
					<g id="&lt;Group&gt;">
						<path id="&lt;Path&gt;" class="s13" d="m1297.3 1368.7q0-0.8-0.2-1.6c-7.9-31.3-47-50.8-47-50.8l-15.5 1.3c-9 27.5-7.8 44.4-6.4 51.9q0.1 0.4 0.2 0.7c12.8 1.1 39.1 1.9 68.9-1.5z"/>
						<path id="&lt;Path&gt;" class="s14" d="m1228.4 1370.2c0.7 2.5 2.5 4.4 4.9 4.9 18.2 3.9 47.1 0.8 59.3-0.8 2.7-0.4 4.6-2.8 4.7-5.6-29.8 3.4-56.1 2.6-68.9 1.5z"/>
						<g id="&lt;Group&gt;">
							<path id="&lt;Path&gt;" class="s15" d="m1454.5 360.8l102.2-37.1 7.8 16.5-98.2 37c0 0-13.7-1.2-11.8-16.4z"/>
							<path id="&lt;Path&gt;" class="s16" d="m1556.7 323.7c-3.1 9.1 7.8 16.5 7.8 16.5l18.6-13.1c-1-2.6-1.6-5-2-7.2z"/>
							<path id="&lt;Path&gt;" class="s17" d="m1581.1 319.9c0.4 2.2 1 4.6 2 7.2l13.7-9.7z"/>
						</g>
						<path id="&lt;Path&gt;" class="s18" d="m1166.9 815.1c-9.5 10.2-23.6 19.1-33.6 24.6 14.9 18.3 34.9 36.7 61.5 54.6l7.6 17.1 24.3-29.2c0 0-43.7-21.8-59.8-67.1z"/>
						<path id="&lt;Path&gt;" class="s19" d="m1228.3 1294.4l6.6 31.7c0.5 2.3 2.2 4 4.4 4.2 2.6 0.3 6.4 0.4 10.2-0.1 3.4-0.5 5.7-4 5.1-7.7l-4.5-28.1z"/>
						<path id="&lt;Path&gt;" class="s20" d="m1364.4 1369.8c-17.1-0.4-25.9-2.5-30.5-4.3q-0.1 2.5 0 5.2c0.1 1.9 1.5 3.5 3.3 3.4l94-0.6c3 0 4.8-3.5 3.5-6.2-12.4 1-43.8 3.3-70.3 2.5z"/>
						<path id="&lt;Path&gt;" class="s21" d="m1434.7 1367.3c-0.1-0.3-0.2-0.5-0.4-0.7-8.3-11.6-29.5-34.7-71.3-44.8l-20-0.6c0 0-9 15.5-9.1 44.3 4.6 1.8 13.4 3.9 30.5 4.3 26.5 0.8 57.9-1.5 70.3-2.5z"/>
						<path id="&lt;Path&gt;" class="s22" d="m1339.3 1290.8c0.2 1.5 2.9 24.2 4 33 0.2 2.1 1.8 3.7 3.7 4 3.4 0.4 8.9 0.7 13.7-0.2 2.7-0.6 4.5-3.1 4.5-6v-35.7z"/>
						<path id="&lt;Path&gt;" class="s23" d="m1323.2 876.1c0 0 48.3 183.9 47.5 415.2-0.1 4.2-3 7.9-7.1 8.8-6.1 1.2-15.1 2.8-22.5 2.5-3.9-0.1-7.2-3-7.9-6.9-6.8-39.8-45.7-263.9-67.9-300.3 0 0-14.6 199.6-9.9 303.2 0.1 2.6-1.8 4.8-4.3 5.1-3.9 0.4-10.1 0.8-18-0.1-3-0.3-5.5-2.5-5.9-5.5-4.8-33.7-32.6-234.1-31.5-378.5 0.1-8.1 21.6-43.5 21.6-43.5z"/>
						<path id="&lt;Path&gt;" class="s24" d="m1481.4 480.2c-21.3 39.5-56.5 79.9-113.9 90.7-52.9 9.9-148 22.3-186.2 27.1-11.5 1.4-22 7.1-29.6 15.9-30 34.7-96 129.9-18.4 225.8 10-5.5 24.1-14.4 33.6-24.6-8.5-24.2-9.2-55.1 8.7-93q1 4.5 2.3 8.9c24.8 78.5 26.2 143.9 26.1 159 0 2 1.2 3.8 3.1 4.6 32.6 13.1 95.5 5.3 116.5 2.2 3.9-0.6 6.5-4.2 6-8.1-10.4-75 42.7-198.3 56.7-229.2 2.1-4.5 5.7-8.1 10.2-10.2 80.2-36.2 115.1-92.1 129.3-142.4-12.3-16.4-31.2-23.6-44.4-26.7z"/>
						<path id="&lt;Path&gt;" class="s25" d="m1525.8 506.9c17.1-61 3.8-113.9 3.8-113.9h-18.3c0 0-6.3 43.1-29.9 87.2 13.2 3.1 32.1 10.3 44.4 26.7z"/>
						<path id="&lt;Path&gt;" class="s26" d="m1517.7 402.8c0 0-27.8-36.1-18.8-54.8 9.1-18.8 40.1-17 40.1-17l4.3 14.7c1.2 3.9 1 8-0.4 11.8l-17.1 45.3z"/>
						<path id="&lt;Path&gt;" class="s27" d="m1237.7 525.9l-6.3 64.2c0 0 36.1 10.9 62.4-7.6l-18.5-58.4z"/>
						<g id="&lt;Group&gt;">
							<path id="&lt;Path&gt;" class="s28" d="m1279.6 452.6c0.9 0.9 36.7 71.2 36.7 71.2l-40.6 19.7-43.9-61.7c0 0 33.2-42.9 47.8-29.2z"/>
							<path id="&lt;Path&gt;" class="s29" d="m1249.8 483.5c-0.7 1.9-0.6 4 0.5 5.7l20.2 33.8q0.5 0.7 1.1 1.4c2.5 2.2 10.7 8.7 17.1-0.2 5.4-7.5 10.5-14.4 16-17.3 3.2-1.6 7.1-0.3 8.7 2.9 3.4 6.6 9.8 20.1 13.9 32.9 1 3.2-0.6 6.6-3.8 7.9-8.2 3.3-24.4 9.4-38.9 11.4-2.3 0.3-4.7-0.7-6.1-2.6-6.2-8.5-23.7-32.3-29.7-38.3-5.5-5.5-15.7-3.4-20.4-2.1-1.7 0.5-3.6 0.3-5.1-0.7-4.7-2.8-12.9-9.8-5.4-21.7 1.8-2.9 0.9-6.9-2-8.8-5.2-3.4-10.9-9.9-5.5-20.3 5.5-10.6 15.2-11.6 21.9-10.7 2.9 0.3 5.9-1.2 7-4 0.5-1.2 1.5-2.2 3.4-2.6 3.5-0.7 5.8-3.9 5.1-7.4-1.2-6-0.3-13.7 9.2-19 17.6-9.6 32.9 6.1 36.8 19.3 3.9 13.3-15.7 22.6-28 24.2-9.1 1.2-14 11-16 16.2z"/>
							<path id="&lt;Path&gt;" class="s30" d="m1256.4 533.5c0 0-7.7-22.8-17.7-21.9-10 0.8-17.9 10.8-5.5 21.9 15.4 13.9 23.2 0 23.2 0z"/>
						</g>
						<path id="&lt;Path&gt;" class="s31" d="m1172.4 716.2c-13.2-36-8.4-79.4-8.4-79.9l3.6 0.4c0 0.5-4.7 43.1 8.2 78.3z"/>
						<path id="&lt;Path&gt;" class="s32" d="m1263.5 990.8c-0.8 0-1.5-0.6-1.7-1.4-4-15.5-34.1-32.5-34.4-32.7-0.9-0.4-1.2-1.6-0.7-2.4 0.5-0.9 1.6-1.2 2.5-0.7 1.3 0.7 31.7 17.9 36.1 34.9 0.3 1-0.3 1.9-1.3 2.2q-0.2 0.1-0.5 0.1z"/>
					</g>
				</g>
			</g>
			<g id="&lt;Group&gt;">
				<path id="&lt;Path&gt;" class="s33" d="m2226.6 1116c0 0 46.7 25.9 50.5 69.7 3.9 43.7 0.3 225.4-93.3 270.1-93.6 44.7-217.5 34.4-264.9 29.5-47.4-4.9-73.7-37.1-79.6-59.3-5.9-22.2-15.4-104.9 34.5-131.5 49.9-26.7 102.3-67.6 154.7-107.3 52.3-39.8 142.1-104.8 198.1-71.2z"/>
				<path id="&lt;Path&gt;" class="s34" d="m1888.5 1309.5c0 0 12.6 0.7 14.2 26.6 0 0-29.2 26.2-68.7 32.5-2.9 0.4 4.2-20.3 5.2-23.1 5.1-13.3 21.1-21.9 49.3-36z"/>
				<path id="&lt;Path&gt;" class="s35" d="m2030.4 1279.1h-26.6c0 0-81.6-90.2-135.1-99.2 0 0-37.2 47.5 2 136.4 3.2 7.1 12 10.3 18.6 6.1q2.9-1.9 4.2-5.1l-3.1-75.8c0 0 69.6 60.8 81.7 72.6 12.1 11.7 73.6 4.6 58.3-35z"/>
				<path id="&lt;Path&gt;" class="s36" d="m1773.4 1468.3c11.1-9.8 28.9-20.7 54.5-23.9l8.7 5.3c0 0-5.5 8.2-15.6 16.8-9.3 5.4-23.6 12.7-35.5 14.3-11.6 1.5-13.3-5.5-12.1-12.5z"/>
				<path id="&lt;Path&gt;" class="s4" d="m1839.2 1345.5c6.9 2.2 9.9 12 27.3 5.5 16.9-6.2 29.4-14.2 35.8-18.8q0.3 1.8 0.4 3.9c0 0-30.8 29.3-70.3 35.6-2.9 0.4-5.3-2.5-4.2-5.3 1.9-5.1 5.4-12.7 11-20.9z"/>
				<path id="&lt;Path&gt;" class="s4" d="m1765 1476.6c2.2-2.5 5-5.3 8.4-8.3-1.2 7 0.5 14 12.1 12.5 11.9-1.6 26.2-8.9 35.5-14.3-11.7 9.9-29.4 20.4-51.7 19.8-5-0.1-7.6-6-4.3-9.7z"/>
				<path id="&lt;Path&gt;" class="s37" d="m2029.5 1298.3l-124.5 1.4c0 0-71.1 58.8-84 148.5 0 0-2.2 6.6 10.7 7.7 0 0 43-28.1 71-77.7 34.4-60.9 102.4-33.5 102.4-33.5 22.4-16.1 54-19.4 77.8-24.8z"/>
				<path id="&lt;Path&gt;" class="s38" d="m2026.5 1198c0 0-13.4 67.2-79.1 93.8l-23.3-2.8-5.5 8.8 54.8 1.7c0 0 46.8-18.5 71.6-69.1 0.8-1.6 14.5-29.9-18.5-32.4z"/>
				<path id="&lt;Path&gt;" class="s39" d="m2019.3 1297.2c0 0 15.3-41.4 18.6-81.7 0 0-11.2-9.6-18.2-13.7-2.2-1.3-3.1-4.2-1.9-6.5 5.1-10.6 36.1-52.3 38.4-52.9 12.6-3.2 64.4-27.8 100.8 22.1 15.6 21.4-3.1 87.2-74.1 155.4l-14.6 2.8z"/>
				<path id="&lt;Path&gt;" class="s40" d="m2078.1 1224.6c0 0-42.4 50.1-96.5 57.5 0 0-14-12.8-24.4-8.2-10.4 4.5-24.7 24.6-24.7 24.6h69.5c0 0 65.8-2.3 98.6-42.2-2.6-13.9-10.6-22.2-22.5-31.7z"/>
				<path id="&lt;Path&gt;" class="s41" d="m2102.8 1107.2l9.2 30.9c0.5 1.4-0.1 3-1.3 3.8-4.4 3.1-16.1 9.1-32.1 3.2-1.8-0.6-3.1-2.3-3.2-4.3l-2.2-26.9z"/>
				<g id="&lt;Group&gt;">
					<path id="&lt;Path&gt;" class="s42" d="m2063.7 1055.7c0 0-16.6 27.7-13.3 43.1 3.3 15.4 26.6 24.8 48.1 11.2l13.6-42.3z"/>
					<path id="&lt;Path&gt;" class="s43" d="m2096.6 1089.6c-0.9-0.3-1.3-1.4-0.8-2.3 1.5-2.5 4.4-7.8 5.1-12.3 0 0 3.6-2.5-9.6-5-13.1-2.5-32.7-6.5-37.3-17.4-4.5-10.6 4.7-38.2 22.4-17.3 0.6 0.7 1.9 0.7 2.5-0.1 2.5-3.7 9.4-11.4 19.6-7.4 9.5 3.7 10.9 10.5 10.9 14 0 1 0.9 1.7 1.9 1.5 4.7-1.1 16-2.4 21.8 9 4.8 9.3 2.2 14.9-0.2 17.6-0.8 0.9-0.4 2.3 0.8 2.6 3.1 0.8 7.2 3.3 7.2 10.6-0.1 10-11.4 9.7-14.6 9.4-0.5-0.1-1 0.1-1.4 0.5-2.6 3.2-14.3 16.6-27.6 18.8-1.2 0.2-2.1-0.9-1.8-2l5-17.1c0.2-0.8-0.2-1.6-1-1.9z"/>
					<path id="&lt;Path&gt;" class="s44" d="m2094.4 1092.1c0 0 14.1-10.6 15.5-2.3 1.5 8.4-12.5 12.8-19.7 10z"/>
				</g>
				<path id="&lt;Path&gt;" class="s2" d="m1936 1302.4l-31.2-104.1c-1.3-4.2-5-7.2-9.5-7.5l-42.1-2.9c-4.3-0.3-7.5 3.9-6 7.9l34.8 99.4c1.2 3.2 4 5.5 7.4 5.8l41.5 4.6z"/>
				<path id="&lt;Path&gt;" class="s4" d="m1878.5 1233.6c2.3 4.7 6.3 7.5 8.9 6.2 2.7-1.3 2.9-6.2 0.6-10.9-2.3-4.7-6.4-7.5-9-6.2-2.6 1.3-2.9 6.2-0.5 10.9z"/>
				<path id="&lt;Path&gt;" class="s45" d="m1930.9 1305.6q0.1 0 0.2 0l88.4-4.4c2.2-0.1 3.9-2 3.8-4.2-0.1-2.2-2-3.9-4.2-3.8l-88.4 4.5c-2.2 0.1-3.8 2-3.7 4.2 0.1 2.1 1.8 3.7 3.9 3.7z"/>
				<path id="&lt;Path&gt;" class="s46" d="m2037.9 1216c-0.3 0-0.5-0.2-0.5-0.5-0.1-18.6 7.1-43.3 7.1-43.6 0.1-0.2 0.4-0.4 0.7-0.3 0.2 0.1 0.4 0.4 0.3 0.6-0.1 0.3-7.2 24.8-7.1 43.3 0 0.3-0.3 0.5-0.5 0.5q0 0 0 0z"/>
				<path id="&lt;Path&gt;" class="s47" d="m2078.1 1225.1q-0.2 0-0.3-0.1c-0.3-0.2-0.3-0.5-0.1-0.7 0.2-0.3 19.4-24.7 26-41.4 0.1-0.2 0.4-0.4 0.6-0.3 0.3 0.1 0.4 0.4 0.3 0.7-6.6 16.8-25.9 41.4-26.1 41.6q-0.2 0.2-0.4 0.2z"/>
				<path id="&lt;Path&gt;" class="s48" d="m2105.4 1262.6l-3.5-4.8c-0.2-0.3-0.1-0.6 0.1-0.7 0.3-0.2 0.6-0.1 0.7 0.1l3 4.2c27.4-11.9 44.3-44.7 44.5-45 0.1-0.2 0.4-0.3 0.6-0.2 0.3 0.1 0.4 0.4 0.3 0.7-0.2 0.3-17.5 33.6-45.4 45.6z"/>
			</g>
			<path id="&lt;Compound Path&gt;" class="s49" d="m412.3 1317.7c-0.5 0-1.1-0.2-1.6-0.5q-1.2-0.9-2.5-1.8c-1.3-0.9-1.6-2.7-0.7-3.9 0.9-1.3 2.7-1.6 4-0.7q1.2 0.8 2.4 1.7c1.3 0.9 1.7 2.6 0.8 3.9-0.6 0.8-1.5 1.3-2.4 1.3zm-9.7-7.1c-0.6 0-1.2-0.2-1.7-0.5q-1.2-1-2.4-1.9c-1.3-0.9-1.5-2.7-0.5-4 0.9-1.2 2.7-1.4 4-0.5q1.1 0.9 2.3 1.8c1.3 1 1.5 2.7 0.6 4-0.6 0.7-1.4 1.1-2.3 1.1zm-9.4-7.4c-0.7 0-1.3-0.2-1.8-0.7q-1.2-0.9-2.4-1.9c-1.2-1-1.3-2.8-0.3-4 1-1.2 2.8-1.4 4-0.3q1.2 0.9 2.3 1.9c1.2 1 1.4 2.8 0.4 4-0.6 0.6-1.4 1-2.2 1zm-9.1-7.8c-0.7 0-1.4-0.3-1.9-0.8q-1.1-1-2.2-2c-1.2-1.1-1.3-2.9-0.2-4 1-1.2 2.8-1.3 4-0.2q1.1 1 2.2 2c1.2 1.1 1.3 2.9 0.2 4-0.6 0.7-1.3 1-2.1 1zm-8.8-8.2c-0.7 0-1.4-0.3-1.9-0.9q-1.1-1-2.2-2.1c-1.1-1.1-1.1-2.9 0-4 1.1-1.1 2.9-1.1 4 0q1.1 1 2.1 2.1c1.2 1.1 1.2 2.9 0.1 4-0.6 0.6-1.3 0.9-2.1 0.9zm-8.3-8.6c-0.8 0-1.6-0.3-2.1-0.9q-1.1-1.1-2.1-2.2c-1-1.2-1-3 0.2-4.1 1.2-1 3-0.9 4 0.2q1 1.1 2 2.2c1.1 1.1 1.1 2.9-0.1 4-0.5 0.5-1.2 0.8-1.9 0.8zm-8.1-8.9c-0.8 0-1.6-0.4-2.1-1q-1-1.2-2-2.3c-1-1.2-0.8-3 0.4-4.1 1.2-1 3-0.8 4 0.4q0.9 1.1 1.9 2.3c1 1.1 0.9 2.9-0.3 4-0.5 0.4-1.2 0.7-1.9 0.7zm-7.6-9.3c-0.8 0-1.7-0.4-2.2-1.1q-1-1.2-1.9-2.4c-1-1.2-0.7-3 0.5-4 1.3-0.9 3-0.7 4 0.5q0.9 1.2 1.8 2.4c1 1.2 0.8 3-0.4 4-0.6 0.4-1.2 0.6-1.8 0.6zm-7.2-9.6c-0.9 0-1.8-0.4-2.3-1.2q-0.9-1.2-1.8-2.4c-0.9-1.3-0.6-3.1 0.7-4 1.3-0.9 3-0.6 3.9 0.7q0.9 1.2 1.8 2.4c0.9 1.3 0.6 3.1-0.7 4-0.5 0.3-1.1 0.5-1.6 0.5zm-6.8-9.9c-1 0-1.9-0.4-2.4-1.2q-0.9-1.3-1.7-2.6c-0.8-1.3-0.4-3.1 0.9-3.9 1.3-0.9 3.1-0.5 3.9 0.8q0.8 1.3 1.6 2.5c0.9 1.3 0.5 3.1-0.8 4-0.5 0.3-1 0.4-1.5 0.4zm-6.4-10.1c-1 0-1.9-0.5-2.5-1.4q-0.7-1.3-1.5-2.6c-0.8-1.4-0.3-3.1 1-3.9 1.4-0.8 3.1-0.4 3.9 1q0.8 1.3 1.5 2.6c0.8 1.3 0.4 3.1-1 3.9q-0.7 0.4-1.4 0.4zm1165.5-1.9q0 0 0 0-1.5 0-3 0c-1.6 0-2.8-1.3-2.8-2.9 0-1.5 1.3-2.8 2.9-2.8q1.5 0 3 0c1.5 0.1 2.8 1.3 2.8 2.9 0 1.6-1.3 2.8-2.9 2.8zm9 0c-1.5 0-2.8-1.2-2.8-2.8 0-1.6 1.2-2.8 2.8-2.9q1.5 0 3 0 0 0 0 0c1.6 0 2.9 1.3 2.9 2.8 0 1.6-1.3 2.9-2.8 2.9q-1.5 0-3 0 0 0-0.1 0zm-21-0.1q0 0 0 0-1.5-0.1-3-0.1c-1.6-0.1-2.8-1.4-2.8-2.9 0-1.6 1.4-2.9 2.9-2.8q1.5 0 3 0.1c1.6 0 2.8 1.3 2.8 2.9 0 1.5-1.3 2.8-2.9 2.8zm33-0.1c-1.5 0-2.8-1.2-2.8-2.7-0.1-1.6 1.2-2.9 2.8-3q1.4 0 2.9-0.1c1.6 0 2.9 1.2 3 2.8 0 1.6-1.2 2.9-2.8 2.9q-1.5 0.1-3 0.1 0 0-0.1 0zm-44.9-0.3q-0.1 0-0.2 0-1.5-0.1-3-0.2c-1.5 0-2.7-1.4-2.7-2.9 0.1-1.6 1.4-2.8 3-2.8q1.5 0.1 3 0.2c1.6 0 2.8 1.4 2.7 2.9-0.1 1.6-1.3 2.8-2.8 2.8zm56.9-0.1c-1.5 0-2.8-1.2-2.8-2.7-0.1-1.6 1.1-2.9 2.7-3q1.5-0.1 3-0.2c1.5 0 2.9 1.2 2.9 2.7 0.1 1.6-1.1 2.9-2.6 3q-1.6 0.1-3.1 0.2 0 0-0.1 0zm-68.9-0.5q-0.1 0-0.2 0-1.5-0.1-3-0.2c-1.6-0.1-2.7-1.5-2.6-3 0.1-1.6 1.4-2.8 3-2.7q1.5 0.1 3 0.2c1.5 0.1 2.7 1.4 2.6 3-0.1 1.5-1.3 2.7-2.8 2.7zm80.9-0.2c-1.5 0-2.8-1.2-2.9-2.7-0.1-1.5 1.1-2.9 2.7-3q1.5-0.1 3-0.2c1.5-0.1 2.9 1 3 2.6 0.1 1.6-1.1 2.9-2.6 3.1q-1.5 0.1-3 0.2-0.1 0-0.2 0zm-92.9-0.6q-0.1 0-0.2-0.1-1.5-0.1-3-0.2c-1.6-0.1-2.7-1.5-2.6-3.1 0.1-1.5 1.5-2.7 3.1-2.6q1.4 0.2 2.9 0.3c1.6 0.1 2.8 1.5 2.7 3-0.2 1.5-1.4 2.7-2.9 2.7zm104.8-0.4c-1.4 0-2.7-1.1-2.8-2.6-0.1-1.5 1-2.9 2.6-3q1.5-0.2 2.9-0.3c1.6-0.2 3 1 3.1 2.5 0.2 1.6-1 3-2.5 3.2q-1.5 0.1-3 0.2-0.1 0-0.3 0zm-116.7-0.7q-0.2 0-0.3 0-1.5-0.1-3-0.3c-1.6-0.1-2.7-1.5-2.6-3.1 0.2-1.5 1.6-2.7 3.2-2.5q1.4 0.1 2.9 0.3c1.6 0.1 2.7 1.5 2.6 3.1-0.1 1.4-1.4 2.5-2.8 2.5zm128.7-0.5c-1.5 0-2.7-1-2.9-2.5-0.1-1.5 1-3 2.6-3.1q1.4-0.2 2.9-0.4c1.6-0.1 3 1 3.2 2.5 0.2 1.6-1 3-2.5 3.2q-1.5 0.2-3 0.3-0.2 0-0.3 0zm-140.7-0.7q-0.1 0-0.3 0-1.5-0.1-3-0.3c-1.5-0.2-2.7-1.6-2.5-3.2 0.2-1.5 1.6-2.6 3.2-2.5q1.5 0.2 2.9 0.4c1.6 0.1 2.7 1.5 2.6 3.1-0.2 1.5-1.4 2.5-2.9 2.5zm152.6-0.7c-1.4 0-2.7-1-2.8-2.5-0.3-1.5 0.8-3 2.4-3.2q1.5-0.2 3-0.4c1.5-0.2 3 0.9 3.2 2.5 0.2 1.5-0.9 3-2.5 3.2q-1.5 0.2-3 0.4-0.1 0-0.3 0zm-164.5-0.7q-0.2 0-0.3 0-1.5-0.2-3-0.4c-1.6-0.2-2.7-1.6-2.5-3.2 0.2-1.5 1.6-2.6 3.2-2.4q1.5 0.2 3 0.4c1.5 0.2 2.6 1.6 2.4 3.1-0.1 1.5-1.4 2.5-2.8 2.5zm176.3-1c-1.3 0-2.5-1-2.8-2.4-0.2-1.5 0.9-3 2.4-3.2q1.5-0.3 3-0.5c1.5-0.2 3 0.8 3.2 2.4 0.3 1.5-0.8 3-2.3 3.2q-1.5 0.3-3 0.5-0.2 0-0.5 0zm-188.2-0.6q-0.2 0-0.4 0-1.5-0.2-3-0.4c-1.5-0.2-2.6-1.7-2.4-3.2 0.3-1.6 1.7-2.7 3.3-2.4q1.4 0.2 2.9 0.4c1.6 0.2 2.7 1.6 2.4 3.2-0.2 1.4-1.4 2.4-2.8 2.4zm200.1-1.3c-1.4 0-2.6-1-2.8-2.4-0.3-1.5 0.8-3 2.3-3.3q1.5-0.2 2.9-0.5c1.6-0.3 3.1 0.8 3.3 2.3 0.3 1.6-0.7 3-2.2 3.3q-1.5 0.3-3 0.5-0.3 0.1-0.5 0.1zm-1276-0.1c-1 0-1.9-0.5-2.5-1.5q-0.7-1.3-1.4-2.6c-0.7-1.4-0.2-3.2 1.2-3.9 1.4-0.7 3.1-0.2 3.9 1.2q0.6 1.3 1.3 2.6c0.8 1.4 0.3 3.1-1.1 3.9q-0.7 0.3-1.4 0.3zm1064-0.3q-0.2 0-0.4-0.1-1.5-0.2-3-0.4c-1.5-0.3-2.6-1.7-2.3-3.3 0.2-1.6 1.7-2.6 3.2-2.4q1.5 0.3 3 0.5c1.5 0.3 2.6 1.7 2.4 3.3-0.3 1.4-1.5 2.4-2.9 2.4zm223.8-1.8c-1.3 0-2.5-0.9-2.8-2.3-0.3-1.5 0.7-3 2.2-3.3q1.5-0.3 3-0.6c1.5-0.3 3 0.7 3.3 2.2 0.3 1.5-0.7 3.1-2.2 3.4q-1.5 0.3-3 0.5-0.2 0.1-0.5 0.1zm-235.6-0.2q-0.2 0-0.5 0-1.5-0.3-3-0.5c-1.5-0.3-2.5-1.8-2.3-3.3 0.3-1.6 1.8-2.6 3.3-2.3q1.5 0.2 3 0.5c1.5 0.2 2.6 1.7 2.3 3.3-0.2 1.3-1.4 2.3-2.8 2.3zm-11.8-2.1q-0.3 0-0.5-0.1-1.5-0.2-3-0.5c-1.5-0.3-2.6-1.8-2.3-3.3 0.3-1.6 1.8-2.6 3.4-2.3q1.4 0.3 2.9 0.6c1.6 0.2 2.6 1.7 2.3 3.3-0.3 1.3-1.5 2.3-2.8 2.3zm259.1-0.1c-1.3 0-2.4-0.9-2.7-2.3-0.4-1.5 0.6-3 2.1-3.4q1.5-0.3 3-0.6c1.5-0.3 3 0.6 3.4 2.2 0.3 1.5-0.7 3-2.2 3.3q-1.5 0.4-2.9 0.7-0.4 0.1-0.7 0.1zm-270.9-2.2q-0.3 0-0.6 0l-2.9-0.6c-1.6-0.4-2.5-1.9-2.2-3.4 0.3-1.5 1.8-2.5 3.3-2.2l3 0.6c1.5 0.3 2.5 1.8 2.2 3.3-0.3 1.4-1.5 2.3-2.8 2.3zm282.6-0.5c-1.2 0-2.4-0.9-2.7-2.2-0.4-1.5 0.6-3.1 2.1-3.4q1.4-0.4 2.9-0.7c1.5-0.4 3.1 0.5 3.4 2 0.4 1.6-0.5 3.1-2.1 3.5q-1.4 0.3-2.9 0.7-0.3 0.1-0.7 0.1zm-294.3-1.9q-0.3 0-0.7-0.1-1.4-0.3-2.9-0.7c-1.5-0.3-2.5-1.8-2.2-3.3 0.4-1.6 1.9-2.5 3.4-2.2q1.5 0.3 3 0.6c1.5 0.4 2.5 1.9 2.1 3.4-0.3 1.3-1.4 2.3-2.7 2.3zm306-1.1c-1.3 0-2.4-0.8-2.8-2.1-0.4-1.5 0.5-3.1 2.1-3.5q1.4-0.3 2.8-0.7c1.6-0.4 3.1 0.5 3.5 2 0.4 1.5-0.5 3.1-2 3.5q-1.4 0.4-2.9 0.7-0.3 0.1-0.7 0.1zm-1328.3-0.5c-1.1 0-2.1-0.6-2.6-1.6q-0.6-1.3-1.3-2.7c-0.6-1.4 0-3.1 1.4-3.8 1.4-0.7 3.1 0 3.8 1.4q0.6 1.3 1.3 2.7c0.6 1.4 0 3.1-1.4 3.8q-0.6 0.2-1.2 0.2zm1010.5-1.1q-0.3 0-0.6 0-1.5-0.4-2.9-0.7c-1.6-0.4-2.5-1.9-2.2-3.4 0.4-1.6 1.9-2.5 3.5-2.2q1.4 0.4 2.9 0.7c1.5 0.4 2.5 1.9 2.1 3.4-0.3 1.3-1.5 2.2-2.8 2.2zm329.4-1.6c-1.3 0-2.4-0.8-2.8-2-0.4-1.5 0.5-3.1 2-3.5q1.4-0.4 2.8-0.9c1.6-0.4 3.1 0.5 3.6 2 0.4 1.5-0.4 3-1.9 3.5q-1.5 0.4-2.9 0.8-0.4 0.1-0.8 0.1zm-341-1.1q-0.4 0-0.7-0.1l-2.9-0.7c-1.6-0.4-2.5-1.9-2.1-3.5 0.3-1.5 1.9-2.4 3.4-2.1l2.9 0.8c1.5 0.3 2.5 1.9 2.1 3.4-0.3 1.3-1.5 2.2-2.7 2.2zm352.5-2.3c-1.2 0-2.4-0.8-2.7-2-0.5-1.5 0.3-3.1 1.8-3.6q1.4-0.4 2.9-0.9c1.5-0.4 3.1 0.4 3.5 1.9 0.5 1.5-0.3 3.1-1.8 3.6q-1.4 0.4-2.9 0.9-0.4 0.1-0.8 0.1zm-364.2-0.6q-0.3 0-0.7-0.1l-2.9-0.8c-1.5-0.4-2.5-1.9-2.1-3.5 0.4-1.5 2-2.4 3.5-2l2.9 0.8c1.5 0.3 2.4 1.9 2.1 3.4-0.4 1.3-1.5 2.2-2.8 2.2zm-11.6-3.1q-0.4 0-0.8-0.1l-2.9-0.8c-1.5-0.4-2.4-2-2-3.5 0.5-1.5 2-2.4 3.5-2l2.9 0.8c1.6 0.4 2.4 2 2 3.5-0.3 1.3-1.5 2.1-2.7 2.1zm387.2 0c-1.2 0-2.3-0.8-2.7-1.9-0.5-1.5 0.3-3.2 1.8-3.7q1.4-0.4 2.8-0.9c1.5-0.5 3.1 0.3 3.6 1.7 0.5 1.5-0.3 3.2-1.7 3.7q-1.5 0.5-2.9 0.9-0.5 0.2-0.9 0.2zm-1367.8-1.1c-1.1 0-2.1-0.6-2.6-1.7q-0.6-1.4-1.2-2.8c-0.6-1.5 0.1-3.1 1.6-3.7 1.4-0.6 3.1 0.1 3.7 1.5q0.6 1.4 1.1 2.7c0.7 1.5 0 3.2-1.5 3.8q-0.5 0.2-1.1 0.2zm969-2.1q-0.4 0-0.8-0.1l-2.8-0.8c-1.6-0.5-2.4-2-2-3.5 0.4-1.6 2-2.4 3.5-2l2.9 0.8c1.5 0.4 2.4 2 2 3.5-0.4 1.3-1.5 2.1-2.8 2.1zm410.1-0.8c-1.1 0-2.2-0.7-2.6-1.9-0.6-1.4 0.2-3.1 1.7-3.6q1.4-0.5 2.8-1c1.4-0.6 3.1 0.2 3.6 1.7 0.6 1.4-0.2 3.1-1.7 3.6q-1.4 0.5-2.8 1-0.5 0.2-1 0.2zm-421.6-2.5q-0.4 0-0.8-0.1l-2.9-0.9c-1.5-0.5-2.4-2-1.9-3.5 0.4-1.6 2-2.4 3.5-2l2.9 0.9c1.5 0.4 2.4 2 1.9 3.5-0.3 1.3-1.5 2.1-2.7 2.1zm432.9-1.7c-1.2 0-2.2-0.7-2.7-1.8-0.6-1.5 0.2-3.1 1.6-3.7q1.4-0.5 2.8-1.1c1.5-0.6 3.1 0.1 3.7 1.6 0.6 1.5-0.1 3.1-1.6 3.7q-1.4 0.6-2.8 1.1-0.5 0.2-1 0.2zm-444.4-1.8q-0.4 0-0.8-0.1l-2.9-0.9c-1.5-0.5-2.4-2.1-1.9-3.6 0.5-1.5 2.1-2.3 3.6-1.8l2.8 0.8c1.5 0.5 2.4 2.1 1.9 3.6-0.4 1.2-1.5 2-2.7 2zm-950.4-2.2c-1.2 0-2.3-0.7-2.7-1.9q-0.5-1.4-1-2.8c-0.6-1.5 0.2-3.1 1.7-3.7 1.5-0.5 3.1 0.3 3.6 1.7q0.5 1.4 1 2.8c0.6 1.5-0.2 3.1-1.6 3.7q-0.5 0.2-1 0.2zm1405.9-0.5c-1.1 0-2.2-0.7-2.6-1.7-0.6-1.5 0.1-3.2 1.5-3.8q1.4-0.5 2.8-1.1c1.4-0.6 3.1 0 3.7 1.5 0.6 1.4-0.1 3.1-1.5 3.7q-1.4 0.6-2.8 1.2-0.5 0.2-1.1 0.2zm-467-0.9q-0.4 0-0.8-0.1l-2.9-0.9c-1.5-0.5-2.3-2.1-1.8-3.6 0.4-1.5 2-2.3 3.5-1.9l2.9 1c1.5 0.4 2.3 2 1.8 3.5-0.3 1.2-1.5 2-2.7 2zm-11.4-3.7q-0.4 0-0.9-0.1l-2.8-1c-1.5-0.5-2.3-2.1-1.8-3.6 0.5-1.5 2.1-2.3 3.6-1.8l2.8 1c1.5 0.5 2.3 2.1 1.8 3.6-0.4 1.2-1.5 1.9-2.7 1.9zm489.4-0.2c-1 0-2.1-0.6-2.6-1.6-0.6-1.5 0.1-3.2 1.5-3.8q1.4-0.6 2.7-1.2c1.4-0.7 3.1 0 3.8 1.4 0.6 1.4 0 3.1-1.4 3.8q-1.4 0.6-2.8 1.2-0.6 0.2-1.2 0.2zm-500.8-3.6q-0.4 0-0.9-0.2l-2.8-0.9c-1.5-0.6-2.3-2.2-1.8-3.7 0.5-1.5 2.1-2.2 3.6-1.7l2.9 0.9c1.4 0.6 2.2 2.2 1.7 3.7-0.4 1.1-1.5 1.9-2.7 1.9zm511.8-1.4c-1.1 0-2.1-0.6-2.6-1.6-0.7-1.4-0.1-3.1 1.3-3.8q1.4-0.6 2.7-1.3c1.4-0.7 3.1-0.1 3.8 1.3 0.7 1.5 0.1 3.2-1.3 3.8q-1.4 0.7-2.7 1.4-0.6 0.2-1.2 0.2zm-1431.9-1.1c-1.2 0-2.3-0.7-2.7-2q-0.4-1.4-0.9-2.8c-0.4-1.6 0.4-3.1 1.9-3.6 1.5-0.5 3.1 0.4 3.6 1.9q0.4 1.4 0.9 2.8c0.4 1.5-0.4 3.1-1.9 3.6q-0.4 0.1-0.9 0.1zm908.8-1.5q-0.5 0-0.9-0.1l-2.9-1c-1.5-0.6-2.2-2.2-1.7-3.7 0.5-1.4 2.1-2.2 3.6-1.7l2.8 1c1.5 0.5 2.3 2.2 1.8 3.6-0.4 1.2-1.5 1.9-2.7 1.9zm533.8-2.7c-1 0-2-0.5-2.5-1.5-0.7-1.4-0.1-3.1 1.3-3.8q1.3-0.7 2.6-1.4c1.4-0.7 3.1-0.2 3.8 1.2 0.8 1.4 0.2 3.1-1.2 3.9q-1.3 0.6-2.7 1.3-0.6 0.3-1.3 0.3zm-545.1-1.3q-0.5 0-1-0.2l-2.8-1c-1.5-0.5-2.2-2.2-1.7-3.7 0.5-1.4 2.2-2.2 3.7-1.7l2.8 1.1c1.4 0.5 2.2 2.1 1.7 3.6-0.4 1.2-1.5 1.9-2.7 1.9zm-11.3-4.2q-0.5 0-1-0.1l-2.8-1.1c-1.4-0.5-2.2-2.2-1.6-3.7 0.5-1.4 2.2-2.2 3.6-1.6l2.8 1c1.5 0.6 2.3 2.2 1.7 3.7-0.4 1.1-1.5 1.8-2.7 1.8zm567.1 0c-1 0-2-0.6-2.5-1.5-0.8-1.4-0.2-3.1 1.1-3.9q1.4-0.7 2.7-1.4c1.3-0.7 3.1-0.2 3.8 1.1 0.8 1.4 0.3 3.1-1.1 3.9q-1.3 0.7-2.7 1.4-0.6 0.4-1.3 0.4zm-1456.6-1.8c-1.3 0-2.4-0.8-2.8-2.1q-0.4-1.5-0.7-2.9c-0.4-1.6 0.5-3.1 2-3.5 1.5-0.4 3.1 0.5 3.5 2.1q0.3 1.4 0.7 2.8c0.4 1.6-0.5 3.1-2 3.5q-0.4 0.1-0.7 0.1zm878.3-2.4q-0.5 0-1-0.2l-2.8-1.1c-1.5-0.5-2.2-2.2-1.6-3.7 0.5-1.4 2.2-2.2 3.6-1.6l2.8 1.1c1.5 0.6 2.2 2.2 1.7 3.7-0.5 1.1-1.5 1.8-2.7 1.8zm588.8-1.6c-1 0-2-0.6-2.5-1.5-0.8-1.3-0.3-3.1 1.1-3.9q1.3-0.7 2.6-1.5c1.3-0.7 3.1-0.3 3.9 1.1 0.7 1.3 0.3 3.1-1.1 3.9q-1.3 0.7-2.6 1.5-0.7 0.4-1.4 0.4zm-600-2.8q-0.5 0-1-0.2l-2.8-1.1c-1.5-0.5-2.2-2.2-1.6-3.7 0.6-1.4 2.2-2.1 3.7-1.6l2.8 1.1c1.4 0.6 2.2 2.3 1.6 3.7-0.5 1.2-1.5 1.8-2.7 1.8zm610.3-3.3c-0.9 0-1.9-0.5-2.4-1.4-0.8-1.4-0.4-3.1 1-3.9q1.2-0.8 2.5-1.6c1.3-0.8 3.1-0.4 3.9 0.9 0.8 1.4 0.4 3.1-0.9 4q-1.3 0.8-2.6 1.5-0.7 0.5-1.5 0.5zm-621.4-1.1q-0.6 0-1.1-0.2l-2.8-1.1c-1.4-0.6-2.1-2.3-1.5-3.7 0.6-1.5 2.2-2.2 3.7-1.6l2.8 1.1c1.4 0.6 2.1 2.3 1.5 3.7-0.4 1.1-1.5 1.8-2.6 1.8zm-858.8-0.5c-1.3 0-2.5-0.9-2.8-2.2q-0.3-1.5-0.6-3c-0.3-1.5 0.7-3 2.2-3.3 1.5-0.3 3 0.7 3.3 2.2q0.3 1.5 0.6 2.9c0.4 1.5-0.6 3.1-2.1 3.4q-0.3 0-0.6 0zm847.7-4q-0.6 0-1.1-0.2l-2.8-1.2c-1.4-0.6-2.1-2.3-1.5-3.7 0.6-1.5 2.2-2.1 3.7-1.5l2.8 1.1c1.4 0.6 2.1 2.3 1.5 3.7-0.4 1.1-1.5 1.8-2.6 1.8zm642.7-0.8c-0.9 0-1.8-0.5-2.4-1.3-0.8-1.3-0.4-3.1 0.9-4q1.2-0.8 2.5-1.6c1.3-0.8 3.1-0.5 3.9 0.8 0.9 1.4 0.5 3.1-0.8 4q-1.3 0.8-2.5 1.6c-0.5 0.3-1.1 0.5-1.6 0.5zm-653.8-3.8q-0.6 0-1.1-0.3l-2.8-1.1c-1.4-0.6-2.1-2.3-1.5-3.8 0.6-1.4 2.3-2.1 3.8-1.5l2.7 1.2c1.5 0.6 2.1 2.3 1.5 3.7-0.4 1.1-1.5 1.8-2.6 1.8zm663.8-2.9c-0.9 0-1.8-0.4-2.3-1.2-0.9-1.3-0.6-3.1 0.7-4q1.2-0.8 2.5-1.6c1.3-0.9 3-0.6 3.9 0.7 0.9 1.3 0.6 3-0.7 3.9q-1.2 0.9-2.5 1.7c-0.5 0.4-1 0.5-1.6 0.5zm-1502.7-0.2c-1.3 0-2.5-1-2.8-2.4q-0.2-1.5-0.4-3c-0.3-1.6 0.8-3 2.4-3.3 1.5-0.2 3 0.9 3.2 2.4q0.2 1.5 0.5 3c0.2 1.5-0.8 3-2.4 3.2q-0.2 0.1-0.5 0.1zm827.9-1.6q-0.6 0-1.2-0.3l-2.7-1.2c-1.5-0.6-2.1-2.3-1.5-3.7 0.6-1.4 2.3-2.1 3.7-1.5l2.8 1.2c1.4 0.6 2.1 2.3 1.5 3.7-0.5 1.1-1.5 1.8-2.6 1.8zm-11-4.8q-0.6 0-1.2-0.2l-2.7-1.3c-1.5-0.6-2.1-2.3-1.5-3.7 0.6-1.4 2.3-2.1 3.8-1.5l2.7 1.2c1.4 0.7 2.1 2.3 1.5 3.8-0.5 1.1-1.5 1.7-2.6 1.7zm695.6-0.3c-0.8 0-1.7-0.4-2.3-1.1-0.9-1.3-0.6-3.1 0.7-4q1.2-0.9 2.4-1.8c1.2-0.9 3-0.6 3.9 0.6 1 1.3 0.7 3.1-0.6 4q-1.2 0.9-2.4 1.8c-0.5 0.4-1.1 0.5-1.7 0.5zm-706.6-4.6q-0.6 0-1.2-0.2l-2.7-1.2c-1.4-0.7-2.1-2.4-1.4-3.8 0.6-1.4 2.3-2.1 3.7-1.4l2.8 1.2c1.4 0.6 2 2.3 1.4 3.8-0.5 1-1.5 1.6-2.6 1.6zm-807.5-0.6c-1.4 0-2.6-1.1-2.8-2.6q-0.2-1.5-0.3-3c-0.2-1.5 1-2.9 2.6-3.1 1.5-0.1 2.9 1 3.1 2.6q0.1 1.5 0.3 2.9c0.1 1.6-1 3-2.6 3.2q-0.1 0-0.3 0zm1523.8-2c-0.9 0-1.7-0.3-2.3-1.1-1-1.2-0.7-3 0.5-4q1.2-0.9 2.4-1.8c1.2-0.9 3-0.7 4 0.5 0.9 1.3 0.7 3-0.5 4q-1.2 0.9-2.4 1.9c-0.5 0.4-1.1 0.5-1.7 0.5zm-727.2-2.3q-0.6 0-1.2-0.2l-2.8-1.3c-1.4-0.6-2-2.3-1.4-3.7 0.7-1.5 2.4-2.1 3.8-1.5l2.7 1.3c1.5 0.6 2.1 2.3 1.4 3.8-0.4 1-1.5 1.6-2.5 1.6zm-11-5q-0.6 0-1.2-0.2l-2.7-1.3c-1.4-0.6-2-2.3-1.4-3.8 0.7-1.4 2.4-2 3.8-1.3l2.7 1.2c1.5 0.7 2.1 2.4 1.4 3.8-0.5 1-1.5 1.6-2.6 1.6zm747.6-0.1c-0.9 0-1.7-0.4-2.3-1.1-0.9-1.2-0.8-3 0.5-4q1.1-0.9 2.3-1.8c1.2-1 3-0.9 4 0.3 1 1.2 0.8 3-0.4 4q-1.2 1-2.3 2c-0.6 0.4-1.2 0.6-1.8 0.6zm-1534.2-2.6c-1.5 0-2.7-1.1-2.8-2.7q-0.1-1.5-0.1-3c-0.1-1.6 1.1-2.9 2.7-3 1.6 0 2.9 1.2 2.9 2.8q0.1 1.4 0.2 2.9c0.1 1.6-1.1 2.9-2.7 3q-0.1 0-0.2 0zm775.7-2.3q-0.6 0-1.2-0.3l-2.7-1.2c-1.4-0.7-2-2.4-1.3-3.8 0.6-1.5 2.3-2.1 3.7-1.4l2.8 1.3c1.4 0.6 2 2.3 1.3 3.7-0.5 1.1-1.5 1.7-2.6 1.7zm767.6-2.8c-0.8 0-1.6-0.4-2.1-1-1-1.2-0.9-3 0.3-4q1.1-1 2.2-2c1.2-1 3-0.9 4 0.3 1.1 1.2 1 3-0.2 4q-1.2 1-2.3 2c-0.5 0.4-1.2 0.7-1.9 0.7zm-778.4-2.3q-0.6 0-1.2-0.3l-2.7-1.3c-1.5-0.6-2.1-2.3-1.4-3.8 0.7-1.4 2.4-2 3.8-1.3l2.7 1.3c1.4 0.6 2 2.3 1.4 3.8-0.5 1-1.5 1.6-2.6 1.6zm-765.2-4.6c-1.6 0-2.8-1.2-2.8-2.8v-0.1q0-1.5 0-3c0-1.5 1.3-2.8 2.9-2.8 1.5 0.1 2.8 1.4 2.8 2.9q0 1.5 0 2.9c0 1.6-1.3 2.9-2.9 2.9zm754.3-0.6q-0.6 0-1.2-0.2l-2.7-1.3c-1.4-0.7-2-2.4-1.3-3.8 0.7-1.5 2.4-2 3.8-1.4l2.7 1.3c1.4 0.7 2 2.4 1.3 3.8-0.5 1-1.5 1.6-2.6 1.6zm798.3-0.5c-0.8 0-1.6-0.3-2.1-0.9-1.1-1.2-1-3 0.2-4q1-1.1 2.1-2.1c1.2-1 3-1 4.1 0.2 1 1.1 1 2.9-0.2 4q-1.1 1-2.2 2c-0.5 0.5-1.2 0.8-1.9 0.8zm-809.1-4.7q-0.6 0-1.2-0.2l-2.7-1.4c-1.4-0.6-2-2.3-1.3-3.8 0.7-1.4 2.4-2 3.8-1.3l2.7 1.3c1.4 0.7 2 2.4 1.3 3.8-0.5 1-1.5 1.6-2.6 1.6zm817.8-3.6c-0.8 0-1.5-0.2-2.1-0.8-1.1-1.1-1-2.9 0.1-4q1.1-1.1 2.1-2.1c1.1-1.1 2.9-1.1 4 0 1.1 1.1 1.1 2.9 0 4q-1.1 1.1-2.1 2.1c-0.6 0.6-1.3 0.8-2 0.8zm-828.6-1.6q-0.6 0-1.2-0.3l-2.7-1.3c-1.4-0.7-2-2.4-1.3-3.8 0.7-1.4 2.4-2 3.8-1.3l2.7 1.3c1.4 0.7 2 2.4 1.3 3.8-0.5 1-1.5 1.6-2.6 1.6zm-732.4-1q0 0-0.1 0c-1.6 0-2.8-1.4-2.7-3q0.1-1.5 0.2-3c0.1-1.6 1.4-2.7 3-2.6 1.6 0.1 2.8 1.4 2.7 3q-0.1 1.5-0.2 3c-0.1 1.5-1.4 2.6-2.9 2.6zm721.7-4.3q-0.7 0-1.3-0.3l-2.7-1.3c-1.4-0.7-2-2.4-1.3-3.8 0.7-1.4 2.4-2 3.8-1.3l2.7 1.3c1.4 0.7 2 2.4 1.3 3.8-0.5 1-1.5 1.6-2.5 1.6zm847.7-1.6c-0.7 0-1.4-0.2-2-0.7-1.1-1.1-1.1-2.9 0-4.1q1-1 2-2.1c1.1-1.2 2.9-1.2 4.1-0.1 1.1 1.1 1.1 2.9 0.1 4q-1.1 1.1-2.1 2.2c-0.6 0.6-1.3 0.8-2.1 0.8zm-858.5-3.7q-0.6 0-1.3-0.3l-2.6-1.4c-1.4-0.7-2-2.4-1.3-3.8 0.7-1.4 2.4-1.9 3.8-1.2l2.7 1.3c1.4 0.7 2 2.4 1.3 3.8-0.5 1-1.5 1.6-2.6 1.6zm-709.9-2.3q-0.1 0-0.3 0c-1.6-0.2-2.7-1.6-2.5-3.2q0.1-1.5 0.3-3c0.2-1.5 1.6-2.7 3.2-2.5 1.6 0.2 2.7 1.6 2.5 3.2q-0.2 1.5-0.4 2.9c-0.1 1.5-1.4 2.6-2.8 2.6zm1576.6-2.7c-0.7 0-1.4-0.2-1.9-0.7-1.2-1.1-1.3-2.9-0.2-4.1q1-1.1 2-2.2c1-1.1 2.8-1.2 4-0.2 1.2 1 1.3 2.8 0.2 4q-1 1.1-2 2.3c-0.6 0.6-1.3 0.9-2.1 0.9zm-877.4-0.4q-0.7 0-1.3-0.3l-2.7-1.3c-1.4-0.7-2-2.4-1.3-3.8 0.8-1.4 2.5-2 3.9-1.3l2.6 1.3c1.5 0.7 2 2.4 1.3 3.9-0.5 1-1.5 1.5-2.5 1.5zm-10.8-5.4q-0.6 0-1.2-0.3l-2.7-1.3c-1.4-0.7-2-2.4-1.3-3.8 0.7-1.4 2.4-2 3.9-1.3l2.6 1.4c1.4 0.7 2 2.4 1.3 3.8-0.5 1-1.5 1.5-2.6 1.5zm896.1-3.2c-0.7 0-1.3-0.2-1.8-0.7-1.2-1-1.4-2.8-0.4-4q1-1.1 1.9-2.3c1.1-1.2 2.8-1.3 4.1-0.3 1.2 1 1.3 2.8 0.3 4q-1 1.1-1.9 2.3c-0.6 0.7-1.4 1-2.2 1zm-1582.9-0.2q-0.2 0-0.4 0c-1.6-0.3-2.6-1.8-2.4-3.3q0.3-1.5 0.5-3c0.3-1.6 1.8-2.6 3.3-2.3 1.6 0.3 2.6 1.7 2.3 3.3q-0.2 1.4-0.5 2.9c-0.2 1.4-1.4 2.4-2.8 2.4zm676.1-2q-0.6 0-1.2-0.3l-2.7-1.3c-1.4-0.7-2-2.5-1.3-3.9 0.7-1.4 2.4-1.9 3.8-1.2l2.7 1.3c1.4 0.8 2 2.5 1.3 3.9-0.5 1-1.5 1.5-2.6 1.5zm-10.7-5.4q-0.6 0-1.3-0.3l-2.6-1.4c-1.4-0.7-2-2.4-1.3-3.8 0.7-1.4 2.5-2 3.9-1.2l2.6 1.3c1.4 0.7 2 2.4 1.3 3.8-0.5 1-1.5 1.6-2.6 1.6zm925.1-1.7c-0.6 0-1.2-0.2-1.8-0.6-1.2-1-1.4-2.8-0.4-4q0.8-0.9 1.5-1.9l0.3-0.4 4.5 3.5-0.3 0.4q-0.8 1-1.6 2c-0.5 0.7-1.3 1-2.2 1zm-1588.2-2.7q-0.3 0-0.6-0.1c-1.6-0.3-2.5-1.8-2.2-3.3q0.3-1.5 0.7-3c0.3-1.5 1.8-2.5 3.4-2.1 1.5 0.3 2.5 1.8 2.1 3.4q-0.3 1.4-0.6 2.9c-0.3 1.3-1.5 2.2-2.8 2.2zm652.4-1q-0.6 0-1.2-0.4l-2.7-1.3c-1.4-0.7-2-2.5-1.3-3.9 0.8-1.3 2.5-1.9 3.9-1.2l2.6 1.4c1.4 0.7 2 2.4 1.3 3.8-0.5 1-1.5 1.6-2.6 1.6zm-10.6-5.5q-0.7 0-1.3-0.3l-2.7-1.4c-1.4-0.7-2-2.4-1.2-3.8 0.7-1.4 2.4-2 3.8-1.3l2.7 1.4c1.4 0.7 1.9 2.4 1.2 3.8-0.5 1-1.5 1.6-2.5 1.6zm953.7-0.3c-0.6 0-1.2-0.2-1.7-0.6-1.2-0.9-1.5-2.7-0.6-3.9q0.9-1.2 1.7-2.5c1-1.2 2.7-1.5 4-0.6 1.3 0.9 1.6 2.7 0.7 4q-0.9 1.2-1.8 2.4c-0.6 0.8-1.4 1.2-2.3 1.2zm-1592.7-4.8q-0.3 0-0.7-0.1c-1.5-0.5-2.4-2-2-3.5q0.4-1.5 0.8-3c0.4-1.5 2-2.3 3.5-1.9 1.5 0.4 2.4 2 2 3.5q-0.4 1.4-0.8 2.9c-0.4 1.2-1.5 2.1-2.8 2.1zm628.3-0.4q-0.7 0-1.3-0.3l-2.7-1.4c-1.4-0.7-1.9-2.4-1.2-3.8 0.7-1.4 2.4-1.9 3.8-1.2l2.7 1.3c1.4 0.8 1.9 2.5 1.2 3.9-0.5 1-1.5 1.5-2.5 1.5zm971.3-4.6c-0.5 0-1.1-0.2-1.6-0.5-1.3-0.9-1.6-2.7-0.7-4q0.8-1.2 1.6-2.5c0.9-1.3 2.7-1.6 4-0.7 1.3 0.8 1.6 2.6 0.8 3.9q-0.9 1.3-1.7 2.5c-0.6 0.8-1.5 1.3-2.4 1.3zm-982-0.9q-0.7 0-1.3-0.3l-2.7-1.3c-1.4-0.8-1.9-2.5-1.2-3.9 0.7-1.4 2.4-1.9 3.8-1.2l2.7 1.4c1.4 0.7 2 2.4 1.2 3.8-0.5 1-1.5 1.5-2.5 1.5zm-10.7-5.4q-0.6 0-1.3-0.4l-2.6-1.3c-1.4-0.7-2-2.5-1.3-3.9 0.7-1.4 2.5-1.9 3.9-1.2l2.6 1.4c1.4 0.7 2 2.4 1.3 3.8-0.5 1-1.5 1.6-2.6 1.6zm-603.4-0.2q-0.4 0-0.9-0.2c-1.5-0.5-2.3-2.1-1.8-3.6q0.5-1.4 1-2.8c0.5-1.5 2.1-2.3 3.6-1.8 1.5 0.5 2.3 2.1 1.7 3.6q-0.4 1.4-0.9 2.8c-0.4 1.2-1.5 2-2.7 2zm1602.7-3.6q-0.8 0-1.5-0.4c-1.3-0.9-1.7-2.6-0.9-4q0.8-1.2 1.6-2.5c0.8-1.3 2.6-1.7 3.9-0.9 1.4 0.9 1.8 2.6 0.9 3.9q-0.8 1.3-1.6 2.6c-0.5 0.9-1.5 1.3-2.4 1.3zm-1010-1.7q-0.6 0-1.2-0.3l-2.7-1.4c-1.4-0.7-2-2.4-1.3-3.8 0.8-1.4 2.5-2 3.9-1.3l2.7 1.4c1.3 0.7 1.9 2.4 1.2 3.8-0.5 1-1.5 1.6-2.6 1.6zm-10.6-5.5q-0.7 0-1.3-0.3l-2.7-1.4c-1.4-0.7-1.9-2.4-1.2-3.8 0.7-1.4 2.4-2 3.8-1.2l2.7 1.3c1.4 0.7 1.9 2.5 1.2 3.9-0.5 0.9-1.5 1.5-2.5 1.5zm-578-0.5q-0.6 0-1.1-0.2c-1.4-0.6-2.2-2.2-1.6-3.7q0.6-1.4 1.1-2.8c0.6-1.5 2.3-2.2 3.7-1.6 1.5 0.6 2.2 2.2 1.6 3.7q-0.6 1.4-1.1 2.8c-0.4 1.1-1.5 1.8-2.6 1.8zm1604.9-2.5q-0.7 0-1.4-0.4c-1.4-0.8-1.8-2.6-1-3.9q0.7-1.3 1.5-2.6c0.8-1.3 2.5-1.8 3.9-1 1.4 0.8 1.8 2.6 1 3.9q-0.8 1.3-1.5 2.6c-0.6 0.9-1.5 1.4-2.5 1.4zm-1037.6-2.5q-0.7 0-1.3-0.3l-2.7-1.3c-1.4-0.7-1.9-2.5-1.2-3.9 0.7-1.4 2.4-1.9 3.8-1.2l2.7 1.4c1.4 0.7 1.9 2.4 1.2 3.8-0.5 1-1.5 1.5-2.5 1.5zm-10.7-5.4q-0.7 0-1.3-0.3l-2.7-1.4c-1.4-0.7-1.9-2.4-1.2-3.8 0.7-1.4 2.4-2 3.8-1.3l2.7 1.4c1.4 0.7 2 2.4 1.2 3.8-0.5 1-1.5 1.6-2.5 1.6zm-552-0.7q-0.6 0-1.2-0.2c-1.4-0.7-2-2.4-1.4-3.8q0.6-1.4 1.3-2.8c0.6-1.4 2.3-2 3.7-1.3 1.5 0.6 2.1 2.3 1.4 3.7q-0.6 1.4-1.2 2.7c-0.5 1.1-1.5 1.7-2.6 1.7zm1606.4-1.8q-0.8 0-1.4-0.3c-1.4-0.8-1.9-2.6-1.1-3.9q0.7-1.3 1.4-2.6c0.8-1.4 2.5-1.9 3.9-1.1 1.4 0.7 1.9 2.5 1.1 3.8q-0.7 1.4-1.5 2.7c-0.5 0.9-1.5 1.4-2.4 1.4zm-1065.1-2.9q-0.7 0-1.3-0.4l-2.7-1.3c-1.4-0.7-1.9-2.4-1.2-3.8 0.7-1.4 2.4-2 3.8-1.3l2.7 1.4c1.4 0.7 2 2.4 1.2 3.8-0.5 1-1.5 1.6-2.5 1.6zm-10.7-5.5q-0.7 0-1.3-0.3l-2.7-1.3c-1.4-0.7-1.9-2.4-1.2-3.8 0.7-1.4 2.4-2 3.8-1.3l2.7 1.3c1.4 0.8 1.9 2.5 1.2 3.9-0.5 1-1.5 1.5-2.5 1.5zm-525.4-0.6q-0.7 0-1.3-0.3c-1.4-0.7-1.9-2.5-1.2-3.9q0.7-1.3 1.4-2.6c0.7-1.4 2.5-2 3.8-1.2 1.4 0.7 2 2.4 1.2 3.8q-0.7 1.3-1.4 2.7c-0.5 0.9-1.5 1.5-2.5 1.5zm1606.9-1.5q-0.7 0-1.3-0.4c-1.4-0.7-2-2.4-1.2-3.8q0.7-1.3 1.4-2.6c0.7-1.4 2.4-2 3.8-1.3 1.4 0.8 1.9 2.5 1.2 3.9q-0.7 1.3-1.4 2.6c-0.5 1-1.5 1.6-2.5 1.6zm-1092.2-3.3q-0.7 0-1.3-0.3l-2.7-1.3c-1.4-0.7-2-2.4-1.3-3.8 0.8-1.4 2.5-2 3.9-1.3l2.7 1.4c1.4 0.7 1.9 2.4 1.2 3.8-0.5 1-1.5 1.5-2.5 1.5zm-10.8-5.3q-0.6 0-1.2-0.3l-2.7-1.4c-1.4-0.7-2-2.4-1.3-3.8 0.7-1.4 2.4-2 3.8-1.3l2.7 1.4c1.4 0.7 2 2.4 1.3 3.8-0.5 1-1.5 1.6-2.6 1.6zm-498.1-0.4q-0.8 0-1.4-0.4c-1.4-0.8-1.9-2.6-1.1-3.9q0.8-1.3 1.6-2.6c0.8-1.4 2.6-1.8 3.9-1 1.3 0.8 1.8 2.6 1 3.9q-0.8 1.3-1.5 2.6c-0.6 0.9-1.5 1.4-2.5 1.4zm1606.5-1.7q-0.6 0-1.2-0.3c-1.4-0.7-2-2.4-1.3-3.8q0.6-1.4 1.3-2.7c0.6-1.4 2.3-2 3.8-1.4 1.4 0.7 2 2.4 1.3 3.8q-0.7 1.4-1.3 2.8c-0.5 1-1.5 1.6-2.6 1.6zm-1119.1-3.3q-0.6 0-1.3-0.3l-2.7-1.3c-1.4-0.7-1.9-2.4-1.2-3.8 0.6-1.4 2.4-2 3.8-1.3l2.7 1.3c1.4 0.7 1.9 2.4 1.2 3.9-0.4 1-1.5 1.5-2.5 1.5zm-481.1-5.2c-0.5 0-1-0.2-1.5-0.5-1.3-0.9-1.7-2.6-0.8-3.9q0.8-1.3 1.7-2.6c0.8-1.3 2.6-1.6 3.9-0.7 1.3 0.9 1.6 2.6 0.8 3.9q-0.9 1.3-1.7 2.5c-0.5 0.8-1.4 1.3-2.4 1.3zm470.3-0.1q-0.6 0-1.2-0.2l-2.7-1.4c-1.4-0.7-2-2.4-1.3-3.8 0.7-1.4 2.4-2 3.8-1.3l2.7 1.3c1.4 0.7 2 2.4 1.3 3.9-0.5 1-1.5 1.5-2.6 1.5zm1135-2.3q-0.6 0-1.1-0.3c-1.5-0.6-2.1-2.3-1.5-3.7q0.6-1.4 1.2-2.7c0.7-1.5 2.4-2.1 3.8-1.5 1.4 0.6 2.1 2.3 1.5 3.7q-0.7 1.4-1.3 2.8c-0.5 1.1-1.5 1.7-2.6 1.7zm-1145.8-2.9q-0.6 0-1.2-0.3l-2.7-1.3c-1.4-0.7-2-2.4-1.3-3.8 0.7-1.4 2.4-2 3.8-1.3l2.7 1.3c1.4 0.7 2 2.4 1.3 3.8-0.5 1-1.5 1.6-2.6 1.6zm-452.6-4.5c-0.6 0-1.2-0.2-1.7-0.6-1.2-0.9-1.5-2.7-0.6-4q0.9-1.2 1.9-2.4c0.9-1.3 2.7-1.5 4-0.6 1.2 1 1.4 2.8 0.5 4q-0.9 1.2-1.8 2.4c-0.6 0.8-1.4 1.2-2.3 1.2zm441.8-0.7q-0.6 0-1.2-0.3l-2.7-1.3c-1.4-0.7-2-2.4-1.3-3.8 0.6-1.4 2.3-2 3.8-1.3l2.7 1.3c1.4 0.6 2 2.3 1.3 3.8-0.5 1-1.5 1.6-2.6 1.6zm1161.4-2.9q-0.6 0-1.1-0.2c-1.5-0.6-2.2-2.3-1.6-3.8q0.6-1.3 1.1-2.7c0.6-1.5 2.3-2.2 3.7-1.6 1.5 0.6 2.2 2.2 1.6 3.7q-0.5 1.4-1.1 2.8c-0.5 1.1-1.5 1.8-2.6 1.8zm-1172.2-2.3q-0.6 0-1.2-0.3l-2.7-1.3c-1.4-0.6-2-2.3-1.4-3.8 0.7-1.4 2.4-2 3.8-1.3l2.7 1.3c1.5 0.7 2.1 2.4 1.4 3.8-0.5 1-1.5 1.6-2.6 1.6zm-423.6-3.6c-0.6 0-1.2-0.2-1.8-0.6-1.2-1-1.3-2.8-0.3-4q0.9-1.2 1.9-2.4c1-1.2 2.8-1.3 4-0.3 1.2 1 1.4 2.8 0.3 4q-0.9 1.2-1.9 2.3c-0.5 0.7-1.3 1-2.2 1zm412.8-1.5q-0.7 0-1.3-0.3l-2.7-1.3c-1.4-0.6-2-2.3-1.3-3.7 0.6-1.5 2.3-2.1 3.7-1.4l2.8 1.3c1.4 0.6 2 2.3 1.3 3.7-0.5 1.1-1.5 1.7-2.5 1.7zm1187.3-3.8q-0.5 0-1-0.2c-1.5-0.5-2.2-2.2-1.7-3.7q0.5-1.4 1-2.8c0.5-1.4 2.2-2.2 3.6-1.7 1.5 0.5 2.3 2.2 1.8 3.6q-0.5 1.5-1 2.9c-0.5 1.1-1.6 1.9-2.7 1.9zm-1198.2-1.3q-0.6 0-1.2-0.3l-2.7-1.2c-1.5-0.7-2.1-2.4-1.4-3.8 0.6-1.4 2.3-2 3.7-1.4l2.8 1.3c1.4 0.6 2 2.3 1.4 3.8-0.5 1-1.5 1.6-2.6 1.6zm-393.9-2.4c-0.7 0-1.4-0.2-1.9-0.7-1.2-1.1-1.3-2.9-0.2-4.1q1.1-1.1 2.1-2.2c1.1-1.1 2.9-1.1 4 0 1.2 1.1 1.2 2.9 0.1 4q-1 1-2 2.1c-0.6 0.6-1.3 0.9-2.1 0.9zm383-2.6q-0.6 0-1.2-0.3l-2.7-1.2c-1.5-0.6-2.1-2.3-1.4-3.8 0.6-1.4 2.3-2 3.7-1.4l2.8 1.3c1.4 0.6 2 2.3 1.4 3.7-0.5 1.1-1.5 1.7-2.6 1.7zm-11-4.9q-0.6 0-1.1-0.3l-2.8-1.2c-1.4-0.7-2-2.3-1.4-3.8 0.6-1.4 2.3-2.1 3.8-1.4l2.7 1.2c1.4 0.7 2.1 2.3 1.4 3.8-0.4 1-1.5 1.7-2.6 1.7zm1223.9-0.2q-0.4 0-0.8-0.1c-1.5-0.5-2.3-2.1-1.9-3.6q0.5-1.4 0.9-2.9c0.5-1.5 2.1-2.3 3.6-1.9 1.5 0.5 2.3 2.1 1.9 3.6q-0.5 1.4-0.9 2.9c-0.4 1.2-1.5 2-2.8 2zm-1587.4-0.8c-0.8 0-1.6-0.3-2.1-0.9-1.1-1.1-1-2.9 0.1-4q1.1-1 2.2-2.1c1.2-1 3-1 4 0.2 1.1 1.2 1 3-0.1 4q-1.1 1-2.2 2c-0.5 0.6-1.2 0.8-1.9 0.8zm352.6-3.9q-0.6 0-1.2-0.3l-2.7-1.2c-1.5-0.6-2.1-2.3-1.5-3.7 0.7-1.5 2.3-2.1 3.8-1.5l2.7 1.2c1.5 0.7 2.1 2.3 1.5 3.8-0.5 1-1.5 1.7-2.6 1.7zm-343.7-4.1c-0.8 0-1.6-0.3-2.2-1-1-1.2-0.8-3 0.4-4q1.1-1 2.3-1.9c1.2-1 3-0.8 4 0.4 1 1.2 0.8 3-0.4 4q-1.1 0.9-2.3 1.9c-0.5 0.4-1.2 0.6-1.8 0.6zm332.7-0.7q-0.6 0-1.2-0.3l-2.7-1.1c-1.4-0.7-2.1-2.3-1.5-3.8 0.6-1.4 2.3-2.1 3.7-1.5l2.8 1.2c1.4 0.6 2.1 2.3 1.5 3.8-0.5 1-1.5 1.7-2.6 1.7zm1249.2-2.1q-0.4 0-0.7 0c-1.6-0.4-2.5-2-2.1-3.5q0.4-1.5 0.8-2.9c0.3-1.5 1.9-2.4 3.4-2.1 1.5 0.4 2.5 2 2.1 3.5q-0.4 1.5-0.8 2.9c-0.3 1.3-1.5 2.1-2.7 2.1zm-1260.3-2.6q-0.5 0-1.1-0.2l-2.7-1.2c-1.5-0.6-2.2-2.3-1.6-3.7 0.6-1.5 2.3-2.2 3.8-1.5l2.7 1.1c1.5 0.6 2.2 2.3 1.6 3.7-0.5 1.1-1.6 1.8-2.7 1.8zm-312.2-2c-0.8 0-1.7-0.4-2.3-1.1-0.9-1.3-0.6-3.1 0.6-4q1.3-0.9 2.5-1.8c1.3-0.9 3-0.6 4 0.6 0.9 1.3 0.6 3.1-0.7 4q-1.2 0.9-2.4 1.8c-0.5 0.3-1.1 0.5-1.7 0.5zm301.1-2.6q-0.5 0-1-0.2l-2.8-1.1c-1.5-0.6-2.2-2.3-1.6-3.7 0.6-1.5 2.3-2.2 3.7-1.6l2.8 1.1c1.5 0.6 2.2 2.3 1.6 3.7-0.5 1.1-1.5 1.8-2.7 1.8zm-291.2-4.2c-1 0-1.9-0.5-2.4-1.3-0.9-1.3-0.5-3.1 0.8-3.9q1.3-0.9 2.6-1.7c1.3-0.8 3.1-0.4 3.9 0.9 0.9 1.4 0.4 3.1-0.9 4q-1.2 0.7-2.5 1.5c-0.5 0.3-1 0.5-1.5 0.5zm280.1-0.2q-0.5 0-1-0.2-1.4-0.6-2.8-1.1c-1.5-0.6-2.2-2.2-1.7-3.7 0.6-1.5 2.2-2.2 3.7-1.6q1.4 0.5 2.8 1.1c1.5 0.5 2.2 2.2 1.6 3.7-0.4 1.1-1.5 1.8-2.6 1.8zm1285.2 0q-0.3 0-0.6-0.1c-1.5-0.3-2.5-1.8-2.2-3.4q0.3-1.4 0.6-2.9c0.3-1.5 1.8-2.5 3.3-2.2 1.5 0.3 2.6 1.7 2.3 3.3q-0.3 1.5-0.6 3c-0.3 1.3-1.5 2.3-2.8 2.3zm-1296.4-4.3q-0.5 0-1-0.2-1.4-0.5-2.8-1c-1.5-0.6-2.3-2.2-1.7-3.7 0.5-1.4 2.2-2.2 3.6-1.7q1.5 0.6 2.9 1.1c1.4 0.5 2.2 2.2 1.6 3.6-0.4 1.2-1.5 1.9-2.6 1.9zm-258.6-1.7c-1 0-2-0.5-2.5-1.4-0.8-1.4-0.3-3.1 1.1-3.9q1.3-0.8 2.6-1.5c1.4-0.7 3.2-0.2 3.9 1.2 0.7 1.4 0.2 3.1-1.2 3.8q-1.3 0.7-2.6 1.5-0.6 0.3-1.3 0.3zm247.3-2.4q-0.5 0-1-0.1-1.4-0.5-2.8-1c-1.5-0.5-2.2-2.2-1.7-3.7 0.5-1.4 2.1-2.2 3.6-1.7q1.4 0.5 2.8 1c1.5 0.5 2.3 2.1 1.8 3.6-0.4 1.2-1.5 1.9-2.7 1.9zm-236.7-3.1c-1 0-2.1-0.6-2.5-1.6-0.7-1.4-0.1-3.1 1.3-3.8q1.4-0.7 2.7-1.3c1.5-0.7 3.2 0 3.8 1.4 0.7 1.4 0.1 3.1-1.4 3.8q-1.3 0.6-2.7 1.2-0.6 0.3-1.2 0.3zm1546.4-0.4q-0.2 0-0.4 0c-1.5-0.2-2.6-1.6-2.4-3.2q0.2-1.5 0.4-2.9c0.1-1.6 1.6-2.7 3.1-2.5 1.6 0.2 2.7 1.6 2.5 3.1q-0.2 1.5-0.4 3.1c-0.2 1.4-1.4 2.4-2.8 2.4zm-1321.1-0.4q-0.4 0-0.9-0.1-1.4-0.5-2.8-0.9c-1.5-0.5-2.3-2.1-1.8-3.6 0.5-1.5 2.1-2.3 3.6-1.8q1.4 0.4 2.8 0.9c1.5 0.5 2.3 2.1 1.8 3.6-0.4 1.2-1.5 1.9-2.7 1.9zm-11.4-3.6q-0.4 0-0.8-0.1-1.5-0.5-2.9-0.9c-1.5-0.4-2.3-2-1.9-3.5 0.5-1.5 2-2.4 3.5-1.9q1.5 0.4 2.9 0.8c1.5 0.5 2.4 2.1 1.9 3.6-0.4 1.2-1.5 2-2.7 2zm-202.9-0.5c-1.1 0-2.2-0.6-2.7-1.7-0.5-1.5 0.1-3.2 1.6-3.8q1.4-0.5 2.8-1.1c1.5-0.6 3.1 0.2 3.7 1.6 0.6 1.5-0.1 3.1-1.6 3.7q-1.4 0.5-2.7 1.1-0.6 0.2-1.1 0.2zm191.4-2.9q-0.4 0-0.8-0.1-1.4-0.4-2.9-0.8c-1.5-0.4-2.4-2-1.9-3.5 0.4-1.5 1.9-2.4 3.4-2q1.5 0.4 3 0.8c1.5 0.5 2.4 2 1.9 3.6-0.3 1.2-1.5 2-2.7 2zm-180.2-1.3c-1.2 0-2.3-0.8-2.7-1.9-0.5-1.5 0.3-3.1 1.8-3.6q1.4-0.5 2.9-1c1.4-0.5 3.1 0.3 3.6 1.8 0.4 1.5-0.4 3.1-1.9 3.6q-1.4 0.4-2.8 0.9-0.4 0.2-0.9 0.2zm168.6-1.8q-0.4 0-0.7 0-1.4-0.4-2.9-0.8c-1.5-0.3-2.5-1.9-2.1-3.4 0.4-1.5 1.9-2.5 3.5-2.1q1.4 0.4 2.9 0.7c1.5 0.4 2.4 2 2.1 3.5-0.4 1.3-1.5 2.1-2.8 2.1zm1356.8-1.4q-0.1 0-0.2 0c-1.5-0.1-2.7-1.5-2.7-3q0.1-1.5 0.2-3c0-1.5 1.4-2.8 2.9-2.7 1.6 0.1 2.8 1.4 2.8 3q-0.1 1.5-0.2 3c-0.1 1.5-1.3 2.7-2.8 2.7zm-1514-0.4c-1.2 0-2.3-0.8-2.7-2.1-0.4-1.5 0.5-3.1 2-3.5q1.4-0.4 2.9-0.8c1.5-0.4 3.1 0.5 3.5 2 0.4 1.5-0.5 3.1-2 3.5q-1.4 0.4-2.9 0.8-0.4 0.1-0.8 0.1zm145.5-0.9q-0.3 0-0.6-0.1-1.5-0.3-2.9-0.6c-1.5-0.4-2.5-1.9-2.2-3.4 0.3-1.6 1.9-2.5 3.4-2.2q1.5 0.3 2.9 0.6c1.6 0.4 2.5 1.9 2.2 3.4-0.3 1.4-1.5 2.3-2.8 2.3zm-133.8-2.1c-1.3 0-2.5-0.9-2.8-2.2-0.4-1.6 0.6-3.1 2.1-3.4q1.5-0.4 3-0.7c1.5-0.3 3 0.6 3.4 2.2 0.3 1.5-0.7 3-2.2 3.4q-1.5 0.3-2.9 0.6-0.3 0.1-0.6 0.1zm122.1-0.4q-0.3 0-0.6 0-1.4-0.3-2.9-0.6c-1.5-0.3-2.6-1.7-2.3-3.3 0.3-1.5 1.8-2.6 3.3-2.3q1.5 0.3 3 0.6c1.6 0.3 2.6 1.8 2.3 3.3-0.3 1.4-1.5 2.3-2.8 2.3zm-110.4-2c-1.3 0-2.5-1-2.8-2.4-0.3-1.5 0.8-3 2.3-3.3q1.5-0.2 3-0.5c1.6-0.2 3 0.8 3.3 2.3 0.2 1.6-0.8 3.1-2.4 3.3q-1.4 0.3-2.9 0.5-0.2 0.1-0.5 0.1zm98.6-0.1q-0.3 0-0.5 0-1.5-0.2-2.9-0.5c-1.6-0.2-2.7-1.6-2.4-3.2 0.2-1.5 1.7-2.6 3.2-2.4q1.5 0.2 3 0.5c1.6 0.2 2.6 1.7 2.4 3.2-0.3 1.4-1.5 2.4-2.8 2.4zm-11.9-1.6q-0.2 0-0.4-0.1-1.5-0.2-2.9-0.3c-1.6-0.2-2.7-1.6-2.5-3.2 0.1-1.5 1.6-2.7 3.1-2.5q1.5 0.2 3 0.4c1.6 0.2 2.7 1.6 2.5 3.2-0.2 1.4-1.4 2.5-2.8 2.5zm-74.8-0.2c-1.4 0-2.7-1-2.8-2.4-0.3-1.6 0.8-3 2.4-3.2q1.5-0.2 3-0.4c1.6-0.2 3 0.9 3.2 2.5 0.2 1.5-1 3-2.5 3.1q-1.5 0.2-3 0.4-0.1 0-0.3 0zm62.8-1.1q-0.1 0-0.2 0-1.5-0.1-3-0.3c-1.5-0.1-2.7-1.4-2.6-3 0.1-1.6 1.5-2.8 3.1-2.6q1.5 0.1 3 0.2c1.5 0.2 2.7 1.5 2.6 3.1-0.2 1.5-1.4 2.6-2.9 2.6zm-50.9-0.2c-1.5 0-2.7-1.1-2.8-2.6-0.2-1.5 1-2.9 2.6-3q1.5-0.2 3-0.3c1.6-0.1 2.9 1.1 3 2.7 0.1 1.5-1 2.9-2.6 3q-1.5 0.1-3 0.2-0.1 0-0.2 0zm39-0.6q-0.1 0-0.2 0-1.5-0.1-2.9-0.1c-1.6-0.1-2.8-1.4-2.8-3 0.1-1.6 1.4-2.8 3-2.7q1.5 0 3 0.1c1.6 0.1 2.8 1.4 2.7 3-0.1 1.5-1.3 2.7-2.8 2.7zm-27-0.1c-1.5 0-2.8-1.2-2.9-2.7 0-1.6 1.2-2.9 2.8-3q1.5-0.1 3-0.1c1.5-0.1 2.9 1.2 2.9 2.7 0.1 1.6-1.2 2.9-2.7 3q-1.5 0-3 0.1-0.1 0-0.1 0zm15-0.3q0 0-0.1 0-1.3 0-2.6 0h-0.3c-1.6 0-2.9-1.2-2.9-2.8 0-1.6 1.3-2.9 2.9-2.9h0.3q1.3 0 2.7 0c1.6 0.1 2.8 1.3 2.8 2.9 0 1.6-1.3 2.8-2.8 2.8zm1440-2c-1.6 0-2.8-1.2-2.9-2.8q0-1.4-0.1-2.9c-0.1-1.6 1.1-2.9 2.7-3 1.5-0.1 2.9 1.1 3 2.7q0.1 1.5 0.1 3.1c0.1 1.5-1.2 2.8-2.7 2.9q-0.1 0-0.1 0zm-1-12c-1.4 0-2.6-1-2.8-2.4q-0.2-1.5-0.5-2.9c-0.2-1.6 0.8-3 2.4-3.3 1.5-0.3 3 0.8 3.3 2.4q0.2 1.5 0.4 3c0.2 1.6-0.9 3-2.4 3.2q-0.2 0-0.4 0zm-2.3-11.7c-1.3 0-2.4-0.9-2.8-2.2q-0.3-1.4-0.8-2.8c-0.4-1.5 0.5-3.1 2-3.5 1.5-0.5 3.1 0.4 3.5 1.9q0.4 1.5 0.8 3c0.4 1.5-0.5 3.1-2 3.5q-0.4 0.1-0.7 0.1zm-3.8-11.4c-1.1 0-2.2-0.7-2.6-1.8q-0.6-1.3-1.2-2.6c-0.6-1.5 0-3.2 1.4-3.8 1.5-0.7 3.1 0 3.8 1.4q0.6 1.4 1.2 2.9c0.6 1.4-0.1 3.1-1.5 3.7q-0.6 0.2-1.1 0.2zm-5.3-10.7c-1 0-2-0.5-2.5-1.4q-0.7-1.3-1.5-2.5c-0.9-1.3-0.5-3.1 0.8-3.9 1.4-0.9 3.1-0.5 4 0.8q0.8 1.3 1.6 2.7c0.8 1.3 0.4 3.1-1 3.9q-0.7 0.4-1.4 0.4zm-6.9-9.9c-0.8 0-1.7-0.3-2.2-1q-0.9-1.1-1.9-2.2c-1-1.2-0.9-3 0.3-4.1 1.2-1 3-0.9 4 0.3q1 1.2 2 2.4c1 1.2 0.8 3-0.4 4-0.5 0.4-1.2 0.6-1.8 0.6zm-8.2-8.7c-0.7 0-1.4-0.3-1.9-0.8q-1.1-1-2.2-1.9c-1.2-1.1-1.3-2.9-0.3-4 1.1-1.2 2.9-1.4 4-0.3q1.2 1 2.3 2.1c1.2 1 1.3 2.8 0.2 4-0.6 0.6-1.3 0.9-2.1 0.9zm-9.3-7.6c-0.6 0-1.1-0.2-1.6-0.5q-1.2-0.9-2.4-1.7c-1.3-0.9-1.7-2.6-0.8-4 0.9-1.3 2.6-1.6 4-0.7q1.2 0.8 2.5 1.7c1.3 1 1.5 2.7 0.6 4-0.5 0.8-1.4 1.2-2.3 1.2zm-10.1-6.4q-0.7 0-1.4-0.4-1-0.5-1.9-1.1c-1.4-0.7-2-2.4-1.2-3.8 0.7-1.4 2.5-1.9 3.8-1.2q1.1 0.6 2.1 1.1c1.4 0.8 1.9 2.5 1.1 3.9-0.5 0.9-1.5 1.5-2.5 1.5z"/>
			<g id="&lt;Group&gt;">
				<g id="&lt;Group&gt;">
					<g id="&lt;Group&gt;">
						<path id="&lt;Path&gt;" class="s1" d="m385.6 1230.3h410.9v-63h-410.9c8.8 0 8.8 63 0 63z"/>
						<path id="&lt;Path&gt;" class="s50" d="m796.5 1214.5v-28.8c0-10.2-8.1-18.4-18.1-18.4h-391.1c-7.9 0-14.3-4.9-14.3-10.9 0-1.9 2-3.4 4.4-3.4h427.4c9.8 0 25.4 11.8 25.4 26.4v40.3c0 13.7-15.1 24.9-24.4 24.9h-426.2c-3.6 0-6.6-2.3-6.6-5.1 0-5.1 5.4-9.2 12-9.2h396c8.6 0 15.5-7 15.5-15.8z"/>
					</g>
					<path id="&lt;Path&gt;" class="s51" d="m785.2 1181.7h-385.4c-0.8 0-1.5-0.7-1.5-1.5 0-0.8 0.7-1.5 1.5-1.5h385.4c0.8 0 1.5 0.7 1.5 1.5 0 0.8-0.7 1.5-1.5 1.5z"/>
					<path id="&lt;Path&gt;" class="s52" d="m785.2 1191.1h-385.4c-0.8 0-1.5-0.7-1.5-1.5 0-0.9 0.7-1.5 1.5-1.5h385.4c0.8 0 1.5 0.6 1.5 1.5 0 0.8-0.7 1.5-1.5 1.5z"/>
					<path id="&lt;Path&gt;" class="s53" d="m785.2 1200.4h-385.4c-0.8 0-1.5-0.6-1.5-1.5 0-0.8 0.7-1.5 1.5-1.5h385.4c0.8 0 1.5 0.7 1.5 1.5 0 0.9-0.7 1.5-1.5 1.5z"/>
					<path id="&lt;Path&gt;" class="s54" d="m785.2 1209.8h-385.4c-0.8 0-1.5-0.7-1.5-1.5 0-0.8 0.7-1.5 1.5-1.5h385.4c0.8 0 1.5 0.7 1.5 1.5 0 0.8-0.7 1.5-1.5 1.5z"/>
					<path id="&lt;Path&gt;" class="s55" d="m785.2 1219.1h-385.4c-0.8 0-1.5-0.6-1.5-1.5 0-0.8 0.7-1.5 1.5-1.5h385.4c0.8 0 1.5 0.7 1.5 1.5 0 0.9-0.7 1.5-1.5 1.5z"/>
				</g>
				<g id="&lt;Group&gt;">
					<path id="&lt;Path&gt;" class="s4" d="m828.1 1489.9h-612.3c-11.1 0-20.1-9-20.1-20.1v-83.1c0-11.1 9-20.1 20.1-20.1h612.3c11.1 0 20.1 9 20.1 20.1v83.1c0 11.1-9 20.1-20.1 20.1z"/>
					<path id="&lt;Path&gt;" class="s1" d="m338.9 1475.7h-62.2c-4 0-7.2-3.2-7.2-7.2v-80.5c0-4 3.2-7.2 7.2-7.2h62.2c4 0 7.2 3.2 7.2 7.2v80.5c0 4-3.2 7.2-7.2 7.2z"/>
				</g>
				<g id="&lt;Group&gt;">
					<path id="&lt;Path&gt;" class="s1" d="m837.1 1251.4v21.3c0 3.6-2.1 7.1-5.8 9.4l-3.7 2.4c-3 1.9-2.4 5.5 1.2 6.8 2.4 0.9 2.8 3.2 0.8 4.5l-4.6 3.1c-3 2-3 5.5 0 7.5l3.3 2.2c2.9 1.9 2.8 5.3-0.1 7.1l-3.6 2.2c-2.5 1.5-2.9 4.2-0.9 6.1l1.9 2c1.4 1.3 2.2 3 2.2 4.7v33.6h-481.1v-114.9z"/>
					<path id="&lt;Path&gt;" class="s2" d="m363.3 1276h456.9c1 0 1.8-0.6 1.8-1.3 0-0.8-0.8-1.4-1.8-1.4h-456.9c-1 0-1.8 0.6-1.8 1.4 0 0.7 0.8 1.3 1.8 1.3z"/>
					<path id="&lt;Path&gt;" class="s2" d="m363.3 1296h446.1c1 0 1.8-0.6 1.8-1.3 0-0.8-0.8-1.4-1.8-1.4h-446.1c-1 0-1.8 0.6-1.8 1.4 0 0.7 0.8 1.3 1.8 1.3z"/>
					<path id="&lt;Path&gt;" class="s2" d="m363.3 1310.7h440.5c1 0 1.9-0.6 1.9-1.3 0-0.8-0.9-1.4-1.9-1.4h-440.5c-1 0-1.8 0.6-1.8 1.4 0 0.7 0.8 1.3 1.8 1.3z"/>
					<path id="&lt;Path&gt;" class="s56" d="m337.9 1242.1h509.7c3.9 0 7.3 2.1 7.7 5 0.4 3.3-3 6.1-7.4 6.1h-472.6c-8.3 0-15.4 4.3-17.2 10.4-7.7 27.1-7.1 55.4 0.2 84.5 1.7 6.8 9.6 11.7 18.8 11.7h461.2c3.8 0 7.3 2.1 7.7 5 0.4 3.3-3.1 6.1-7.4 6.1h-497.3c-11.9 0-22.1-6.3-24.2-15.1-8.6-35.3-9.4-69.3-0.1-101.4 2.1-7.2 10.8-12.3 20.6-12.3z"/>
				</g>
			</g>
			<g id="&lt;Group&gt;">
				<g id="&lt;Group&gt;">
				</g>
				<g id="&lt;Group&gt;">
					<g id="&lt;Group&gt;">
					</g>
				</g>
				<g id="&lt;Group&gt;">
				</g>
			</g>
			<g id="&lt;Group&gt;">
				<g id="&lt;Group&gt;">
					<path id="&lt;Path&gt;" class="s57" d="m680.3 1311c-3.7 5.4-18.2 128-20.5 173.3-0.2 3 2.3 5.6 5.3 5.6 2.7 0 4.9-1.9 5.3-4.5l26.7-170.5z"/>
					<path id="&lt;Path&gt;" class="s58" d="m797.2 1311c3.7 5.4 18.2 128 20.5 173.3 0.2 3-2.3 5.6-5.4 5.6-2.6 0-4.9-1.9-5.3-4.5l-26.6-170.5z"/>
					<path id="&lt;Path&gt;" class="s59" d="m658.3 1301.4l-0.1 1.3c0 9.6 8.2 17.5 18.6 17.7l123 2.1c10.2 0.2 18.8-7.2 19.3-16.7v-1.2c0.5-9.9-7.9-18.2-18.5-18.4l-123.1-2.2c-10.5-0.2-19.2 7.6-19.2 17.4z"/>
				</g>
				<g id="&lt;Group&gt;">
					<g id="&lt;Group&gt;">
						<path id="&lt;Path&gt;" class="s60" d="m897.5 1479.8c-21.9 0-31.5-1.8-35.9-3.6 0.9 3.6 4.1 6.5 8.1 6.5h77.4c2.6 0 4.2-2.5 3.6-4.8-8.8 0.7-27.5 1.9-53.2 1.9z"/>
						<path id="&lt;Path&gt;" class="s61" d="m950.7 1477.9c-0.1-0.4-0.3-0.9-0.6-1.3-5.9-7.5-17.8-19.3-33.9-19.1-23.5 0.3-31.8 2.9-50.1 0.1l-4.3 14.4c-0.5 1.4-0.5 2.9-0.2 4.2 4.4 1.8 14 3.6 35.9 3.6 25.7 0 44.4-1.2 53.2-1.9z"/>
					</g>
					<path id="&lt;Path&gt;" class="s62" d="m871.4 1442.2l-5.3 18c0 0 11.8 5.4 22.1 1.1l2-15.6z"/>
					<g id="&lt;Group&gt;">
						<path id="&lt;Path&gt;" class="s63" d="m1031.7 1468.5c-17 13.7-25.7 18.3-30.2 19.6 2.9 2.3 7.2 2.5 10.3 0l60.3-48.5c2-1.6 1.8-4.6-0.1-5.9-6.5 6-20.3 18.7-40.3 34.8z"/>
						<path id="&lt;Path&gt;" class="s64" d="m1072 1433.7c-0.4-0.3-0.8-0.5-1.3-0.7-9.3-2.1-25.9-3.9-38.3 6.4-18.2 15-23 22.2-39 31.5l5.6 13.8c0.5 1.5 1.4 2.6 2.5 3.4 4.5-1.3 13.2-5.9 30.2-19.6 20-16.1 33.8-28.8 40.3-34.8z"/>
					</g>
					<path id="&lt;Path&gt;" class="s65" d="m757.9 1236.6c0 0 130.9 10.6 157.7 23.3 26.9 12.6-21.9 189.8-21.9 189.8 0 0-7.3 3.5-23.6-1.6 0 0 16.7-130.7 4.3-159l-141.7-23.2z"/>
					<path id="&lt;Path&gt;" class="s66" d="m980.4 1446c1.2 1.1 13 24.9 13 24.9 0 0 13.1-2.8 15.8-11.1l-11.8-21.5z"/>
					<path id="&lt;Path&gt;" class="s67" d="m679.1 1235.5c0 0-4.3 10.2-4.1 23.9 0.2 18.8 15.4 34.1 34.2 35.1l154.7 7c3.3 0.2 6.1 2.4 6.9 5.6 3.6 14.1 21.4 57.3 108.3 143.4 2.3 2.3 5.9 2.7 8.6 1l12.4-7.8c1.3-0.9 1.7-2.6 0.9-3.9l-90.1-153.8c-4.7-7.8-12.3-13.5-21.1-15.7l-131.9-33.7z"/>
					<path id="&lt;Path&gt;" class="s68" d="m831.5 995.1c0 0-16.5 29.4-33.4 43.5l34.9 19.5c0 0 7.9-31 25.8-40.1z"/>
					<path id="&lt;Path&gt;" class="s69" d="m676.2 1236.6c0 0 41.8 10.1 81.7 0 0 0 55.8-75 77.4-95.5 0 0 34.4 54.4 111 62.1l4.3-9.6c0 0-61-28.1-79.8-71.3-18.8-43.2-26.3-61.7-43.4-72.9-10.7-7-17-11.8-20.3-14.5-1.8-1.4-4.3-1.6-6.3-0.4-18.1 11.1-103.4 69.5-124.6 202.1z"/>
					<path id="&lt;Path&gt;" class="s70" d="m833 1139.7c-0.7 0-1.3-0.4-1.8-0.9-13.3-17.3-20.6-36.4-20.9-37.2-0.5-1.1 0.1-2.4 1.2-2.9 1.2-0.4 2.5 0.2 2.9 1.3 0.1 0.2 7.5 19.3 20.4 36 0.7 1 0.5 2.4-0.4 3.2-0.5 0.3-0.9 0.5-1.4 0.5z"/>
					<path id="&lt;Path&gt;" class="s71" d="m941.7 1188.6l8.6-2.3 26.2-6c3.2-0.8 6.5-0.2 9.2 1.5l22.5 14.2-62.1-0.1z"/>
					<g id="&lt;Group&gt;">
						<path id="&lt;Path&gt;" class="s72" d="m857.9 951.2c0 0 16.1 26.8 18.9 41.6 2.7 14.8 7.2 24-9.6 29.3-16.9 5.3-32.5-1.4-42.3-15.2 0 0-15.4-21.3-13.8-31 1.5-9.7 46.8-24.7 46.8-24.7z"/>
						<path id="&lt;Path&gt;" class="s73" d="m829.4 995.4l2.1-0.3c0 0-11.4-17.2-3.9-21.5 7.5-4.2 37.9-14.7 43.2-26.7 5-11.6-2.6-24.6-11.8-27.3-0.5-0.2-1.2 0.1-1.4 0.7l-0.5 1.5c-0.4 1-1.8 1-2.2 0-0.4-0.9-1.7-0.9-2.1 0-1.7 3.6-6.5 9.7-21.2 14.4-20.7 6.8-33.6 17.2-32.1 32 0.1 0.9-0.8 1.6-1.6 1.2-1.7-0.8-4.3-0.9-7.3 2.4-5.2 5.7-1.1 18.1 13.1 26.9 0.6 0.4 0.8 1.3 0.2 1.9-2.2 1.8-5.2 5.8 4.4 9.4 9.9 3.7 15.2 2.5 17.2 1.7 0.5-0.2 0.8-0.8 0.7-1.3l-2.5-13c-0.1-0.6 0.3-1.3 1-1.4z"/>
						<path id="&lt;Path&gt;" class="s74" d="m830.2 998.1c0 0-7.1-17.5-14.5-11.4-7.5 6.2 6.9 19.8 13.5 19.6z"/>
					</g>
				</g>
				<g id="&lt;Group&gt;">
					<g id="&lt;Group&gt;">
						<path id="&lt;Path&gt;" class="s75" d="m917.7 1208.2q0.1 0 0.3 0l132.8-0.1c3.3 0 6-2.7 6-6 0-3.3-2.7-6-6-5.9l-132.8 0.1c-3.3 0-6 2.7-6 6 0 3.1 2.5 5.7 5.7 5.9z"/>
					</g>
					<g id="&lt;Group&gt;">
						<path id="&lt;Path&gt;" class="s76" d="m1102.3 1078.1q-0.1 0.1-0.1 0.3l-55.9 120.5c-1.4 3-0.1 6.5 2.8 7.9 3 1.3 6.6 0.1 7.9-2.9l55.9-120.5c1.4-3 0.1-6.6-2.9-7.9-2.8-1.4-6.2-0.2-7.7 2.6z"/>
					</g>
				</g>
				<g id="&lt;Group&gt;">
					<path id="&lt;Path&gt;" class="s1" d="m976.8 1214.9c-0.5 2.4-56 210.3-70 263-1.6 6 2.9 12 9.1 12 4.3 0 8.1-3 9.2-7.2l61.5-249.5z"/>
					<path id="&lt;Path&gt;" class="s1" d="m1007.2 1214.9c0.6 2.4 56 210.3 70.1 263 1.6 6-2.9 12-9.2 12-4.3 0-8.1-3-9.1-7.2l-61.6-249.5z"/>
					<path id="&lt;Path&gt;" class="s1" d="m1009.5 1208.1h-34.5v27.7c0 4 3.2 7.2 7.1 7.2h4.7v62.3c0 3 2.5 5.4 5.4 5.4 3 0 5.4-2.4 5.4-5.4v-62.3h2.4c5.3 0 9.5-4.3 9.5-9.6z"/>
					<path id="&lt;Path&gt;" class="s1" d="m890.1 1201.4h192.8c2.7 0 5 1.8 5.7 4.5l2.7 10.5c0.9 3.8-1.9 7.5-5.8 7.5l-197.8-1.1c-3.8-0.1-6.6-3.7-5.7-7.5l2.4-9.4c0.6-2.6 3-4.5 5.7-4.5z"/>
				</g>
			</g>
		</g>
	</g>
</svg>