<svg version="1.2" xmlns="http://www.w3.org/2000/svg" viewBox="0 0 1200 800" width="1200" height="800">
	<title>19198663-ai</title>
	<defs>
		<linearGradient id="g1" x1="900.2" y1="784.2" x2="860.7" y2="709.5" gradientUnits="userSpaceOnUse">
			<stop offset="0" stop-color="#cb236d"/>
			<stop offset="1" stop-color="#4c246d"/>
		</linearGradient>
		<linearGradient id="g2" x1="809.6" y1="837.7" x2="745.1" y2="739.4" gradientUnits="userSpaceOnUse">
			<stop offset="0" stop-color="#cb236d"/>
			<stop offset="1" stop-color="#4c246d"/>
		</linearGradient>
		<linearGradient id="g3" x1="887.2" y1="804" x2="802.2" y2="707" gradientUnits="userSpaceOnUse">
			<stop offset="0" stop-color="#cb236d"/>
			<stop offset="1" stop-color="#4c246d"/>
		</linearGradient>
		<linearGradient id="g4" x1="972.3" y1="753.3" x2="1175.5" y2="439.4" gradientUnits="userSpaceOnUse">
			<stop offset="0" stop-color="#2b3582"/>
			<stop offset="1" stop-color="#150e42"/>
		</linearGradient>
		<linearGradient id="g5" x1="102.6" y1="110.1" x2="1082.1" y2="110.1" gradientUnits="userSpaceOnUse">
			<stop offset="0" stop-color="#b37cff"/>
			<stop offset="1" stop-color="#f895e7"/>
		</linearGradient>
		<linearGradient id="g6" x1="124.5" y1="137.3" x2="1058" y2="137.3" gradientUnits="userSpaceOnUse">
			<stop offset="0" stop-color="#b37cff"/>
			<stop offset="1" stop-color="#f895e7"/>
		</linearGradient>
		<linearGradient id="g7" x1="272.6" y1="269.8" x2="248.8" y2="375" gradientUnits="userSpaceOnUse">
			<stop offset="0" stop-color="#cb236d"/>
			<stop offset="1" stop-color="#4c246d"/>
		</linearGradient>
		<linearGradient id="g8" x1="235.3" y1="289.7" x2="223.6" y2="358.8" gradientUnits="userSpaceOnUse">
			<stop offset="0" stop-color="#cb236d"/>
			<stop offset="1" stop-color="#4c246d"/>
		</linearGradient>
		<linearGradient id="g9" x1="357.9" y1="240.5" x2="354.4" y2="353.4" gradientUnits="userSpaceOnUse">
			<stop offset="0" stop-color="#cb236d"/>
			<stop offset="1" stop-color="#4c246d"/>
		</linearGradient>
		<linearGradient id="g10" x1="238" y1="323.4" x2="201.9" y2="388.6" gradientUnits="userSpaceOnUse">
			<stop offset="0" stop-color="#cb236d"/>
			<stop offset="1" stop-color="#4c246d"/>
		</linearGradient>
		<linearGradient id="g11" x1="366.3" y1="271" x2="339.5" y2="390" gradientUnits="userSpaceOnUse">
			<stop offset="0" stop-color="#cb236d"/>
			<stop offset="1" stop-color="#4c246d"/>
		</linearGradient>
		<linearGradient id="g12" x1="352.6" y1="313.3" x2="314.9" y2="366.7" gradientUnits="userSpaceOnUse">
			<stop offset="0" stop-color="#cb236d"/>
			<stop offset="1" stop-color="#4c246d"/>
		</linearGradient>
		<linearGradient id="g13" x1="323.5" y1="321" x2="317.3" y2="348.5" gradientUnits="userSpaceOnUse">
			<stop offset="0" stop-color="#cb236d"/>
			<stop offset="1" stop-color="#4c246d"/>
		</linearGradient>
		<linearGradient id="g14" x1="272.7" y1="327.1" x2="294" y2="327.1" gradientUnits="userSpaceOnUse">
			<stop offset="0" stop-color="#cb236d"/>
			<stop offset="1" stop-color="#4c246d"/>
		</linearGradient>
		<linearGradient id="g15" x1="321.2" y1="369.9" x2="338.9" y2="291.2" gradientUnits="userSpaceOnUse">
			<stop offset="0" stop-color="#cb236d"/>
			<stop offset="1" stop-color="#4c246d"/>
		</linearGradient>
		<linearGradient id="g16" x1="346.2" y1="384" x2="362.2" y2="327.5" gradientUnits="userSpaceOnUse">
			<stop offset="0" stop-color="#cb236d"/>
			<stop offset="1" stop-color="#4c246d"/>
		</linearGradient>
		<linearGradient id="g17" x1="248.5" y1="325.9" x2="286.1" y2="239.9" gradientUnits="userSpaceOnUse">
			<stop offset="0" stop-color="#cb236d"/>
			<stop offset="1" stop-color="#4c246d"/>
		</linearGradient>
		<linearGradient id="g18" x1="356.3" y1="406.5" x2="354.7" y2="380" gradientUnits="userSpaceOnUse">
			<stop offset="0" stop-color="#cb236d"/>
			<stop offset="1" stop-color="#4c246d"/>
		</linearGradient>
		<linearGradient id="g19" x1="251.1" y1="353.2" x2="271.2" y2="264.2" gradientUnits="userSpaceOnUse">
			<stop offset="0" stop-color="#cb236d"/>
			<stop offset="1" stop-color="#4c246d"/>
		</linearGradient>
		<linearGradient id="g20" x1="265.6" y1="393.5" x2="259.1" y2="355.5" gradientUnits="userSpaceOnUse">
			<stop offset="0" stop-color="#cb236d"/>
			<stop offset="1" stop-color="#4c246d"/>
		</linearGradient>
		<linearGradient id="g21" x1="283.1" y1="399.6" x2="287.8" y2="379" gradientUnits="userSpaceOnUse">
			<stop offset="0" stop-color="#cb236d"/>
			<stop offset="1" stop-color="#4c246d"/>
		</linearGradient>
		<linearGradient id="g22" x1="305.2" y1="398" x2="321.1" y2="398" gradientUnits="userSpaceOnUse">
			<stop offset="0" stop-color="#cb236d"/>
			<stop offset="1" stop-color="#4c246d"/>
		</linearGradient>
		<linearGradient id="g23" x1="232.6" y1="402.8" x2="231.2" y2="450.4" gradientUnits="userSpaceOnUse">
			<stop offset="0" stop-color="#cb236d"/>
			<stop offset="1" stop-color="#4c246d"/>
		</linearGradient>
		<linearGradient id="g24" x1="217.1" y1="419" x2="217.8" y2="445.4" gradientUnits="userSpaceOnUse">
			<stop offset="0" stop-color="#cb236d"/>
			<stop offset="1" stop-color="#4c246d"/>
		</linearGradient>
		<linearGradient id="g25" x1="270.2" y1="375" x2="281.5" y2="444.6" gradientUnits="userSpaceOnUse">
			<stop offset="0" stop-color="#cb236d"/>
			<stop offset="1" stop-color="#4c246d"/>
		</linearGradient>
		<linearGradient id="g26" x1="226.6" y1="439.2" x2="219.9" y2="459.9" gradientUnits="userSpaceOnUse">
			<stop offset="0" stop-color="#cb236d"/>
			<stop offset="1" stop-color="#4c246d"/>
		</linearGradient>
		<linearGradient id="g27" x1="296.8" y1="385.8" x2="294.6" y2="459.7" gradientUnits="userSpaceOnUse">
			<stop offset="0" stop-color="#cb236d"/>
			<stop offset="1" stop-color="#4c246d"/>
		</linearGradient>
		<linearGradient id="g28" x1="300.9" y1="423.3" x2="283.7" y2="461.6" gradientUnits="userSpaceOnUse">
			<stop offset="0" stop-color="#cb236d"/>
			<stop offset="1" stop-color="#4c246d"/>
		</linearGradient>
		<linearGradient id="g29" x1="276.1" y1="429.3" x2="275.6" y2="446.2" gradientUnits="userSpaceOnUse">
			<stop offset="0" stop-color="#cb236d"/>
			<stop offset="1" stop-color="#4c246d"/>
		</linearGradient>
		<linearGradient id="g30" x1="246.9" y1="436.5" x2="293" y2="436.5" gradientUnits="userSpaceOnUse">
			<stop offset="0" stop-color="#cb236d"/>
			<stop offset="1" stop-color="#4c246d"/>
		</linearGradient>
		<linearGradient id="g31" x1="252.4" y1="757.9" x2="233.4" y2="657.4" gradientUnits="userSpaceOnUse">
			<stop offset="0" stop-color="#cb236d"/>
			<stop offset="1" stop-color="#4c246d"/>
		</linearGradient>
		<linearGradient id="g32" x1="421.1" y1="373.2" x2="561.3" y2="355.7" gradientUnits="userSpaceOnUse">
			<stop offset="0" stop-color="#2b3582"/>
			<stop offset="1" stop-color="#150e42"/>
		</linearGradient>
		<linearGradient id="g33" x1="420.6" y1="362.3" x2="472.3" y2="355.9" gradientUnits="userSpaceOnUse">
			<stop offset="0" stop-color="#2b3582"/>
			<stop offset="1" stop-color="#150e42"/>
		</linearGradient>
		<linearGradient id="g34" x1="1165.7" y1="675.2" x2="1143.6" y2="814.7" gradientUnits="userSpaceOnUse">
			<stop offset="0" stop-color="#cb236d"/>
			<stop offset="1" stop-color="#4c246d"/>
		</linearGradient>
		<linearGradient id="g35" x1="563.9" y1="688.8" x2="540.6" y2="835.1" gradientUnits="userSpaceOnUse">
			<stop offset="0" stop-color="#cb236d"/>
			<stop offset="1" stop-color="#4c246d"/>
		</linearGradient>
		<linearGradient id="g36" x1="589.6" y1="438.5" x2="564.4" y2="597.1" gradientUnits="userSpaceOnUse">
			<stop offset="0" stop-color="#fdf53f"/>
			<stop offset="1" stop-color="#d93c65"/>
		</linearGradient>
		<linearGradient id="g37" x1="611.3" y1="649.3" x2="629.4" y2="649.3" gradientUnits="userSpaceOnUse">
			<stop offset="0" stop-color="#f9b776"/>
			<stop offset="1" stop-color="#f47960"/>
		</linearGradient>
		<linearGradient id="g38" x1="500.6" y1="586.2" x2="640.9" y2="389.6" gradientUnits="userSpaceOnUse">
			<stop offset="0" stop-color="#2b3582"/>
			<stop offset="1" stop-color="#150e42"/>
		</linearGradient>
		<linearGradient id="g39" x1="598.3" y1="667" x2="615.2" y2="667" gradientUnits="userSpaceOnUse">
			<stop offset="0" stop-color="#f9b776"/>
			<stop offset="1" stop-color="#f47960"/>
		</linearGradient>
		<linearGradient id="g40" x1="440.1" y1="664.5" x2="444.5" y2="515.5" gradientUnits="userSpaceOnUse">
			<stop offset="0" stop-color="#2b3582"/>
			<stop offset="1" stop-color="#150e42"/>
		</linearGradient>
		<linearGradient id="g41" x1="633.8" y1="557.8" x2="577.8" y2="470.1" gradientUnits="userSpaceOnUse">
			<stop offset="0" stop-color="#fdf53f"/>
			<stop offset="1" stop-color="#d93c65"/>
		</linearGradient>
		<linearGradient id="g42" x1="650.1" y1="465.1" x2="709.2" y2="465.1" gradientUnits="userSpaceOnUse">
			<stop offset="0" stop-color="#f9b776"/>
			<stop offset="1" stop-color="#f47960"/>
		</linearGradient>
		<linearGradient id="g43" x1="720.2" y1="486.8" x2="550.2" y2="610.4" gradientUnits="userSpaceOnUse">
			<stop offset="0" stop-color="#fdf53f"/>
			<stop offset="1" stop-color="#d93c65"/>
		</linearGradient>
		<linearGradient id="g44" x1="593.7" y1="375.6" x2="632.9" y2="375.6" gradientUnits="userSpaceOnUse">
			<stop offset="0" stop-color="#f9b776"/>
			<stop offset="1" stop-color="#f47960"/>
		</linearGradient>
		<linearGradient id="g45" x1="646.7" y1="448.1" x2="507.7" y2="549.1" gradientUnits="userSpaceOnUse">
			<stop offset="0" stop-color="#fdf53f"/>
			<stop offset="1" stop-color="#d93c65"/>
		</linearGradient>
		<linearGradient id="g46" x1="507" y1="416.5" x2="622.8" y2="409.9" gradientUnits="userSpaceOnUse">
			<stop offset="0" stop-color="#fdf53f"/>
			<stop offset="1" stop-color="#d93c65"/>
		</linearGradient>
		<linearGradient id="g47" x1="555.2" y1="484" x2="408.3" y2="739.1" gradientUnits="userSpaceOnUse">
			<stop offset="0" stop-color="#f9b776"/>
			<stop offset="1" stop-color="#f47960"/>
		</linearGradient>
		<linearGradient id="g48" x1="686.5" y1="367.7" x2="652.5" y2="449.4" gradientUnits="userSpaceOnUse">
			<stop offset="0" stop-color="#f9b776"/>
			<stop offset="1" stop-color="#f47960"/>
		</linearGradient>
		<linearGradient id="g49" x1="581.2" y1="326.4" x2="651.3" y2="308.3" gradientUnits="userSpaceOnUse">
			<stop offset="0" stop-color="#2b3582"/>
			<stop offset="1" stop-color="#150e42"/>
		</linearGradient>
		<linearGradient id="g50" x1="558.6" y1="427.6" x2="596.5" y2="361.3" gradientUnits="userSpaceOnUse">
			<stop offset="0" stop-color="#f9b776"/>
			<stop offset="1" stop-color="#f47960"/>
		</linearGradient>
		<linearGradient id="g51" x1="581.4" y1="510.7" x2="662.1" y2="492.8" gradientUnits="userSpaceOnUse">
			<stop offset="0" stop-color="#2b3582"/>
			<stop offset="1" stop-color="#150e42"/>
		</linearGradient>
		<linearGradient id="g52" x1="635.9" y1="480.6" x2="719.4" y2="392.3" gradientUnits="userSpaceOnUse">
			<stop offset="0" stop-color="#2b3582"/>
			<stop offset="1" stop-color="#150e42"/>
		</linearGradient>
		<linearGradient id="g53" x1="704.7" y1="474" x2="742.1" y2="417.6" gradientUnits="userSpaceOnUse">
			<stop offset="0" stop-color="#53d8ff"/>
			<stop offset="1" stop-color="#3840f7"/>
		</linearGradient>
		<linearGradient id="g54" x1="490.1" y1="472.5" x2="539.3" y2="440.6" gradientUnits="userSpaceOnUse">
			<stop offset="0" stop-color="#53d8ff"/>
			<stop offset="1" stop-color="#3840f7"/>
		</linearGradient>
		<linearGradient id="g55" x1="453.2" y1="477.9" x2="612.9" y2="430.7" gradientUnits="userSpaceOnUse">
			<stop offset="0" stop-color="#53d8ff"/>
			<stop offset="1" stop-color="#3840f7"/>
		</linearGradient>
		<linearGradient id="g56" x1="454.7" y1="464.1" x2="530.9" y2="484.6" gradientUnits="userSpaceOnUse">
			<stop offset="0" stop-color="#a737d5"/>
			<stop offset="1" stop-color="#ef497a"/>
		</linearGradient>
		<linearGradient id="g57" x1="804" y1="701" x2="410" y2="701" gradientUnits="userSpaceOnUse">
			<stop offset="0" stop-color="#53d8ff"/>
			<stop offset="1" stop-color="#3840f7"/>
		</linearGradient>
		<linearGradient id="g58" x1="804" y1="700" x2="546" y2="700" gradientUnits="userSpaceOnUse">
			<stop offset="0" stop-color="#53d8ff"/>
			<stop offset="1" stop-color="#3840f7"/>
		</linearGradient>
		<linearGradient id="g59" x1="816.8" y1="523.9" x2="407.1" y2="523.9" gradientUnits="userSpaceOnUse">
			<stop offset="0" stop-color="#53d8ff"/>
			<stop offset="1" stop-color="#3840f7"/>
		</linearGradient>
		<linearGradient id="g60" x1="533.7" y1="523" x2="391.9" y2="523" gradientUnits="userSpaceOnUse">
			<stop offset="0" stop-color="#53d8ff"/>
			<stop offset="1" stop-color="#3840f7"/>
		</linearGradient>
		<linearGradient id="g61" x1="797.1" y1="710.6" x2="754.4" y2="679.2" gradientUnits="userSpaceOnUse">
			<stop offset="0" stop-color="#2b3582"/>
			<stop offset="1" stop-color="#150e42"/>
		</linearGradient>
		<linearGradient id="g62" x1="763.3" y1="675.7" x2="850.4" y2="746.9" gradientUnits="userSpaceOnUse">
			<stop offset="0" stop-color="#fdf53f"/>
			<stop offset=".7" stop-color="#e57a58"/>
			<stop offset="1" stop-color="#d93c65"/>
		</linearGradient>
		<linearGradient id="g63" x1="1718.4" y1="287.3" x2="951.6" y2="750.7" gradientUnits="userSpaceOnUse">
			<stop offset="0" stop-color="#53d8ff"/>
			<stop offset="1" stop-color="#3840f7"/>
		</linearGradient>
		<linearGradient id="g64" x1="819.2" y1="658.9" x2="795.9" y2="634.6" gradientUnits="userSpaceOnUse">
			<stop offset="0" stop-color="#2b3582"/>
			<stop offset="1" stop-color="#150e42"/>
		</linearGradient>
		<linearGradient id="g65" x1="892.6" y1="590.1" x2="867.5" y2="684.6" gradientUnits="userSpaceOnUse">
			<stop offset="0" stop-color="#53d8ff"/>
			<stop offset="1" stop-color="#3840f7"/>
		</linearGradient>
		<linearGradient id="g66" x1="790.3" y1="606.3" x2="875.6" y2="675.9" gradientUnits="userSpaceOnUse">
			<stop offset="0" stop-color="#fdf53f"/>
			<stop offset=".7" stop-color="#e57a58"/>
			<stop offset="1" stop-color="#d93c65"/>
		</linearGradient>
		<linearGradient id="g67" x1="759.9" y1="655.2" x2="881.4" y2="609.4" gradientUnits="userSpaceOnUse">
			<stop offset="0" stop-color="#53d8ff"/>
			<stop offset="1" stop-color="#3840f7"/>
		</linearGradient>
		<linearGradient id="g68" x1="805.9" y1="648.2" x2="898.4" y2="538.2" gradientUnits="userSpaceOnUse">
			<stop offset="0" stop-color="#f9b776"/>
			<stop offset="1" stop-color="#f47960"/>
		</linearGradient>
		<linearGradient id="g69" x1="882.3" y1="680.9" x2="833.1" y2="508.2" gradientUnits="userSpaceOnUse">
			<stop offset="0" stop-color="#a737d5"/>
			<stop offset="1" stop-color="#ef497a"/>
		</linearGradient>
		<linearGradient id="g70" x1="913.7" y1="608.1" x2="797.8" y2="766.6" gradientUnits="userSpaceOnUse">
			<stop offset="0" stop-color="#f9b776"/>
			<stop offset="1" stop-color="#f47960"/>
		</linearGradient>
		<linearGradient id="g71" x1="943.1" y1="535" x2="940.9" y2="555.1" gradientUnits="userSpaceOnUse">
			<stop offset="0" stop-color="#f9b776"/>
			<stop offset="1" stop-color="#f47960"/>
		</linearGradient>
		<linearGradient id="g72" x1="942.8" y1="511.5" x2="952.9" y2="544.8" gradientUnits="userSpaceOnUse">
			<stop offset="0" stop-color="#f9b776"/>
			<stop offset="1" stop-color="#f47960"/>
		</linearGradient>
		<linearGradient id="g73" x1="917.6" y1="559.8" x2="906.9" y2="499.1" gradientUnits="userSpaceOnUse">
			<stop offset="0" stop-color="#2b3582"/>
			<stop offset="1" stop-color="#150e42"/>
		</linearGradient>
		<linearGradient id="g74" x1="936.4" y1="508.8" x2="946" y2="540.2" gradientUnits="userSpaceOnUse">
			<stop offset="0" stop-color="#f9b776"/>
			<stop offset="1" stop-color="#f47960"/>
		</linearGradient>
		<linearGradient id="g75" x1="858" y1="626.8" x2="817.1" y2="626.8" gradientUnits="userSpaceOnUse">
			<stop offset="0" stop-color="#2b3582"/>
			<stop offset="1" stop-color="#150e42"/>
		</linearGradient>
		<linearGradient id="g76" x1="817.2" y1="599.9" x2="846.3" y2="570.4" gradientUnits="userSpaceOnUse">
			<stop offset="0" stop-color="#fdf53f"/>
			<stop offset="1" stop-color="#d93c65"/>
		</linearGradient>
		<linearGradient id="g77" x1="851.4" y1="627.8" x2="885.3" y2="618.5" gradientUnits="userSpaceOnUse">
			<stop offset="0" stop-color="#2b3582"/>
			<stop offset="1" stop-color="#150e42"/>
		</linearGradient>
		<linearGradient id="g78" x1="990.3" y1="385.6" x2="915.1" y2="450.6" gradientUnits="userSpaceOnUse">
			<stop offset="0" stop-color="#53d8ff"/>
			<stop offset="1" stop-color="#3840f7"/>
		</linearGradient>
		<linearGradient id="g79" x1="1137.5" y1="325.6" x2="1086.6" y2="499.2" gradientUnits="userSpaceOnUse">
			<stop offset="0" stop-color="#fdf53f"/>
			<stop offset="1" stop-color="#d93c65"/>
		</linearGradient>
		<linearGradient id="g80" x1="1119.3" y1="342.7" x2="1022.9" y2="500.1" gradientUnits="userSpaceOnUse">
			<stop offset="0" stop-color="#fdf53f"/>
			<stop offset="1" stop-color="#d93c65"/>
		</linearGradient>
		<linearGradient id="g81" x1="860.5" y1="446.7" x2="846.4" y2="419.9" gradientUnits="userSpaceOnUse">
			<stop offset="0" stop-color="#cb236d"/>
			<stop offset="1" stop-color="#4c246d"/>
		</linearGradient>
		<linearGradient id="g82" x1="828.1" y1="465.8" x2="805" y2="430.6" gradientUnits="userSpaceOnUse">
			<stop offset="0" stop-color="#cb236d"/>
			<stop offset="1" stop-color="#4c246d"/>
		</linearGradient>
		<linearGradient id="g83" x1="855.9" y1="453.7" x2="825.4" y2="419" gradientUnits="userSpaceOnUse">
			<stop offset="0" stop-color="#cb236d"/>
			<stop offset="1" stop-color="#4c246d"/>
		</linearGradient>
		<linearGradient id="g84" x1="904" y1="433.7" x2="910.7" y2="400.6" gradientUnits="userSpaceOnUse">
			<stop offset="0" stop-color="#fdf53f"/>
			<stop offset="1" stop-color="#d93c65"/>
		</linearGradient>
		<linearGradient id="g85" x1="990.1" y1="343.3" x2="999.1" y2="387.2" gradientUnits="userSpaceOnUse">
			<stop offset="0" stop-color="#cb236d"/>
			<stop offset="1" stop-color="#4c246d"/>
		</linearGradient>
		<linearGradient id="g86" x1="796.3" y1="465.8" x2="773.2" y2="430.6" gradientUnits="userSpaceOnUse">
			<stop offset="0" stop-color="#cb236d"/>
			<stop offset="1" stop-color="#4c246d"/>
		</linearGradient>
		<linearGradient id="g87" x1="836.2" y1="446.3" x2="810.2" y2="416.7" gradientUnits="userSpaceOnUse">
			<stop offset="0" stop-color="#cb236d"/>
			<stop offset="1" stop-color="#4c246d"/>
		</linearGradient>
		<linearGradient id="g88" x1="872.2" y1="433.7" x2="878.9" y2="400.6" gradientUnits="userSpaceOnUse">
			<stop offset="0" stop-color="#fdf53f"/>
			<stop offset="1" stop-color="#d93c65"/>
		</linearGradient>
		<linearGradient id="g89" x1="843.3" y1="273.6" x2="768.1" y2="338.6" gradientUnits="userSpaceOnUse">
			<stop offset="0" stop-color="#53d8ff"/>
			<stop offset="1" stop-color="#3840f7"/>
		</linearGradient>
		<linearGradient id="g90" x1="990.5" y1="213.6" x2="939.6" y2="387.2" gradientUnits="userSpaceOnUse">
			<stop offset="0" stop-color="#fdf53f"/>
			<stop offset="1" stop-color="#d93c65"/>
		</linearGradient>
		<linearGradient id="g91" x1="972.3" y1="230.7" x2="875.9" y2="388.1" gradientUnits="userSpaceOnUse">
			<stop offset="0" stop-color="#fdf53f"/>
			<stop offset="1" stop-color="#d93c65"/>
		</linearGradient>
		<linearGradient id="g92" x1="713.5" y1="334.7" x2="699.4" y2="307.9" gradientUnits="userSpaceOnUse">
			<stop offset="0" stop-color="#cb236d"/>
			<stop offset="1" stop-color="#4c246d"/>
		</linearGradient>
		<linearGradient id="g93" x1="681.1" y1="353.8" x2="658" y2="318.6" gradientUnits="userSpaceOnUse">
			<stop offset="0" stop-color="#cb236d"/>
			<stop offset="1" stop-color="#4c246d"/>
		</linearGradient>
		<linearGradient id="g94" x1="708.9" y1="341.7" x2="678.4" y2="307" gradientUnits="userSpaceOnUse">
			<stop offset="0" stop-color="#cb236d"/>
			<stop offset="1" stop-color="#4c246d"/>
		</linearGradient>
		<linearGradient id="g95" x1="757" y1="321.7" x2="763.7" y2="288.6" gradientUnits="userSpaceOnUse">
			<stop offset="0" stop-color="#fdf53f"/>
			<stop offset="1" stop-color="#d93c65"/>
		</linearGradient>
		<linearGradient id="g96" x1="843.1" y1="231.3" x2="852.1" y2="275.2" gradientUnits="userSpaceOnUse">
			<stop offset="0" stop-color="#cb236d"/>
			<stop offset="1" stop-color="#4c246d"/>
		</linearGradient>
		<linearGradient id="g97" x1="649.3" y1="353.8" x2="626.2" y2="318.6" gradientUnits="userSpaceOnUse">
			<stop offset="0" stop-color="#cb236d"/>
			<stop offset="1" stop-color="#4c246d"/>
		</linearGradient>
		<linearGradient id="g98" x1="689.2" y1="334.3" x2="663.2" y2="304.7" gradientUnits="userSpaceOnUse">
			<stop offset="0" stop-color="#cb236d"/>
			<stop offset="1" stop-color="#4c246d"/>
		</linearGradient>
		<linearGradient id="g99" x1="725.2" y1="321.7" x2="731.9" y2="288.6" gradientUnits="userSpaceOnUse">
			<stop offset="0" stop-color="#fdf53f"/>
			<stop offset="1" stop-color="#d93c65"/>
		</linearGradient>
		<linearGradient id="g100" x1="893" y1="151.2" x2="790.8" y2="122.7" gradientUnits="userSpaceOnUse">
			<stop offset="0" stop-color="#53d8ff"/>
			<stop offset="1" stop-color="#3840f7"/>
		</linearGradient>
		<linearGradient id="g101" x1="850.9" y1="195.8" x2="679.5" y2="93" gradientUnits="userSpaceOnUse">
			<stop offset="0" stop-color="#53d8ff"/>
			<stop offset="1" stop-color="#3840f7"/>
		</linearGradient>
		<linearGradient id="g102" x1="886.8" y1="152.6" x2="800" y2="128.4" gradientUnits="userSpaceOnUse">
			<stop offset="0" stop-color="#53d8ff"/>
			<stop offset="1" stop-color="#3840f7"/>
		</linearGradient>
		<linearGradient id="g103" x1="847.3" y1="116.1" x2="806" y2="141.7" gradientUnits="userSpaceOnUse">
			<stop offset="0" stop-color="#53d8ff"/>
			<stop offset="1" stop-color="#3840f7"/>
		</linearGradient>
		<linearGradient id="g104" x1="373.9" y1="444.5" x2="404.9" y2="525.5" gradientUnits="userSpaceOnUse">
			<stop offset="0" stop-color="#cb236d"/>
			<stop offset="1" stop-color="#4c246d"/>
		</linearGradient>
		<linearGradient id="g105" x1="514.4" y1="412.8" x2="548.1" y2="534.3" gradientUnits="userSpaceOnUse">
			<stop offset="0" stop-color="#cb236d"/>
			<stop offset="1" stop-color="#4c246d"/>
		</linearGradient>
		<linearGradient id="g106" x1="451.1" y1="536.6" x2="473.3" y2="704.1" gradientUnits="userSpaceOnUse">
			<stop offset="0" stop-color="#cb236d"/>
			<stop offset="1" stop-color="#4c246d"/>
		</linearGradient>
		<linearGradient id="g107" x1="283.8" y1="597.7" x2="80.6" y2="911.6" gradientUnits="userSpaceOnUse">
			<stop offset="0" stop-color="#2b3582"/>
			<stop offset="1" stop-color="#150e42"/>
		</linearGradient>
		<linearGradient id="g108" x1="612.7" y1="196.6" x2="527.6" y2="375.7" gradientUnits="userSpaceOnUse">
			<stop offset="0" stop-color="#53d8ff"/>
			<stop offset="1" stop-color="#3840f7"/>
		</linearGradient>
		<linearGradient id="g109" x1="696" y1="283.4" x2="523.6" y2="228.2" gradientUnits="userSpaceOnUse">
			<stop offset="0" stop-color="#53d8ff"/>
			<stop offset="1" stop-color="#3840f7"/>
		</linearGradient>
	</defs>
	<style>
		.s0 { fill: url(#g1) } 
		.s1 { fill: #ffffff } 
		.s2 { fill: url(#g2) } 
		.s3 { fill: url(#g3) } 
		.s4 { fill: url(#g4) } 
		.s5 { opacity: .5;fill: url(#g5) } 
		.s6 { opacity: .5;fill: url(#g6) } 
		.s7 { fill: url(#g7) } 
		.s8 { fill: url(#g8) } 
		.s9 { fill: url(#g9) } 
		.s10 { fill: url(#g10) } 
		.s11 { fill: url(#g11) } 
		.s12 { fill: url(#g12) } 
		.s13 { fill: url(#g13) } 
		.s14 { fill: url(#g14) } 
		.s15 { fill: url(#g15) } 
		.s16 { fill: url(#g16) } 
		.s17 { fill: url(#g17) } 
		.s18 { fill: url(#g18) } 
		.s19 { fill: url(#g19) } 
		.s20 { fill: url(#g20) } 
		.s21 { fill: url(#g21) } 
		.s22 { fill: url(#g22) } 
		.s23 { fill: url(#g23) } 
		.s24 { fill: url(#g24) } 
		.s25 { fill: url(#g25) } 
		.s26 { fill: url(#g26) } 
		.s27 { fill: url(#g27) } 
		.s28 { fill: url(#g28) } 
		.s29 { fill: url(#g29) } 
		.s30 { fill: url(#g30) } 
		.s31 { fill: url(#g31) } 
		.s32 { fill: url(#g32) } 
		.s33 { fill: url(#g33) } 
		.s34 { fill: url(#g34) } 
		.s35 { fill: url(#g35) } 
		.s36 { fill: url(#g36) } 
		.s37 { fill: url(#g37) } 
		.s38 { fill: url(#g38) } 
		.s39 { fill: url(#g39) } 
		.s40 { fill: url(#g40) } 
		.s41 { fill: url(#g41) } 
		.s42 { fill: url(#g42) } 
		.s43 { fill: url(#g43) } 
		.s44 { fill: url(#g44) } 
		.s45 { fill: url(#g45) } 
		.s46 { fill: url(#g46) } 
		.s47 { fill: url(#g47) } 
		.s48 { fill: url(#g48) } 
		.s49 { fill: url(#g49) } 
		.s50 { fill: url(#g50) } 
		.s51 { fill: url(#g51) } 
		.s52 { fill: url(#g52) } 
		.s53 { fill: url(#g53) } 
		.s54 { fill: url(#g54) } 
		.s55 { fill: url(#g55) } 
		.s56 { fill: url(#g56) } 
		.s57 { fill: url(#g57) } 
		.s58 { fill: url(#g58) } 
		.s59 { fill: url(#g59) } 
		.s60 { fill: url(#g60) } 
		.s61 { fill: url(#g61) } 
		.s62 { fill: url(#g62) } 
		.s63 { fill: url(#g63) } 
		.s64 { fill: url(#g64) } 
		.s65 { fill: url(#g65) } 
		.s66 { fill: url(#g66) } 
		.s67 { fill: url(#g67) } 
		.s68 { fill: url(#g68) } 
		.s69 { fill: url(#g69) } 
		.s70 { fill: url(#g70) } 
		.s71 { fill: url(#g71) } 
		.s72 { fill: url(#g72) } 
		.s73 { fill: url(#g73) } 
		.s74 { fill: url(#g74) } 
		.s75 { fill: url(#g75) } 
		.s76 { fill: url(#g76) } 
		.s77 { fill: url(#g77) } 
		.s78 { fill: #e78456 } 
		.s79 { fill: url(#g78) } 
		.s80 { fill: url(#g79) } 
		.s81 { fill: url(#g80) } 
		.s82 { opacity: .6;fill: #ffffff } 
		.s83 { opacity: .5;fill: #ffffff } 
		.s84 { fill: url(#g81) } 
		.s85 { fill: url(#g82) } 
		.s86 { fill: url(#g83) } 
		.s87 { fill: url(#g84) } 
		.s88 { fill: url(#g85) } 
		.s89 { fill: url(#g86) } 
		.s90 { fill: url(#g87) } 
		.s91 { fill: url(#g88) } 
		.s92 { fill: url(#g89) } 
		.s93 { fill: url(#g90) } 
		.s94 { fill: url(#g91) } 
		.s95 { fill: url(#g92) } 
		.s96 { fill: url(#g93) } 
		.s97 { fill: url(#g94) } 
		.s98 { fill: url(#g95) } 
		.s99 { fill: url(#g96) } 
		.s100 { fill: url(#g97) } 
		.s101 { fill: url(#g98) } 
		.s102 { fill: url(#g99) } 
		.s103 { fill: url(#g100) } 
		.s104 { fill: url(#g101) } 
		.s105 { fill: url(#g102) } 
		.s106 { fill: url(#g103) } 
		.s107 { fill: #ce41a4 } 
		.s108 { fill: url(#g104) } 
		.s109 { fill: url(#g105) } 
		.s110 { fill: url(#g106) } 
		.s111 { fill: url(#g107) } 
		.s112 { fill: url(#g108) } 
		.s113 { fill: url(#g109) } 
	</style>
	<g id="_Artboards_">
	</g>
	<g id="Illustration">
		<g id="&lt;Group&gt;">
			<g id="&lt;Group&gt;">
				<g id="&lt;Group&gt;">
					<g id="&lt;Group&gt;">
						<path id="&lt;Path&gt;" class="s0" d="m1075.5 685c0 0 38.9-89.9 9.5-184.7-0.2-0.6-1.3-0.5-1.4 0.2-7.1 57.3-9.2 119.3-8.1 184.5z"/>
						<path id="&lt;Path&gt;" class="s1" d="m1075.7 683.1q-0.1 0-0.2 0c-0.2-0.1-0.4-0.3-0.3-0.6 6.9-24.5 9.5-66.1 10.5-96.7 1-33.1 0.5-60.9 0.5-61.2 0-0.2 0.2-0.5 0.5-0.5q0 0 0 0c0.2 0 0.5 0.3 0.5 0.5 0 0.3 0.5 28.1-0.5 61.3-1 30.6-3.6 72.3-10.5 96.9-0.1 0.2-0.3 0.3-0.5 0.3z"/>
					</g>
					<g id="&lt;Group&gt;">
						<path id="&lt;Path&gt;" class="s2" d="m1066.6 670.4c0 0 24.1-110.4-21.4-222.1-0.3-0.7-1.4-0.5-1.4 0.3 2.5 69.2 10.8 143.7 22.8 221.8z"/>
						<path id="&lt;Path&gt;" class="s1" d="m1066.4 668q-0.1 0-0.1 0c-0.3 0-0.5-0.3-0.4-0.6 5.4-56.9-15.2-188.6-15.4-190-0.1-0.2 0.1-0.5 0.4-0.5 0.3-0.1 0.5 0.1 0.6 0.4 0.2 1.3 20.8 133.1 15.4 190.2-0.1 0.3-0.3 0.5-0.5 0.5z"/>
					</g>
					<g id="&lt;Group&gt;">
						<path id="&lt;Path&gt;" class="s3" d="m1062.8 700.3c0 0 11.5-96.3-45.7-182.9-0.4-0.6-1.4-0.2-1.3 0.4 10 57.6 26.4 118.9 47 182.5z"/>
						<path id="&lt;Path&gt;" class="s1" d="m1062.2 698.4c-0.2 0-0.5-0.2-0.5-0.5-0.5-25.4-10.3-66.7-18.5-96.9-8.8-32.7-17.6-59.7-17.7-60-0.1-0.3 0.1-0.6 0.3-0.6 0.3-0.1 0.6 0 0.7 0.3 0 0.3 8.9 27.3 17.7 60.1 8.2 30.2 18 71.6 18.5 97.1 0 0.3-0.2 0.5-0.5 0.5q0 0 0 0z"/>
					</g>
				</g>
				<path id="&lt;Path&gt;" class="s4" d="m1092 647h-52.9c-4 0-6.9 3.7-6.2 7.6 3.2 16.7 9.6 31.5 16.2 43.9 1.5 2.7 4.4 4.5 7.5 4.5h17.3c3.2 0 6.1-1.7 7.6-4.5 8.3-15.1 12.4-30.1 15.8-44.8 0.7-3.4-1.8-6.7-5.3-6.7z"/>
			</g>
			<g id="&lt;Group&gt;" style="opacity: .8">
				<path id="&lt;Path&gt;" class="s5" d="m426.7 689.8c-21.7 0.6-43.2-4.3-62.4-14.8-11.3-6.1-28.5-10.9-53.5-7.6-52.3 7-112.8 39.3-159-20.9-46.2-60.2-9.6-83.6 38.4-84.8 48.1-1.2 72.4-18.6 67.1-43.5-5.3-24.9-4-31.7-78.2-68.6-74.1-37-117.1-171.6-20.9-234.6 96.1-63 148.4-7 160.4-2 11.9 4.9 29.9 13.6 44.4-25.2 14.5-38.9 40.1-86.3 126.4-76.4 17.9 2 35.8 3 53.7 4 16.3 1 35.2 0.7 48.5 12.2 23.4 20.3 20.1 58.7 22.6 87.1 1.4 16.6 5.3 35.6 24.7 36.9 24.5 1.6 42.6-33.2 56.8-49.7 17.5-20.4 38.1-38.1 61.9-50.1 16.8-8.5 34.3-14.6 52.7-18.3 114.2-22.8 222.7 11.3 258.3 138.1 35.6 126.8-5 195.2-54.6 214.4-49.6 19.2-91.7 51.7 1.9 126.4 93.6 74.8-140.8 103.1-203.3 69.3-62.5-33.8-127.4-16.1-182.1-5.2-38.2 7.6-143.6 11.6-203.8 13.3z"/>
				<path id="&lt;Path&gt;" class="s6" d="m433.4 689.8c-20.7 0.6-41.2-4.1-59.5-14.1-10.8-5.8-27.1-10.4-50.9-7.2-49.9 6.6-107.5 37.4-151.6-20-44.1-57.3-9.1-79.6 36.6-80.8 45.8-1.2 69-17.7 63.9-41.5-5-23.7-3.8-30.1-74.5-65.4-70.6-35.2-111.6-163.5-19.9-223.5 91.6-60 141.5-6.6 152.9-1.9 11.3 4.7 28.5 13 42.3-24 13.8-37.1 38.2-82.3 120.5-72.9 17 2 34 2.9 51.1 3.9 15.6 0.9 33.6 0.6 46.2 11.6 22.4 19.4 19.2 56 21.5 83 1.4 15.9 5.2 33.9 23.7 35.1 23.3 1.6 40.6-31.5 54.1-47.3 16.7-19.4 36.3-36.3 58.9-47.8 16-8.1 32.7-13.9 50.2-17.4 108.9-21.7 212.3 10.8 246.2 131.6 34 120.9-4.8 186.1-52 204.4-47.3 18.3-87.4 49.2 1.8 120.5 89.2 71.2-134.2 98.2-193.7 66-59.6-32.2-121.4-15.4-173.6-5-36.4 7.2-136.8 11-194.2 12.7z"/>
			</g>
			<g id="&lt;Group&gt;">
				<g id="&lt;Group&gt;">
					<g id="&lt;Group&gt;">
						<path id="&lt;Path&gt;" class="s7" d="m274.7 327.2c-12.4-29.6-57.4-119.4-137-91.7-1.2 0.5-1 2.2 0.2 2.4 17.5 3.2 82.6 19.7 134.7 90.5 0.9 1.1 2.7 0.1 2.1-1.2z"/>
						<path id="&lt;Path&gt;" class="s8" d="m274 329c-17.9-16.8-71.1-82.1-141.9-52.3-0.8 0.4-0.6 1.5 0.2 1.6 17.5 1.8 104.3 12.8 141.4 52.2 1 1 1.4-0.5 0.3-1.5z"/>
						<path id="&lt;Path&gt;" class="s9" d="m272.4 321.6c-1.7-22.3-11.7-106.5-66-123.9-0.4-0.1-0.7 0.3-0.5 0.7 6.6 9.2 54.1 77.3 65.6 123.4 0.1 0.5 0.9 0.4 0.9-0.2z"/>
						<path id="&lt;Path&gt;" class="s10" d="m277.8 347.2c0.4 0.3 0.9-0.4 0.5-0.7-9.6-9.6-49.2-44.7-99.6-27.4-57.1 19.6 42.8-2.4 99.1 28.1z"/>
						<path id="&lt;Path&gt;" class="s11" d="m276.4 329.7c-0.1 1.7-2.4 1.9-2.8 0.2-6-26.4-18.8-99.4 18.3-118 44-21.9-9.5 31.3-15.5 117.8z"/>
						<path id="&lt;Path&gt;" class="s12" d="m273.9 329.5c6.2-16.2 30.3-66.7 80.3-39.4 0.8 0.4 0.6 1.7-0.4 1.8-11.2 0.7-48.7 5.6-78.3 38.6-0.7 0.8-2 0-1.6-1z"/>
						<path id="&lt;Path&gt;" class="s13" d="m275.2 333.6c2.3-10 14.3-30.2 75.2-11.7 0.4 0.1 0.3 0.6-0.1 0.6-12-1.2-52.4-4-72.2 12.8-1.3 1.1-3.2-0.1-2.9-1.7z"/>
					</g>
					<path id="&lt;Path&gt;" class="s14" d="m293.3 608.4c0.6-1.7 5.3-217.9-20.6-281.3z"/>
					<g id="&lt;Group&gt;">
						<path id="&lt;Path&gt;" class="s15" d="m319.6 398.1c9.3-22.1 42.9-89.2 102.4-68.5 0.9 0.3 0.8 1.6-0.1 1.7-13.1 2.5-61.8 14.8-100.8 67.7-0.6 0.9-1.9 0.1-1.5-0.9z"/>
						<path id="&lt;Path&gt;" class="s16" d="m320.1 399.5c13.4-12.6 53.2-61.4 106.1-39.1 0.6 0.2 0.5 1.1-0.1 1.2-13.1 1.4-78 9.6-105.8 39-0.7 0.8-1-0.4-0.2-1.1z"/>
						<path id="&lt;Path&gt;" class="s17" d="m321.3 394c1.3-16.7 8.8-79.7 49.3-92.7 0.3-0.1 0.6 0.2 0.4 0.5-4.9 6.9-40.4 57.8-49 92.3-0.1 0.4-0.7 0.3-0.7-0.1z"/>
						<path id="&lt;Path&gt;" class="s18" d="m317.3 413.1c-0.3 0.2-0.7-0.3-0.4-0.6 7.2-7.1 36.8-33.3 74.5-20.4 42.7 14.6-32-1.8-74.1 21z"/>
						<path id="&lt;Path&gt;" class="s19" d="m318.3 400c0.1 1.3 1.9 1.4 2.1 0.2 4.5-19.8 14.1-74.4-13.7-88.2-32.8-16.5 7.1 23.3 11.6 88z"/>
						<path id="&lt;Path&gt;" class="s20" d="m320.2 399.9c-4.7-12.2-22.6-49.9-60-29.5-0.7 0.3-0.5 1.3 0.2 1.3 8.5 0.6 36.5 4.2 58.6 28.9 0.5 0.6 1.5 0 1.2-0.7z"/>
						<path id="&lt;Path&gt;" class="s21" d="m319.2 402.9c-1.7-7.5-10.7-22.5-56.2-8.7-0.3 0-0.2 0.5 0.1 0.4 8.9-0.9 39.2-3 54 9.6 0.9 0.8 2.4-0.1 2.1-1.3z"/>
					</g>
					<path id="&lt;Path&gt;" class="s22" d="m305.7 608.4c-0.4-1.2-4-162.9 15.4-210.4z"/>
					<g id="&lt;Group&gt;">
						<path id="&lt;Path&gt;" class="s23" d="m248 436.4c-10.6-17.4-47-69.2-88.5-43-0.6 0.4-0.3 1.5 0.4 1.5 10.3 0.1 49 3.4 87.1 42.4 0.6 0.7 1.5-0.2 1-0.9z"/>
						<path id="&lt;Path&gt;" class="s24" d="m247.9 437.6c-12.2-8.7-50.2-44.1-86.5-17.5-0.4 0.3-0.2 1 0.3 0.9 10.1-0.7 60.4-3.2 86.2 17.6 0.7 0.5 0.7-0.5 0-1z"/>
						<path id="&lt;Path&gt;" class="s25" d="m246 433.1c-3.7-13.9-19.6-66.1-52.3-71.1-0.3-0.1-0.4 0.3-0.2 0.5 4.8 5.1 40 42.9 52.1 70.8 0.1 0.3 0.5 0.1 0.4-0.2z"/>
						<path id="&lt;Path&gt;" class="s26" d="m252.2 448.7c0.3 0.1 0.5-0.3 0.2-0.5-6.5-5-33.2-22.9-59.5-6.4-29.8 18.6 23.9-6.3 59.3 6.9z"/>
						<path id="&lt;Path&gt;" class="s27" d="m249.3 437.8c0.2 1-1.1 1.4-1.6 0.4-6.6-16-22.7-60.8-4.1-76.5 22.1-18.7-1.5 20.7 5.7 76.1z"/>
						<path id="&lt;Path&gt;" class="s28" d="m247.9 437.9c1.5-10.9 8.9-45.4 40.4-33.7 0.6 0.2 0.6 1.1 0 1.2-6.2 1.7-26.8 8.9-39.4 33-0.3 0.6-1.1 0.2-1-0.5z"/>
						<path id="&lt;Path&gt;" class="s29" d="m249.1 440.4c0.1-6.6 4.4-20.7 41-15.7 0.2 0.1 0.2 0.4 0 0.4-6.9 0.6-30.1 3.3-39.2 16.1-0.6 0.8-1.8 0.2-1.8-0.8z"/>
					</g>
					<path id="&lt;Path&gt;" class="s30" d="m293 612.1c0.1-1.1-23.7-138.3-46.1-175.6z"/>
				</g>
				<g id="&lt;Group&gt;">
					<path id="&lt;Path&gt;" class="s31" d="m268.6 591.4h48.5c3.1 0 5.5 4.8 4.8 9.8-3.1 21.8-6.8 43.9-14.4 66.3-1.4 4.1-4.1 6.7-7 6.7h-15.9c-2.8 0-5.5-2.5-6.8-6.6-6.1-18.4-12-40.2-14.9-65-0.7-5.8 2.1-11.2 5.7-11.2z"/>
				</g>
			</g>
			<g id="&lt;Group&gt;">
				<g id="&lt;Group&gt;">
					<path id="&lt;Path&gt;" class="s32" d="m563.5 501.4l-109.9 13.7-14.7-118.2c-0.8-6.2 3.6-11.9 9.8-12.6l87.5-10.9c6.2-0.8 11.8 3.6 12.6 9.8z"/>
					<path id="&lt;Path&gt;" class="s33" d="m449.1 384.2l-0.4 0.1c-6.2 0.7-10.6 6.4-9.8 12.6l14.1 113.3 22.8-2.8-14.1-113.4c-0.8-6.2-6.4-10.5-12.6-9.8z"/>
				</g>
				<g id="&lt;Group&gt;">
					<path id="&lt;Path&gt;" class="s34" d="m558.5 686.6h10.3v-111h-10.3z"/>
					<path id="&lt;Path&gt;" class="s35" d="m518.7 688.8h89.9v-3.1c0-2-1.6-3.6-3.6-3.6h-82.5c-2.1 0-3.8 1.7-3.8 3.8z"/>
					<path id="&lt;Path&gt;" class="s36" d="m501.7 571.5c0 6.5 5.3 11.8 11.7 11.8h96.7c6.4 0 11.7-5.3 11.7-11.8v-10.6c0-6.4-5.3-11.7-11.7-11.7h-96.7c-6.4 0-11.7 5.3-11.7 11.7z"/>
				</g>
				<g id="&lt;Group&gt;">
					<path id="&lt;Path&gt;" class="s37" d="m616.4 649.3l-4.8 13.8c-0.7 2.1 0 4.5 1.9 5.7 0.9 0.6 2.2 1.1 4 1.5 2.4 0.6 5-0.6 6.2-2.8l5.7-10.8z"/>
					<path id="&lt;Path&gt;" class="s38" d="m569.8 524.5c0 0 60.2 10.5 86 34.3 25.8 23.9-23.7 100-23.7 100 0 0-8.1 0-18-8.5 0 0 29.4-57.2 4.1-73.9-28.5-18.8-61.2-23-61.2-23l12.2-27z"/>
					<path id="&lt;Path&gt;" class="s39" d="m598.3 672.2c0.1 1.7 3.7 7.8 5.8 11.2 1 1.7 2.8 2.7 4.7 2.7 1.2 0 2.6-0.1 3.9-0.5 1.9-0.5 2.9-2.6 2.4-4.5l-4.2-14.1z"/>
					<path id="&lt;Path&gt;" class="s40" d="m511.8 506.5c0 0-13.4 35.7 0 46.6 13.4 10.9 45.3 23.1 52.4 44.8 7.1 21.6 19.2 63.7 35.4 78.6 0 0 11.4-1.1 15.6-5.6 0 0-9.2-62.8-15.3-79-5.2-13.9-13-34.1-27.8-45.3-4.3-3.3-3.6-8.4-1.6-13.3l3.6-9.1z"/>
					<path id="&lt;Path&gt;" class="s41" d="m651.3 478.5c-22.5 1.3-15.5-34.5-15.1-35.9l-34 24c0 0 1.8 19.1 30.1 29.2 7.2 2.5 13.7 2.7 19.5 1.4-2.5-7.2-2-13.6-0.5-18.7z"/>
					<path id="&lt;Path&gt;" class="s42" d="m694.6 467.7c-8.3-5.8-17.8 0-17.8 0-11.2 7.3-19.4 10.4-25.5 10.8-1.5 5.1-2 11.5 0.5 18.7 12.5-2.7 21.5-11.7 25.3-16.4 1.4-1.7 3.9-1.9 5.6-0.6 1.8 1.4 3.5 3.3 3.2 5.2-0.6 3.9 3.9 5.2 4.2 3.8 0.4-1.4-1.5-9.8-1.5-9.8 0 0 9 9.1 12.6 12.6 3.5 3.5 8 0 8 0 0 0-6.2-18.5-14.6-24.3z"/>
					<path id="&lt;Path&gt;" class="s43" d="m546.7 387.2c0 0 32.6-13 93.3 37.1 0 0 5.1 10.5-0.4 19.8-5.5 9.4-58.3 54.9-65.5 80.1 0 0-31.4 10.2-63.9-14 0 0 2.9-70.2 36.5-123z"/>
					<path id="&lt;Path&gt;" class="s44" d="m611.2 375.6l-16.1 19.5c-1.5 1.9-1.9 4.6-0.8 6.8 2.2 4.6 7.5 11.2 19.2 10.3 3.5-0.3 6.6-2.4 8.2-5.6l11.2-23.2z"/>
					<path id="&lt;Path&gt;" class="s45" d="m521.5 470.6c-3.8-15.4 34.5-49.8 34.5-49.8l-9.3-33.6c0 0-82.8 55.2-61.7 99.5 3 6.4 7.1 10.8 11.7 13.8 6.7-18 17.3-26.2 24.8-29.9z"/>
					<path id="&lt;Path&gt;" class="s46" d="m521.4 468.4c-0.4 0-0.7-0.3-0.8-0.7-3.9-15.8 33.2-49.3 34.8-50.7 0.4-0.3 1-0.3 1.3 0.1 0.3 0.3 0.3 0.9-0.1 1.2-0.4 0.4-37.9 34.2-34.3 48.9 0.1 0.5-0.2 1-0.6 1.1q-0.1 0.1-0.3 0.1z"/>
					<path id="&lt;Path&gt;" class="s47" d="m579.6 469.3c0 0-45.5 17.6-56.6 4.4q-1.1-1.4-1.5-3.1c-7.5 3.7-18.1 11.9-24.8 29.9 23.9 15.3 64.8-8.5 75.9-15.5 1.8-1.2 4-1.6 6.1-1.1 4.2 0.8 11.6 2.1 15.6 1.5 5.8-0.9 14.1 19.6 23.5 13.3 0 0-8-35.6-38.2-29.4z"/>
					<g id="&lt;Group&gt;">
						<path id="&lt;Path&gt;" class="s48" d="m646.1 347c0.2 0.6-3.7 43.2-3.7 43.2l-24.3-2.8-2.2-40.9c0 0 27.5-10 30.2 0.5z"/>
						<path id="&lt;Path&gt;" class="s49" d="m622.2 355l-0.5 21.6q0 0.4 0.1 0.8c0.4 1.7 2.3 7.2 7.8 5 5.1-2.1 9.7-3.9 13.1-3.2 1.5 0.3 2.6 1.7 2.5 3.2-0.4 3.9-1.4 12.6-3.4 20-0.4 1.5-1.9 2.5-3.4 2.2-4.6-0.8-14.3-2.8-21.8-6.3-1-0.4-1.7-1.4-1.7-2.5-0.4-5.4-1.6-21.8-2.6-26.3-1-4.3-6.5-6.3-8.9-7-0.8-0.2-1.5-0.7-1.9-1.4-1.3-2.6-3.5-8.6 4-12 1.6-0.7 2.3-2.5 1.5-4-1.5-3.1-2.5-8 3.2-11.3 5.8-3.4 10.7-0.7 13.5 1.7 1.1 1 2.7 1 3.8 0.1 0.7-0.6 1.6-0.8 2.8-0.3 1.5 0.8 3.4 0 4-1.7 1.1-3.1 3.8-6.7 9.8-6.3 10.8 0.6 13.3 12.3 11.3 19.4-2 7.2-13.7 5.9-19.8 3-4.6-2.1-10 1.2-12.3 3-0.7 0.5-1.1 1.4-1.1 2.3z"/>
						<path id="&lt;Path&gt;" class="s50" d="m612.2 377.3c0 0 3-12.7-1.8-15.2-4.8-2.5-11.3-0.2-8.8 8.5 3 10.8 10.6 6.7 10.6 6.7z"/>
					</g>
				</g>
				<g id="&lt;Group&gt;">
					<path id="&lt;Path&gt;" class="s51" d="m602.9 504.1q0.1 0 0.2 0l95.4-0.1c2.3 0 4.3-1.9 4.3-4.3 0-2.3-2-4.3-4.3-4.2l-95.4 0.1c-2.4 0-4.3 1.9-4.3 4.2 0 2.3 1.8 4.2 4.1 4.3z"/>
					<path id="&lt;Path&gt;" class="s52" d="m784.3 417.5h-79.5c-5.9 0-11.2 3.4-13.7 8.7l-36.7 77.8h98.7c3.8 0 7.2-2.3 8.6-5.8l28.5-72c1.6-4.2-1.5-8.7-5.9-8.7z"/>
					<path id="&lt;Path&gt;" class="s53" d="m728.3 457.4c-1.7 5.4-0.5 10.6 2.8 11.6 3.3 1.1 7.4-2.4 9.1-7.8 1.7-5.3 0.4-10.5-2.8-11.6-3.3-1-7.4 2.5-9.1 7.8z"/>
				</g>
				<g id="&lt;Group&gt;">
					<g id="&lt;Group&gt;">
						<g id="&lt;Group&gt;">
							<path id="&lt;Path&gt;" class="s54" d="m473.7 477.2h53.2v-10.6h-53.2c1.1 0 1.1 10.6 0 10.6z"/>
							<path id="&lt;Path&gt;" class="s55" d="m526.9 474.6v-4.9c0-1.7-1.1-3.1-2.3-3.1h-50.7c-1 0-1.8-0.9-1.8-1.9 0-0.3 0.2-0.5 0.5-0.5h55.4c1.2 0 3.3 2 3.3 4.4v6.8c0 2.3-2 4.2-3.2 4.2h-55.2c-0.4 0-0.8-0.4-0.8-0.8 0-0.9 0.7-1.6 1.5-1.6h51.3c1.1 0 2-1.2 2-2.6z"/>
						</g>
						<path id="&lt;Path&gt;" class="s1" d="m525.4 469.8h-49.9c-0.5 0-1-0.5-1-1 0-0.6 0.5-1 1-1h49.9c0.6 0 1 0.4 1 1 0 0.5-0.4 1-1 1z"/>
						<path id="&lt;Path&gt;" class="s1" d="m525.4 471.3h-49.9c-0.5 0-1-0.4-1-1 0-0.5 0.5-1 1-1h49.9c0.6 0 1 0.5 1 1 0 0.6-0.4 1-1 1z"/>
						<path id="&lt;Path&gt;" class="s1" d="m525.4 472.9h-49.9c-0.5 0-1-0.4-1-1 0-0.5 0.5-1 1-1h49.9c0.6 0 1 0.5 1 1 0 0.6-0.4 1-1 1z"/>
						<path id="&lt;Path&gt;" class="s1" d="m525.4 474.5h-49.9c-0.5 0-1-0.5-1-1 0-0.6 0.5-1 1-1h49.9c0.6 0 1 0.4 1 1 0 0.5-0.4 1-1 1z"/>
						<path id="&lt;Path&gt;" class="s1" d="m525.4 476.1h-49.9c-0.5 0-1-0.5-1-1 0-0.6 0.5-1 1-1h49.9c0.6 0 1 0.4 1 1 0 0.5-0.4 1-1 1z"/>
					</g>
					<g id="&lt;Group&gt;">
						<path id="&lt;Path&gt;" class="s56" d="m552.7 502.7h-87.1c-2.5 0-4.5-2-4.5-4.5v-14.2c0-2.5 2-4.5 4.5-4.5h87.1c2.5 0 4.5 2 4.5 4.5v14.2c0 2.5-2 4.5-4.5 4.5z"/>
						<path id="&lt;Compound Path&gt;" fill-rule="evenodd" class="s1" d="m481.7 500.5h-8.2c-1.1 0-2-0.9-2-2v-14.8c0-1.2 0.9-2.1 2-2.1h8.2c1.1 0 2.1 0.9 2.1 2.1v14.8c0 1.1-1 2-2.1 2zm-8.2-17.9c-0.6 0-1 0.5-1 1.1v14.8c0 0.5 0.4 1 1 1h8.2c0.6 0 1.1-0.5 1.1-1v-14.8c0-0.6-0.5-1.1-1.1-1.1z"/>
						<path id="&lt;Compound Path&gt;" fill-rule="evenodd" class="s1" d="m487.9 500.5h-1.8c-0.9 0-1.7-0.8-1.7-1.7v-15.4c0-1 0.8-1.8 1.7-1.8h1.8c1 0 1.7 0.8 1.7 1.8v15.4c0 0.9-0.7 1.7-1.7 1.7zm-1.8-17.9c-0.4 0-0.7 0.4-0.7 0.8v15.4c0 0.4 0.3 0.7 0.7 0.7h1.8c0.4 0 0.7-0.3 0.7-0.7v-15.4c0-0.4-0.3-0.8-0.7-0.8z"/>
					</g>
				</g>
				<g id="&lt;Group&gt;">
					<path id="&lt;Path&gt;" class="s57" d="m410 521v150.4 24c0 3.1 2.3 5.6 5.3 5.6h383.7c3 0 5-2.5 5-5.6v-174.4z"/>
					<path id="&lt;Path&gt;" class="s58" d="m546 520v174.4c0 3.1 2.5 5.6 5.5 5.6h252.5v-180z"/>
					<g id="&lt;Group&gt;">
						<g id="&lt;Group&gt;">
							<path id="&lt;Path&gt;" class="s59" d="m407.2 508.2c-0.2-1.2 0.1-2.5 0.9-3.5 0.7-0.9 1.8-1.5 3-1.5h401.1c1.6 0 3 0.8 3.9 2.2 0.8 1.4 0.9 3.2 0.3 4.7l-4.4 10.1c-1 2.3-3.1 3.7-5.5 3.7h-392.6c-2.2 0-4.1-1.6-4.6-4z"/>
						</g>
						<path id="&lt;Path&gt;" class="s60" d="m397.5 502.8c-1.6 0-3.1 0.7-4.2 1.8-1.1 1.2-1.5 2.7-1.3 4.3l1.4 9.8c0.4 2.6 2.8 4.3 5.6 4.3h134.5l0.2-20.1z"/>
					</g>
				</g>
			</g>
			<g id="&lt;Group&gt;">
				<path id="&lt;Path&gt;" class="s61" d="m783.5 701.4c5.1-4.5 13.2-9.5 25-11l3.9 2.5c0 0-2.5 3.7-7.1 7.6-4.3 2.5-10.8 5.9-16.3 6.6-5.3 0.7-6-2.5-5.5-5.7z"/>
				<path id="&lt;Path&gt;" class="s62" d="m779.6 705.2c1.1-1.2 2.3-2.5 3.9-3.8-0.5 3.2 0.2 6.4 5.5 5.7 5.5-0.7 12-4.1 16.3-6.6-5.3 4.6-13.4 9.4-23.7 9.1-2.3 0-3.5-2.7-2-4.4z"/>
				<g id="&lt;Group&gt;">
					<path id="&lt;Path&gt;" class="s63" d="m991.1 540c0 0 21.4 11.8 23.2 31.9 1.8 20 0.1 103.3-42.7 123.7-42.9 20.5-99.7 15.8-121.4 13.6-21.8-2.3-33.8-17-36.5-27.2-2.7-10.2-7-48.1 15.8-60.3 22.9-12.2 46.9-30.9 70.9-49.1 24-18.3 65.1-48 90.7-32.6z"/>
					<path id="&lt;Path&gt;" class="s64" d="m836.3 628.6c0 0 5.7 0.3 6.4 12.2 0 0-13.4 12-31.4 14.9-1.4 0.2 1.9-9.3 2.4-10.6 2.3-6.1 9.6-10 22.6-16.5z"/>
					<path id="&lt;Path&gt;" class="s65" d="m901.3 614.7h-12.2c0 0-37.4-41.3-61.9-45.5 0 0-17.1 21.8 0.9 62.5 1.4 3.3 5.5 4.7 8.5 2.8q1.3-0.8 1.9-2.3l-1.4-34.8c0 0 31.9 27.9 37.4 33.3 5.6 5.4 33.7 2.1 26.8-16z"/>
					<path id="&lt;Path&gt;" class="s66" d="m813.7 645.1c3.1 1 4.5 5.5 12.5 2.6 7.7-2.9 13.4-6.6 16.4-8.7q0.1 0.9 0.1 1.8c0 0-14.1 13.4-32.2 16.3-1.3 0.2-2.4-1.1-1.9-2.4 0.9-2.3 2.5-5.8 5.1-9.6z"/>
					<path id="&lt;Path&gt;" class="s67" d="m900.8 623.5l-57 0.6c0 0-32.6 27-38.5 68.1 0 0-1 3 4.9 3.5 0 0 19.7-12.9 32.5-35.6 15.8-27.9 47-15.3 47-15.3 10.2-7.4 24.7-8.9 35.6-11.4z"/>
					<path id="&lt;Path&gt;" class="s68" d="m899.5 577.5c0 0-6.2 30.8-36.3 43l-10.7-1.3-2.5 4.1 25.1 0.8c0 0 21.5-8.5 32.9-31.7 0.3-0.8 6.6-13.7-8.5-14.9z"/>
					<path id="&lt;Path&gt;" class="s69" d="m896.2 623c0 0 7-19 8.5-37.4 0 0-5.1-4.4-8.3-6.3-1.1-0.6-1.5-1.9-0.9-3 2.3-4.9 16.5-24 17.6-24.3 5.8-1.4 29.5-12.7 46.2 10.2 7.1 9.8-1.5 40-34 71.2l-6.7 1.3z"/>
					<path id="&lt;Path&gt;" class="s70" d="m923.1 589.7c0 0-19.4 23-44.2 26.3 0 0-6.4-5.8-11.2-3.7-4.8 2.1-11.3 11.3-11.3 11.3h31.9c0 0 30.1-1.1 45.1-19.3-1.2-6.4-4.8-10.2-10.3-14.6z"/>
					<path id="&lt;Path&gt;" class="s71" d="m934.4 535.9l4.3 14.2c0.2 0.6-0.1 1.3-0.6 1.7-2.1 1.4-7.4 4.2-14.8 1.5-0.8-0.3-1.4-1.1-1.4-2l-1.1-12.3z"/>
					<g id="&lt;Group&gt;">
						<path id="&lt;Path&gt;" class="s72" d="m909.6 524.5c0 0 2 14.6 7.7 19.2 5.6 4.5 16.6 1.1 20.3-10l-7.4-18.9z"/>
						<path id="&lt;Path&gt;" class="s73" d="m931.1 527c-0.5 0.2-0.9-0.1-1-0.5-0.2-1.4-0.7-4.1-1.7-5.9 0 0 0.5-1.9-4.9 1-5.4 2.9-13.5 7.2-18.3 4.6-4.7-2.5-9.4-15 2.9-12.6 0.5 0 0.9-0.3 0.9-0.8-0.2-2.1 0.1-6.8 4.8-8.3 4.5-1.4 7 0.6 8 1.8 0.3 0.4 0.8 0.4 1.1 0 1.3-1.7 5-5.5 10.3-3.1 4.4 1.9 5.1 4.7 5.1 6.4-0.1 0.5 0.5 0.9 1 0.6 1.3-0.6 3.5-0.9 5.6 1.7 2.9 3.6-1.2 6.7-2.5 7.6-0.2 0.1-0.3 0.3-0.3 0.6 0 1.8-0.3 10-4.4 14.6-0.4 0.4-1 0.3-1.2-0.2l-3.2-7.5c-0.1-0.3-0.5-0.5-0.9-0.4z"/>
						<path id="&lt;Path&gt;" class="s74" d="m931 528.6c0 0 1.9-7.9 4.8-5.3 3 2.5-0.7 8.1-4.1 9.2z"/>
					</g>
					<path id="&lt;Path&gt;" class="s75" d="m858 625.4l-14.3-47.7c-0.6-2-2.3-3.3-4.3-3.5l-19.3-1.3c-2-0.1-3.5 1.8-2.8 3.6l16 45.6c0.5 1.4 1.8 2.5 3.4 2.6l19 2.1z"/>
					<path id="&lt;Path&gt;" class="s76" d="m831.6 593.8c1.1 2.2 2.9 3.5 4.1 2.9 1.3-0.6 1.4-2.9 0.3-5-1.1-2.2-2.9-3.4-4.1-2.8-1.2 0.6-1.3 2.8-0.3 4.9z"/>
					<path id="&lt;Path&gt;" class="s77" d="m855.7 626.8q0 0 0.1 0l40.5-2c1-0.1 1.7-0.9 1.7-1.9-0.1-1-0.9-1.8-1.9-1.7l-40.5 2c-1 0.1-1.8 0.9-1.7 1.9 0 1 0.8 1.7 1.8 1.7z"/>
					<path id="&lt;Path&gt;" class="s78" d="m904.7 586.1c-0.3 0-0.5-0.3-0.5-0.5-0.1-8.6 3.2-20 3.3-20.1 0.1-0.3 0.3-0.4 0.6-0.3 0.3 0 0.4 0.3 0.3 0.6 0 0.1-3.3 11.3-3.2 19.8 0 0.2-0.3 0.5-0.5 0.5z"/>
					<path id="&lt;Path&gt;" class="s78" d="m923.1 590.2q-0.2 0-0.3-0.1c-0.2-0.2-0.3-0.5-0.1-0.7 0.1-0.1 8.9-11.3 11.9-18.9 0.1-0.2 0.4-0.4 0.6-0.3 0.3 0.1 0.4 0.4 0.3 0.7-3 7.7-11.6 18.7-12 19.1q-0.2 0.2-0.4 0.2z"/>
					<path id="&lt;Path&gt;" class="s78" d="m935.5 607.5l-1.7-2.4c-0.2-0.3-0.1-0.6 0.1-0.7 0.2-0.2 0.6-0.1 0.7 0.1l1.2 1.7c12.4-5.5 20-20.2 20.1-20.4 0.1-0.2 0.4-0.3 0.7-0.2 0.2 0.1 0.3 0.4 0.2 0.7-0.1 0.1-8 15.5-20.9 21z"/>
				</g>
			</g>
			<g id="&lt;Group&gt;">
				<path id="&lt;Path&gt;" class="s79" d="m1027 422.3c0-2.4-1.9-4.3-4.3-4.3h-168.4c-2.4 0-4.3 1.9-4.3 4.3v3.4c0 2.4 1.9 4.3 4.3 4.3h168.4c2.4 0 4.3-1.9 4.3-4.3z"/>
				<g id="&lt;Group&gt;">
					<g id="&lt;Group&gt;">
						<g id="&lt;Group&gt;">
							<path id="&lt;Path&gt;" class="s80" d="m976 337.7l-5 80.9h30.3v-78.7c0-2.3-1.4-4.3-3.6-5-4-1.4-10.8-3.1-17.5-1.9-2.3 0.4-4 2.3-4.2 4.7z"/>
						</g>
						<g id="&lt;Group&gt;">
							<path id="&lt;Path&gt;" class="s81" d="m938 337.3l3.4 81.2h28.7l2.2-82.1c0.1-2.3-1.4-4.4-3.5-5-9.4-2.8-18.7-3.1-27.8 1.1-1.9 0.9-3.1 2.7-3 4.8z"/>
							<g id="&lt;Group&gt;">
								<path id="&lt;Path&gt;" class="s82" d="m945.7 392.5l0.3 2.8c0 0.9 0.8 1.5 1.6 1.5l15.1-0.9c0.8 0 1.4-0.7 1.5-1.4l0.1-2c0.1-0.9-0.6-1.7-1.6-1.7h-15.4c-0.9 0-1.6 0.8-1.6 1.7z"/>
								<path id="&lt;Path&gt;" class="s82" d="m946.4 399.3v1c0 0.8 0.6 1.4 1.4 1.4l14.4-0.6c0.8 0 1.4-0.6 1.4-1.4v-1.1c0-0.8-0.7-1.4-1.5-1.4l-14.4 0.7c-0.8 0-1.3 0.6-1.3 1.4z"/>
								<path id="&lt;Path&gt;" class="s82" d="m966.2 337.6c-0.6-0.6-1.4-0.9-2.2-0.9l-17.6 0.8c-1.6 0.1-2.8 1.6-2.8 3.3l0.9 40.4c0.1 1.6 1.2 3 2.8 3.1l15.4 1c0.8 0.1 1.6-0.2 2.2-0.8 0.6-0.6 0.9-1.4 0.9-2.3l1.2-42.2c0-0.9-0.3-1.7-0.8-2.4z"/>
							</g>
						</g>
						<g id="&lt;Group&gt;">
							<path id="&lt;Path&gt;" class="s82" d="m979.9 395.6l0.2 2.8c0.1 0.9 0.7 1.5 1.4 1.5l12.9-0.9c0.7-0.1 1.2-0.7 1.2-1.5l0.2-1.9c0-0.9-0.6-1.7-1.4-1.7h-13.1c-0.8 0-1.4 0.8-1.4 1.7z"/>
							<path id="&lt;Path&gt;" class="s82" d="m980.5 402.3v1.1c0 0.8 0.5 1.4 1.2 1.4l12.3-0.6c0.6-0.1 1.2-0.7 1.2-1.4v-1.1c0-0.8-0.6-1.5-1.3-1.4l-12.3 0.6c-0.6 0.1-1.1 0.7-1.1 1.4z"/>
							<path id="&lt;Path&gt;" class="s83" d="m994.3 339.7l-10.1-1.2c-1-0.1-2.1 0.2-3 1-0.8 0.7-1.3 1.7-1.3 2.8l-1.2 38.9c0 1 0.4 2.1 1.1 2.8 0.8 0.8 1.8 1.2 2.9 1.2l9.5-0.3c2.1 0 3.7-1.6 3.8-3.7l1.7-37.5c0.1-2-1.4-3.8-3.4-4z"/>
						</g>
					</g>
				</g>
				<g id="&lt;Group&gt;">
					<g id="&lt;Group&gt;">
						<g id="&lt;Group&gt;">
							<g id="&lt;Group&gt;">
								<path id="&lt;Path&gt;" class="s84" d="m923.3 411.1c0 0 14-32.2 3.4-66.1-0.1-0.2-0.5-0.2-0.5 0-2.5 20.6-3.3 42.8-2.9 66.1z"/>
								<path id="&lt;Path&gt;" class="s1" d="m923.4 410.8q-0.1 0-0.2-0.1c-0.2 0-0.4-0.3-0.3-0.6 4.7-16.7 3.9-56 3.9-56.4 0-0.3 0.2-0.5 0.5-0.5q0 0 0 0c0.3 0 0.5 0.2 0.5 0.5 0 0.4 0.8 39.8-4 56.7 0 0.2-0.2 0.4-0.4 0.4z"/>
							</g>
							<g id="&lt;Group&gt;">
								<path id="&lt;Path&gt;" class="s85" d="m920.1 405.9c0 0 8.6-39.6-7.6-79.5-0.2-0.3-0.5-0.2-0.5 0 0.8 24.8 3.8 51.5 8.1 79.5z"/>
								<path id="&lt;Path&gt;" class="s1" d="m920 405.3q0 0 0 0c-0.3 0-0.5-0.2-0.5-0.5 2-20.4-5.4-67.5-5.5-68 0-0.2 0.2-0.5 0.4-0.5 0.3-0.1 0.6 0.1 0.6 0.4 0.1 0.4 7.5 47.7 5.5 68.2 0 0.2-0.2 0.4-0.5 0.4z"/>
							</g>
							<g id="&lt;Group&gt;">
								<path id="&lt;Path&gt;" class="s86" d="m918.8 416.6c0 0 4.1-34.5-16.4-65.5-0.2-0.2-0.5-0.1-0.5 0.1 3.6 20.7 9.5 42.6 16.9 65.4z"/>
								<path id="&lt;Path&gt;" class="s1" d="m918.6 416.1c-0.3 0-0.4-0.1-0.4-0.4-0.4-17.3-12.9-55.7-13-56.1-0.1-0.2 0.1-0.4 0.3-0.5 0.1 0 0.4 0.1 0.4 0.3 0.2 0.4 12.7 38.8 13 56.3 0 0.2-0.1 0.4-0.3 0.4q0 0 0 0z"/>
							</g>
						</g>
						<g id="&lt;Group&gt;">
							<path id="&lt;Path&gt;" class="s87" d="m910.3 397.6h18.9c1.3 0 2.2 1.1 1.9 2.4-1.2 5.2-2.7 10.5-5.6 16-0.6 1-1.6 1.6-2.8 1.6h-6.2c-1.1 0-2.1-0.6-2.6-1.6-2.4-4.5-4.7-9.7-5.9-15.7-0.2-1.4 0.8-2.7 2.3-2.7z"/>
						</g>
					</g>
					<g id="&lt;Group&gt;">
						<g id="&lt;Group&gt;">
							<g id="&lt;Group&gt;">
								<path id="&lt;Path&gt;" class="s88" d="m892.9 414.3c0 0-8.6-36.7 7.3-71.3 0.1-0.2 0.4-0.1 0.4 0.1-0.7 22.4-3.5 46.3-7.7 71.2z"/>
								<path id="&lt;Path&gt;" class="s1" d="m893 413.8c-0.2 0-0.5-0.2-0.5-0.4-2-18.8 5.1-60.9 5.2-61.3 0-0.3 0.3-0.4 0.6-0.4 0.2 0.1 0.4 0.3 0.4 0.6-0.1 0.4-7.2 42.4-5.2 61 0 0.2-0.2 0.5-0.4 0.5q-0.1 0-0.1 0z"/>
							</g>
							<g id="&lt;Group&gt;">
								<path id="&lt;Path&gt;" class="s89" d="m888.3 405.9c0 0 8.6-39.6-7.7-79.5-0.1-0.3-0.4-0.2-0.4 0 0.8 24.8 3.8 51.5 8.1 79.5z"/>
								<path id="&lt;Path&gt;" class="s1" d="m888.2 405.3q0 0 0 0c-0.3 0-0.5-0.2-0.5-0.5 2-20.4-5.4-67.5-5.5-68 0-0.2 0.2-0.5 0.4-0.5 0.3-0.1 0.6 0.1 0.6 0.4 0.1 0.4 7.5 47.7 5.5 68.2 0 0.2-0.2 0.4-0.5 0.4z"/>
							</g>
							<g id="&lt;Group&gt;">
								<path id="&lt;Path&gt;" class="s90" d="m886.9 416.6c0 0 5.2-31.2-14.2-58.5-0.1-0.2-0.5-0.1-0.5 0.1 3 18.5 8.1 38.1 14.7 58.4z"/>
								<path id="&lt;Path&gt;" class="s1" d="m886.8 416.3q0 0 0 0c-0.3 0-0.5-0.2-0.5-0.5 0.2-15.6-11.1-49.7-11.2-50.1-0.1-0.2 0.1-0.5 0.3-0.6 0.3-0.1 0.6 0 0.7 0.3 0.1 0.4 11.4 34.7 11.2 50.4 0 0.3-0.3 0.5-0.5 0.5z"/>
							</g>
						</g>
						<g id="&lt;Group&gt;">
							<path id="&lt;Path&gt;" class="s91" d="m878.5 397.6h18.9c1.3 0 2.2 1.1 1.9 2.4-1.2 5.2-2.7 10.5-5.6 16-0.6 1-1.6 1.6-2.8 1.6h-6.2c-1.1 0-2.1-0.6-2.6-1.6-2.4-4.5-4.7-9.7-5.9-15.7-0.2-1.4 0.8-2.7 2.3-2.7z"/>
						</g>
					</g>
				</g>
			</g>
			<g id="&lt;Group&gt;">
				<path id="&lt;Path&gt;" class="s92" d="m880 310.3c0-2.4-1.9-4.3-4.3-4.3h-168.4c-2.4 0-4.3 1.9-4.3 4.3v3.4c0 2.4 1.9 4.3 4.3 4.3h168.4c2.4 0 4.3-1.9 4.3-4.3z"/>
				<g id="&lt;Group&gt;">
					<g id="&lt;Group&gt;">
						<g id="&lt;Group&gt;">
							<path id="&lt;Path&gt;" class="s93" d="m829 225.7l-5 80.9h30.3v-78.7c0-2.3-1.4-4.3-3.6-5-4-1.4-10.8-3.1-17.5-1.9-2.3 0.4-4 2.3-4.2 4.7z"/>
						</g>
						<g id="&lt;Group&gt;">
							<path id="&lt;Path&gt;" class="s94" d="m791 225.3l3.4 81.2h28.7l2.2-82.1c0.1-2.3-1.4-4.4-3.5-5-9.4-2.8-18.7-3.1-27.8 1.1-1.9 0.9-3.1 2.7-3 4.8z"/>
							<g id="&lt;Group&gt;">
								<path id="&lt;Path&gt;" class="s82" d="m798.7 280.5l0.3 2.8c0 0.9 0.8 1.5 1.6 1.5l15.1-0.9c0.8 0 1.4-0.7 1.5-1.4l0.1-2c0.1-0.9-0.6-1.7-1.6-1.7h-15.4c-0.9 0-1.6 0.8-1.6 1.7z"/>
								<path id="&lt;Path&gt;" class="s82" d="m799.4 287.3v1c0 0.8 0.6 1.4 1.4 1.4l14.4-0.6c0.8 0 1.4-0.6 1.4-1.4v-1.1c0-0.8-0.7-1.4-1.5-1.4l-14.4 0.7c-0.8 0-1.3 0.6-1.3 1.4z"/>
								<path id="&lt;Path&gt;" class="s82" d="m819.2 225.6c-0.6-0.6-1.4-0.9-2.2-0.9l-17.6 0.8c-1.6 0.1-2.8 1.6-2.8 3.3l0.9 40.4c0.1 1.6 1.2 3 2.8 3.1l15.4 1c0.8 0.1 1.6-0.2 2.2-0.8 0.6-0.6 0.9-1.4 0.9-2.3l1.2-42.2c0-0.9-0.3-1.7-0.8-2.4z"/>
							</g>
						</g>
						<g id="&lt;Group&gt;">
							<path id="&lt;Path&gt;" class="s82" d="m832.9 283.6l0.2 2.8c0.1 0.9 0.7 1.5 1.4 1.5l12.9-0.9c0.7-0.1 1.2-0.7 1.2-1.5l0.2-1.9c0-0.9-0.6-1.7-1.4-1.7h-13.1c-0.8 0-1.4 0.8-1.4 1.7z"/>
							<path id="&lt;Path&gt;" class="s82" d="m833.5 290.3v1.1c0 0.8 0.5 1.4 1.2 1.4l12.3-0.6c0.6-0.1 1.2-0.7 1.2-1.4v-1.1c0-0.8-0.6-1.5-1.3-1.4l-12.3 0.6c-0.6 0.1-1.1 0.7-1.1 1.4z"/>
							<path id="&lt;Path&gt;" class="s83" d="m847.3 227.7l-10.1-1.2c-1-0.1-2.1 0.2-3 1-0.8 0.7-1.3 1.7-1.3 2.8l-1.2 38.9c0 1 0.4 2.1 1.1 2.8 0.8 0.8 1.8 1.2 2.9 1.2l9.5-0.3c2.1 0 3.7-1.6 3.8-3.7l1.7-37.5c0.1-2-1.4-3.8-3.4-4z"/>
						</g>
					</g>
				</g>
				<g id="&lt;Group&gt;">
					<g id="&lt;Group&gt;">
						<g id="&lt;Group&gt;">
							<g id="&lt;Group&gt;">
								<path id="&lt;Path&gt;" class="s95" d="m776.3 299.1c0 0 14-32.2 3.4-66.1-0.1-0.2-0.5-0.2-0.5 0-2.5 20.6-3.3 42.8-2.9 66.1z"/>
								<path id="&lt;Path&gt;" class="s1" d="m776.4 298.8q-0.1 0-0.2-0.1c-0.2 0-0.4-0.3-0.3-0.6 4.7-16.7 3.9-56 3.9-56.4 0-0.3 0.2-0.5 0.5-0.5 0.3 0 0.5 0.2 0.5 0.5 0 0.4 0.8 39.8-4 56.7 0 0.2-0.2 0.4-0.4 0.4z"/>
							</g>
							<g id="&lt;Group&gt;">
								<path id="&lt;Path&gt;" class="s96" d="m773.1 293.9c0 0 8.6-39.6-7.6-79.5-0.2-0.3-0.5-0.2-0.5 0 0.8 24.8 3.8 51.5 8.1 79.5z"/>
								<path id="&lt;Path&gt;" class="s1" d="m773 293.3q0 0 0 0c-0.3 0-0.5-0.2-0.5-0.5 2-20.4-5.4-67.5-5.5-68 0-0.2 0.2-0.5 0.4-0.5 0.3-0.1 0.6 0.1 0.6 0.4 0.1 0.4 7.5 47.7 5.5 68.2 0 0.2-0.2 0.4-0.5 0.4z"/>
							</g>
							<g id="&lt;Group&gt;">
								<path id="&lt;Path&gt;" class="s97" d="m771.8 304.6c0 0 4.1-34.5-16.4-65.5-0.2-0.2-0.5-0.1-0.5 0.1 3.6 20.7 9.5 42.6 16.9 65.4z"/>
								<path id="&lt;Path&gt;" class="s1" d="m771.6 304.1c-0.3 0-0.4-0.1-0.4-0.4-0.4-17.3-12.9-55.7-13-56.1-0.1-0.2 0.1-0.4 0.3-0.5 0.1 0 0.4 0.1 0.4 0.3 0.2 0.4 12.7 38.8 13 56.3 0 0.2-0.1 0.4-0.3 0.4q0 0 0 0z"/>
							</g>
						</g>
						<g id="&lt;Group&gt;">
							<path id="&lt;Path&gt;" class="s98" d="m763.3 285.6h18.9c1.3 0 2.2 1.1 1.9 2.4-1.2 5.2-2.7 10.5-5.6 16-0.6 1-1.6 1.6-2.8 1.6h-6.2c-1.1 0-2.1-0.6-2.6-1.6-2.4-4.5-4.7-9.7-5.9-15.7-0.2-1.4 0.8-2.7 2.3-2.7z"/>
						</g>
					</g>
					<g id="&lt;Group&gt;">
						<g id="&lt;Group&gt;">
							<g id="&lt;Group&gt;">
								<path id="&lt;Path&gt;" class="s99" d="m745.9 302.3c0 0-8.6-36.7 7.3-71.3 0.1-0.2 0.4-0.1 0.4 0.1-0.7 22.4-3.5 46.3-7.7 71.2z"/>
								<path id="&lt;Path&gt;" class="s1" d="m746 301.8c-0.2 0-0.5-0.2-0.5-0.4-2-18.8 5.1-60.9 5.2-61.3 0-0.3 0.3-0.4 0.6-0.4 0.2 0.1 0.4 0.3 0.4 0.6-0.1 0.4-7.2 42.4-5.2 61 0 0.2-0.2 0.5-0.4 0.5q-0.1 0-0.1 0z"/>
							</g>
							<g id="&lt;Group&gt;">
								<path id="&lt;Path&gt;" class="s100" d="m741.3 293.9c0 0 8.6-39.6-7.7-79.5-0.1-0.3-0.4-0.2-0.4 0 0.8 24.8 3.8 51.5 8.1 79.5z"/>
								<path id="&lt;Path&gt;" class="s1" d="m741.2 293.3q0 0 0 0c-0.3 0-0.5-0.2-0.5-0.5 2-20.4-5.4-67.5-5.5-68 0-0.2 0.2-0.5 0.4-0.5 0.3-0.1 0.6 0.1 0.6 0.4 0.1 0.4 7.5 47.7 5.5 68.2 0 0.2-0.2 0.4-0.5 0.4z"/>
							</g>
							<g id="&lt;Group&gt;">
								<path id="&lt;Path&gt;" class="s101" d="m739.9 304.6c0 0 5.2-31.2-14.2-58.5-0.1-0.2-0.5-0.1-0.5 0.1 3 18.5 8.1 38.1 14.7 58.4z"/>
								<path id="&lt;Path&gt;" class="s1" d="m739.8 304.3q0 0 0 0c-0.3 0-0.5-0.2-0.5-0.5 0.2-15.6-11.1-49.7-11.2-50.1-0.1-0.2 0.1-0.5 0.3-0.6 0.3-0.1 0.6 0 0.7 0.3 0.1 0.4 11.4 34.7 11.2 50.4 0 0.3-0.3 0.5-0.5 0.5z"/>
							</g>
						</g>
						<g id="&lt;Group&gt;">
							<path id="&lt;Path&gt;" class="s102" d="m731.5 285.6h18.9c1.3 0 2.2 1.1 1.9 2.4-1.2 5.2-2.7 10.5-5.6 16-0.6 1-1.6 1.6-2.8 1.6h-6.2c-1.1 0-2.1-0.6-2.6-1.6-2.4-4.5-4.7-9.7-5.9-15.7-0.2-1.4 0.8-2.7 2.3-2.7z"/>
						</g>
					</g>
				</g>
			</g>
			<g id="&lt;Group&gt;">
				<g id="&lt;Group&gt;">
					<path id="&lt;Path&gt;" class="s103" d="m827.9 108.8l2.2 19.2-13.9-6.8z"/>
					<path id="&lt;Path&gt;" class="s104" d="m740.4 107.4l56.9 39.7c1.1 0.7 2.4 1 3.7 0.8 1.3-0.3 2.5-1.1 3.2-2.2l37.7-58.6c0.4-0.7 0.4-1.5 0-2.2-0.5-0.6-1.3-0.9-2.1-0.8z"/>
					<path id="&lt;Path&gt;" class="s105" d="m827.9 108.8l-87.5-1.4 81.5 10.9 0.8 5.3z"/>
					<path id="&lt;Path&gt;" class="s106" d="m818.2 123.9l11.9 4.1-8.2-9.7z"/>
				</g>
				<g id="&lt;Group&gt;">
					<path id="&lt;Path&gt;" class="s107" d="m847 127l4.8-0.1c0.5 0 0.9 0.4 0.9 0.9 0.1 0.5-0.3 1-0.9 1l-4.7 0.2h-0.1c-0.5 0-0.9-0.4-1-1 0-0.5 0.4-0.9 1-1z"/>
					<path id="&lt;Path&gt;" class="s107" d="m856.5 126.8l4.8-0.1c0.6 0 1 0.5 1 1 0 0.5-0.4 0.9-0.9 0.9h-0.1l-4.7 0.1c-0.6 0-1-0.4-1-1 0-0.5 0.4-0.9 0.9-0.9z"/>
					<path id="&lt;Path&gt;" class="s107" d="m866.1 126.8h4.8c0.5 0 1 0.5 0.9 1 0 0.5-0.4 0.9-0.9 0.9h-4.8c-0.5-0.1-0.9-0.5-0.9-1 0-0.5 0.4-1 0.9-0.9z"/>
					<path id="&lt;Path&gt;" class="s107" d="m875.7 126.9l4.8 0.2c0.5 0 0.9 0.4 0.9 0.9 0 0.6-0.5 1-1 1l-4.8-0.2c-0.5 0-0.9-0.4-0.9-1 0-0.5 0.5-0.9 1-0.9z"/>
					<path id="&lt;Path&gt;" class="s107" d="m885.3 127.3l4.7 0.2c0.6 0 1 0.5 0.9 1 0 0.5-0.4 0.9-1 0.9l-4.7-0.2c-0.6-0.1-1-0.5-0.9-1 0-0.6 0.4-1 1-0.9z"/>
					<path id="&lt;Path&gt;" class="s107" d="m894.8 127.8l4.8 0.3c0.5 0.1 0.9 0.5 0.9 1-0.1 0.5-0.5 0.9-1 0.9l-4.8-0.3c-0.5-0.1-0.9-0.5-0.9-1 0-0.5 0.5-0.9 1-0.9z"/>
					<path id="&lt;Path&gt;" class="s107" d="m904.4 128.5l4.7 0.4c0.5 0.1 0.9 0.5 0.9 1-0.1 0.6-0.5 0.9-1 0.9l-4.8-0.4c-0.5-0.1-0.9-0.5-0.9-1 0.1-0.6 0.5-0.9 1.1-0.9z"/>
					<path id="&lt;Path&gt;" class="s107" d="m913.9 129.4l4.8 0.5c0.5 0.1 0.8 0.5 0.8 1.1-0.1 0.5-0.5 0.8-1 0.8h-0.1l-4.7-0.5c-0.5-0.1-0.9-0.6-0.8-1.1 0-0.5 0.5-0.9 1-0.8z"/>
					<path id="&lt;Path&gt;" class="s107" d="m923.4 130.5l4.8 0.6c0.5 0.1 0.8 0.6 0.8 1.1-0.1 0.5-0.6 0.8-1.1 0.8l-4.7-0.7c-0.5 0-0.9-0.5-0.8-1 0-0.5 0.5-0.9 1-0.8z"/>
					<path id="&lt;Path&gt;" class="s107" d="m932.9 131.8l4.7 0.7c0.5 0.1 0.9 0.6 0.8 1.1-0.1 0.5-0.5 0.9-1.1 0.8l-4.7-0.8c-0.5 0-0.8-0.5-0.8-1 0.1-0.5 0.6-0.9 1.1-0.8z"/>
					<path id="&lt;Path&gt;" class="s107" d="m942.4 133.3l4.7 0.9c0.5 0.1 0.8 0.6 0.7 1.1-0.1 0.5-0.6 0.8-1.1 0.7l-4.7-0.8c-0.5-0.1-0.8-0.6-0.7-1.1 0.1-0.5 0.6-0.9 1.1-0.8z"/>
					<path id="&lt;Path&gt;" class="s107" d="m951.8 135.1l4.7 1c0.5 0.1 0.8 0.6 0.7 1.1-0.1 0.5-0.6 0.8-1.1 0.7l-4.7-1c-0.5-0.1-0.8-0.6-0.7-1.1 0.1-0.5 0.6-0.8 1.1-0.7z"/>
					<path id="&lt;Path&gt;" class="s107" d="m961.1 137.1l4.7 1.2c0.5 0.1 0.8 0.6 0.7 1.1-0.1 0.5-0.6 0.8-1.1 0.6l-4.7-1.1c-0.5-0.1-0.8-0.6-0.7-1.1 0.2-0.5 0.6-0.8 1.1-0.7z"/>
					<path id="&lt;Path&gt;" class="s107" d="m970.4 139.5l4.7 1.2c0.5 0.2 0.7 0.7 0.6 1.2-0.1 0.4-0.6 0.7-1.1 0.6l-4.6-1.3c-0.5-0.1-0.8-0.6-0.7-1.1 0.2-0.5 0.7-0.8 1.1-0.6z"/>
					<path id="&lt;Path&gt;" class="s107" d="m979.7 142.1l4.5 1.4c0.5 0.2 0.8 0.7 0.6 1.2-0.1 0.5-0.6 0.7-1.1 0.6l-4.6-1.5c-0.5-0.1-0.7-0.6-0.6-1.1 0.2-0.5 0.7-0.8 1.2-0.6z"/>
					<path id="&lt;Path&gt;" class="s107" d="m988.8 145.1l4.5 1.6c0.5 0.2 0.7 0.7 0.6 1.2-0.2 0.4-0.7 0.7-1.2 0.5l-4.5-1.6c-0.5-0.2-0.7-0.7-0.6-1.2 0.2-0.5 0.7-0.7 1.2-0.5z"/>
					<path id="&lt;Path&gt;" class="s107" d="m997.8 148.4l4.4 1.9c0.5 0.2 0.7 0.7 0.5 1.2-0.2 0.4-0.7 0.6-1.2 0.4l-4.4-1.8c-0.5-0.2-0.7-0.7-0.5-1.2 0.2-0.4 0.7-0.7 1.2-0.5z"/>
					<path id="&lt;Path&gt;" class="s107" d="m1006.6 152.2l4.3 2.1c0.5 0.2 0.7 0.7 0.5 1.2-0.2 0.4-0.8 0.6-1.2 0.4l-4.3-2h-0.1c-0.4-0.3-0.6-0.8-0.4-1.3 0.2-0.4 0.8-0.6 1.2-0.4z"/>
					<path id="&lt;Path&gt;" class="s107" d="m1015.2 156.5l4.2 2.3c0.5 0.2 0.6 0.8 0.4 1.2-0.3 0.5-0.8 0.6-1.2 0.4h-0.1l-4.1-2.3c-0.5-0.3-0.6-0.8-0.4-1.3 0.2-0.4 0.8-0.6 1.2-0.3z"/>
					<path id="&lt;Path&gt;" class="s107" d="m1023.6 161.3l4 2.6c0.4 0.2 0.5 0.8 0.3 1.2-0.3 0.4-0.8 0.5-1.3 0.3l-4-2.6c-0.4-0.3-0.5-0.8-0.3-1.3 0.3-0.4 0.9-0.5 1.3-0.2z"/>
					<path id="&lt;Path&gt;" class="s107" d="m1031.6 166.6l3.8 2.9c0.4 0.3 0.5 0.9 0.2 1.3-0.3 0.4-0.9 0.4-1.3 0.1l-3.8-2.8c-0.4-0.3-0.5-0.9-0.2-1.3 0.3-0.4 0.9-0.5 1.3-0.2z"/>
					<path id="&lt;Path&gt;" class="s107" d="m1039.2 172.5l3.7 3c0.4 0.3 0.5 0.9 0.1 1.2-0.3 0.4-0.8 0.5-1.2 0.2l-3.7-3v-0.1c-0.4-0.3-0.5-0.8-0.2-1.2 0.3-0.4 0.9-0.4 1.3-0.1z"/>
					<path id="&lt;Path&gt;" class="s107" d="m1046.6 178.6l3.6 3.1c0.4 0.4 0.4 0.9 0.1 1.3-0.4 0.4-0.9 0.4-1.3 0.1l-3.6-3.2c-0.4-0.3-0.4-0.9-0.1-1.2 0.4-0.4 0.9-0.4 1.3-0.1z"/>
					<path id="&lt;Path&gt;" class="s107" d="m1053.7 185l3.5 3.3c0.3 0.4 0.3 0.9 0 1.3-0.4 0.3-0.9 0.4-1.3 0l-3.4-3.3c-0.4-0.4-0.4-0.9 0-1.3 0.3-0.3 0.9-0.3 1.2 0z"/>
					<path id="&lt;Path&gt;" class="s107" d="m1060.5 191.8l3.3 3.5c0.3 0.4 0.3 0.9-0.1 1.3-0.3 0.3-0.9 0.3-1.2-0.1l-3.3-3.5c-0.3-0.4-0.3-0.9 0.1-1.3 0.3-0.3 0.9-0.3 1.2 0.1z"/>
					<path id="&lt;Path&gt;" class="s107" d="m1066.9 199l3 3.7c0.3 0.4 0.3 0.9-0.1 1.2-0.4 0.3-0.9 0.3-1.2-0.1l-3-3.7c-0.3-0.4-0.3-1 0.1-1.3 0.4-0.3 0.9-0.2 1.2 0.2z"/>
					<path id="&lt;Path&gt;" class="s107" d="m1072.8 206.6l2.7 3.9c0.3 0.4 0.2 1-0.2 1.3-0.4 0.2-0.9 0.1-1.2-0.3l-2.7-3.9v-0.1c-0.3-0.4-0.2-0.9 0.2-1.2 0.4-0.2 0.9-0.1 1.2 0.3z"/>
					<path id="&lt;Path&gt;" class="s107" d="m1078.1 214.6l2.3 4.3c0.3 0.4 0.1 0.9-0.3 1.1-0.4 0.3-1 0.1-1.2-0.3l-2.3-4.2c-0.3-0.4-0.1-1 0.3-1.2 0.4-0.2 1-0.1 1.2 0.3z"/>
					<path id="&lt;Path&gt;" class="s107" d="m1082.5 223.2l1.9 4.5c0.2 0.4 0 0.9-0.5 1.1-0.4 0.2-0.9 0-1.1-0.5l-1.8-4.4h-0.1c-0.2-0.5 0.1-1 0.5-1.2 0.4-0.2 0.9 0.1 1.1 0.5z"/>
					<path id="&lt;Path&gt;" class="s107" d="m1086 232.2l1.2 4.7c0.2 0.5-0.1 0.9-0.6 1.1-0.4 0.1-0.9-0.2-1-0.7l-1.3-4.6c-0.1-0.5 0.1-1 0.6-1.1 0.5-0.1 0.9 0.2 1.1 0.6z"/>
					<path id="&lt;Path&gt;" class="s107" d="m1088.2 241.6l0.5 4.9c0.1 0.4-0.2 0.9-0.7 0.9-0.5 0.1-0.9-0.3-1-0.7v-0.1l-0.5-4.7v-0.1c-0.1-0.4 0.2-0.9 0.7-0.9 0.5-0.1 0.9 0.3 1 0.7z"/>
					<path id="&lt;Path&gt;" class="s107" d="m1088.9 251.3l-0.1 4.8c-0.1 0.5-0.5 0.9-0.9 0.9-0.5-0.1-0.9-0.5-0.8-0.9v-0.1l0.1-4.7v-0.1c0-0.4 0.4-0.8 0.9-0.8 0.5 0 0.9 0.4 0.8 0.9z"/>
					<path id="&lt;Path&gt;" class="s107" d="m1088.2 260.9l-0.9 4.8c-0.1 0.5-0.6 0.8-1 0.7-0.5-0.1-0.8-0.6-0.7-1v-0.1l0.9-4.6v-0.1c0.1-0.4 0.6-0.7 1-0.7 0.5 0.1 0.8 0.6 0.7 1z"/>
					<path id="&lt;Path&gt;" class="s107" d="m1086 270.4l-1.6 4.5c-0.2 0.5-0.6 0.7-1.1 0.5-0.4-0.1-0.7-0.6-0.5-1v-0.1l1.6-4.4v-0.1c0.1-0.4 0.6-0.7 1.1-0.5 0.4 0.1 0.7 0.6 0.5 1.1z"/>
					<path id="&lt;Path&gt;" class="s107" d="m1082.5 279.4l-2.2 4.3c-0.2 0.4-0.7 0.6-1.1 0.4-0.4-0.3-0.6-0.8-0.4-1.2l2.1-4.2 0.1-0.1c0.2-0.4 0.7-0.6 1.1-0.4 0.4 0.2 0.6 0.8 0.4 1.2z"/>
					<path id="&lt;Path&gt;" class="s107" d="m1077.9 287.9l-2.6 4c-0.3 0.4-0.8 0.5-1.2 0.2-0.4-0.2-0.5-0.7-0.2-1.1v-0.1l2.6-3.9v-0.1c0.2-0.4 0.8-0.5 1.1-0.2 0.4 0.2 0.6 0.8 0.3 1.2z"/>
					<path id="&lt;Path&gt;" class="s107" d="m1072.4 295.8l-2.9 3.8c-0.3 0.3-0.9 0.4-1.2 0.1-0.4-0.3-0.4-0.8-0.2-1.2h0.1l2.9-3.7c0.3-0.4 0.8-0.5 1.2-0.2 0.4 0.3 0.4 0.8 0.2 1.2z"/>
					<path id="&lt;Path&gt;" class="s107" d="m1066.3 303.2l-3.2 3.6c-0.4 0.3-0.9 0.3-1.2 0-0.4-0.3-0.4-0.8-0.1-1.2h0.1l3.2-3.5c0.3-0.3 0.8-0.4 1.2-0.1 0.3 0.4 0.3 0.9 0 1.2z"/>
					<path id="&lt;Path&gt;" class="s107" d="m1059.7 310.2l-3.5 3.3c-0.3 0.3-0.9 0.3-1.2-0.1-0.3-0.3-0.3-0.8 0-1.1h0.1l3.4-3.3c0.4-0.4 0.9-0.3 1.2 0 0.3 0.3 0.3 0.9 0 1.2z"/>
					<path id="&lt;Path&gt;" class="s107" d="m1052.7 316.7l-3.5 3.3c-0.3 0.3-0.9 0.3-1.2 0-0.3-0.4-0.3-0.9 0.1-1.2l3.4-3.3c0.4-0.3 0.9-0.3 1.2 0 0.3 0.4 0.3 0.9 0 1.2z"/>
					<path id="&lt;Path&gt;" class="s107" d="m1045.8 323.3l-3.4 3.4c-0.3 0.3-0.9 0.3-1.2 0-0.3-0.3-0.3-0.9 0-1.2l3.4-3.4c0.3-0.3 0.9-0.3 1.2 0 0.3 0.4 0.3 0.9 0 1.2z"/>
					<path id="&lt;Path&gt;" class="s107" d="m1039.1 330.1l-3.3 3.5c-0.3 0.3-0.8 0.4-1.1 0-0.4-0.3-0.4-0.8-0.1-1.1l3.3-3.5c0.3-0.4 0.8-0.4 1.2-0.1 0.3 0.3 0.3 0.9 0 1.2z"/>
					<path id="&lt;Path&gt;" class="s107" d="m1032.7 337.2l-3.1 3.6c-0.3 0.4-0.8 0.4-1.1 0.1-0.4-0.3-0.4-0.8-0.1-1.1l3-3.7c0.3-0.4 0.9-0.4 1.2-0.1 0.3 0.3 0.4 0.8 0.1 1.1z"/>
					<path id="&lt;Path&gt;" class="s107" d="m1026.7 344.5l-2.8 3.9c-0.3 0.4-0.8 0.5-1.1 0.2-0.4-0.3-0.5-0.8-0.2-1.1l2.8-3.9c0.3-0.4 0.8-0.5 1.1-0.2 0.4 0.2 0.5 0.7 0.2 1.1z"/>
					<path id="&lt;Path&gt;" class="s107" d="m1021.4 352.4l-2.4 4.1c-0.2 0.4-0.7 0.6-1.1 0.3-0.4-0.2-0.5-0.7-0.3-1.1l2.4-4.2c0.2-0.4 0.7-0.5 1.1-0.3 0.4 0.2 0.5 0.7 0.3 1.1z"/>
					<path id="&lt;Path&gt;" class="s107" d="m1017 360.7l-1.6 4.5c-0.2 0.5-0.7 0.7-1.1 0.5-0.4-0.1-0.6-0.6-0.5-1l1.7-4.6c0.2-0.4 0.6-0.6 1.1-0.5 0.4 0.2 0.6 0.7 0.4 1.1z"/>
					<path id="&lt;Path&gt;" class="s107" d="m1014.2 369.7q-0.4 2.3-0.6 4.6c-0.1 0.5-0.5 0.8-0.9 0.8-0.5-0.1-0.8-0.4-0.7-0.9q0.2-2.4 0.6-4.8c0.1-0.5 0.5-0.7 1-0.6 0.4 0 0.7 0.5 0.6 0.9z"/>
					<path id="&lt;Path&gt;" class="s107" d="m1013.5 379l0.4 4.7v0.1c0 0.4-0.3 0.8-0.8 0.9-0.4 0-0.8-0.3-0.8-0.8l-0.5-4.8c0-0.5 0.3-0.9 0.8-0.9 0.4 0 0.8 0.3 0.8 0.7z"/>
					<path id="&lt;Path&gt;" class="s107" d="m1014.7 388.3l1.2 4.6v0.1c0.1 0.4-0.1 0.8-0.6 0.9-0.4 0.1-0.8-0.1-0.9-0.5l-1.3-4.7c-0.1-0.4 0.2-0.9 0.6-1 0.4-0.1 0.9 0.2 1 0.6z"/>
					<path id="&lt;Path&gt;" class="s107" d="m1017.4 397.4l1.6 4.5c0.2 0.4 0 0.9-0.4 1-0.4 0.2-0.9 0-1.1-0.5l-1.6-4.5c-0.2-0.4 0-0.8 0.4-1 0.4-0.1 0.9 0.1 1.1 0.5z"/>
					<path id="&lt;Path&gt;" class="s107" d="m1020.8 406.3l1.9 4.4c0.2 0.4 0 0.8-0.4 1-0.4 0.2-0.9 0-1.1-0.4l-1.8-4.4c-0.2-0.4 0-0.9 0.4-1.1 0.4-0.1 0.8 0.1 1 0.5z"/>
					<path id="&lt;Path&gt;" class="s107" d="m1024.6 415l1.7 4.6c0.2 0.4 0 0.8-0.5 1-0.4 0.1-0.8-0.1-1-0.5l-1.7-4.4v-0.1c-0.1-0.4 0.1-0.9 0.5-1 0.4-0.2 0.8 0 1 0.4z"/>
					<path id="&lt;Path&gt;" class="s107" d="m1027.7 424.2l1.2 4.6c0.1 0.5-0.1 0.9-0.5 1-0.5 0.1-0.9-0.2-1-0.6l-1.2-4.6c-0.1-0.5 0.1-0.9 0.6-1 0.4-0.1 0.8 0.1 0.9 0.6z"/>
					<path id="&lt;Path&gt;" class="s107" d="m1029.9 433.5l0.9 4.8c0 0.4-0.2 0.8-0.7 0.9-0.4 0.1-0.8-0.2-0.9-0.7l-0.8-4.7c-0.1-0.4 0.2-0.8 0.6-0.9 0.5-0.1 0.9 0.2 0.9 0.6z"/>
					<path id="&lt;Path&gt;" class="s107" d="m1031.4 443l0.5 4.8c0 0.4-0.3 0.8-0.7 0.9-0.4 0-0.8-0.3-0.9-0.7v-0.1l-0.4-4.7c-0.1-0.4 0.2-0.8 0.7-0.9 0.4 0 0.8 0.3 0.8 0.7z"/>
					<path id="&lt;Path&gt;" class="s107" d="m1032.2 452.6l0.2 4.8c0 0.4-0.4 0.8-0.8 0.8-0.4 0-0.8-0.3-0.8-0.8l-0.1-4.7v-0.1c-0.1-0.4 0.3-0.7 0.7-0.8 0.4 0 0.8 0.4 0.8 0.8z"/>
					<path id="&lt;Path&gt;" class="s107" d="m1032.4 462.2l-0.2 4.8c0 0.4-0.4 0.8-0.8 0.8-0.5-0.1-0.8-0.4-0.8-0.9l0.2-4.7v-0.1c0-0.4 0.4-0.7 0.8-0.7 0.4 0 0.8 0.4 0.8 0.8z"/>
					<path id="&lt;Path&gt;" class="s107" d="m1031.8 471.8l-0.5 4.8c0 0.4-0.4 0.7-0.8 0.7-0.5-0.1-0.8-0.5-0.7-0.9l0.5-4.7v-0.1c0-0.4 0.4-0.7 0.8-0.7 0.5 0.1 0.8 0.5 0.7 0.9z"/>
					<path id="&lt;Path&gt;" class="s107" d="m1030.6 481.3l-0.8 4.8c-0.1 0.4-0.5 0.7-0.9 0.6-0.4-0.1-0.7-0.5-0.6-0.9l0.8-4.7c0.1-0.5 0.5-0.7 0.9-0.7 0.4 0.1 0.7 0.5 0.6 0.9z"/>
					<path id="&lt;Path&gt;" class="s107" d="m1028.8 490.8l-1.2 4.6c-0.1 0.4-0.5 0.7-1 0.6-0.4-0.1-0.6-0.6-0.5-1l1.2-4.6c0.1-0.4 0.5-0.7 0.9-0.6 0.4 0.1 0.7 0.5 0.6 1z"/>
					<path id="&lt;Path&gt;" class="s107" d="m1026.2 500l-1.5 4.6c-0.1 0.4-0.6 0.6-1 0.5-0.4-0.2-0.6-0.6-0.5-1l1.6-4.5v-0.1c0.1-0.4 0.5-0.6 0.9-0.5 0.4 0.2 0.7 0.6 0.5 1z"/>
					<path id="&lt;Path&gt;" class="s107" d="m1023 509.1l-1.9 4.4c-0.2 0.4-0.6 0.6-1 0.4-0.4-0.2-0.6-0.6-0.4-1l1.9-4.4c0.1-0.4 0.6-0.6 1-0.4 0.4 0.1 0.5 0.6 0.4 1z"/>
					<path id="&lt;Path&gt;" class="s107" d="m1019.1 517.8l-2.2 4.3c-0.2 0.4-0.7 0.5-1.1 0.3-0.3-0.1-0.5-0.6-0.3-1l2.2-4.2c0.2-0.4 0.7-0.6 1-0.4 0.4 0.2 0.6 0.7 0.4 1z"/>
					<path id="&lt;Path&gt;" class="s107" d="m1014.5 526.3l-2.5 4.1c-0.2 0.4-0.7 0.5-1.1 0.2-0.3-0.2-0.4-0.6-0.2-1l2.5-4.1c0.2-0.3 0.7-0.5 1.1-0.2 0.3 0.2 0.4 0.6 0.2 1z"/>
				</g>
			</g>
			<g id="&lt;Group&gt;">
				<g id="&lt;Group&gt;">
					<g id="&lt;Group&gt;">
						<g id="&lt;Group&gt;">
							<path id="&lt;Path&gt;" class="s108" d="m180.6 686c0 0-38.9-89.9-9.5-184.7 0.2-0.6 1.3-0.5 1.4 0.2 7.1 57.3 9.2 119.3 8.1 184.5z"/>
							<path id="&lt;Path&gt;" class="s1" d="m180.4 684.1c-0.2 0-0.4-0.1-0.4-0.3-6.9-24.6-9.6-66.3-10.6-96.9-1-33.2-0.5-61-0.5-61.3 0.1-0.3 0.2-0.5 0.6-0.5 0.2 0 0.5 0.3 0.4 0.5 0 0.3-0.5 28.1 0.5 61.2 1 30.6 3.6 72.2 10.5 96.7 0.1 0.3-0.1 0.5-0.3 0.6q-0.1 0-0.2 0z"/>
						</g>
						<g id="&lt;Group&gt;">
							<path id="&lt;Path&gt;" class="s109" d="m189.5 671.4c0 0-24-110.4 21.4-222.1 0.3-0.7 1.4-0.5 1.4 0.3-2.5 69.2-10.7 143.7-22.8 221.8z"/>
							<path id="&lt;Path&gt;" class="s1" d="m189.8 669c-0.3 0-0.5-0.2-0.5-0.5-5.4-57.1 15.1-188.9 15.4-190.2 0-0.3 0.3-0.5 0.5-0.4 0.3 0 0.5 0.3 0.4 0.5-0.2 1.4-20.7 133.1-15.3 190 0 0.3-0.2 0.6-0.5 0.6q0 0 0 0z"/>
						</g>
						<g id="&lt;Group&gt;">
							<path id="&lt;Path&gt;" class="s110" d="m193.3 701.3c0 0-11.5-96.3 45.8-182.9 0.3-0.6 1.4-0.2 1.3 0.4-10.1 57.6-26.5 118.9-47.1 182.5z"/>
							<path id="&lt;Path&gt;" class="s1" d="m193.9 699.4q0 0 0 0c-0.3 0-0.5-0.2-0.5-0.5 0.5-25.5 10.3-66.9 18.5-97.1 8.8-32.8 17.7-59.8 17.8-60.1 0-0.3 0.3-0.4 0.6-0.3 0.3 0 0.4 0.3 0.3 0.6-0.1 0.3-8.9 27.3-17.7 60-8.2 30.2-18 71.5-18.5 96.9 0 0.3-0.2 0.5-0.5 0.5z"/>
						</g>
					</g>
					<path id="&lt;Path&gt;" class="s111" d="m164.1 648h52.9c4 0 6.9 3.7 6.2 7.6-3.1 16.7-9.5 31.5-16.2 43.9-1.5 2.7-4.4 4.5-7.5 4.5h-17.3c-3.1 0-6.1-1.7-7.6-4.5-8.3-15.1-12.4-30.1-15.7-44.8-0.8-3.4 1.7-6.7 5.2-6.7z"/>
				</g>
				<g id="&lt;Group&gt;">
					<g id="&lt;Group&gt;">
					</g>
					<g id="&lt;Group&gt;">
					</g>
					<g id="&lt;Group&gt;">
					</g>
					<g id="&lt;Group&gt;">
					</g>
					<g id="&lt;Group&gt;">
						<g id="&lt;Group&gt;">
						</g>
					</g>
				</g>
			</g>
			<g id="&lt;Group&gt;" style="opacity: .5">
				<g id="&lt;Group&gt;">
					<g id="&lt;Group&gt;">
						<path id="&lt;Path&gt;" class="s1" d="m379.7 239.2c0.2-0.4 0.6-0.6 1-0.6 0.5 0 1 0.5 0.9 1q-0.1 2-0.1 4c0 0.5-0.4 1-1 1-0.5 0-1-0.5-1-1q0-2 0.1-4.1 0.1-0.2 0.1-0.3z"/>
						<path id="&lt;Compound Path&gt;" class="s1" d="m389.4 200.9q0.2-0.5 0.5-1.1c0.3-0.5 0.9-0.7 1.4-0.5 0.5 0.3 0.7 0.8 0.4 1.4-1.1 2.3-2.2 4.7-3.1 7-0.2 0.5-0.8 0.8-1.3 0.6-0.5-0.2-0.8-0.8-0.6-1.3q1.2-3.1 2.7-6.1zm6.8-12.1q0 0 0.1-0.1c1.4-2.2 3-4.3 4.6-6.4 0.3-0.4 0.9-0.5 1.4-0.2 0.4 0.4 0.5 1 0.1 1.4-1.5 2.1-3 4.2-4.5 6.3-0.3 0.5-0.9 0.6-1.3 0.3-0.5-0.3-0.6-0.8-0.4-1.3zm-13.4 30.2c0.2-0.5 0.7-0.7 1.2-0.6 0.5 0.2 0.8 0.7 0.7 1.2-0.7 2.5-1.2 5.1-1.7 7.6-0.1 0.5-0.6 0.9-1.1 0.8-0.6-0.1-0.9-0.6-0.8-1.2 0.4-2.6 1-5.1 1.6-7.7q0.1-0.1 0.1-0.1zm26.4-46q0-0.1 0.2-0.3c1.8-1.8 3.8-3.6 5.8-5.3 0.4-0.3 1-0.3 1.4 0.1 0.3 0.5 0.3 1.1-0.1 1.5-2 1.6-3.9 3.4-5.7 5.2-0.4 0.4-1.1 0.3-1.4 0-0.4-0.4-0.4-0.8-0.2-1.2zm15.9-12.8q0.1-0.2 0.3-0.4c2.2-1.4 4.5-2.8 6.8-4 0.5-0.3 1.1-0.1 1.4 0.4 0.2 0.5 0 1.1-0.4 1.3-2.3 1.3-4.5 2.6-6.7 4-0.4 0.3-1.1 0.1-1.4-0.3-0.2-0.3-0.2-0.7 0-1zm18.2-9.3q0.1-0.3 0.5-0.5c2.4-1 4.9-1.8 7.4-2.6 0.6-0.1 1.1 0.2 1.3 0.7 0.1 0.5-0.2 1.1-0.7 1.2-2.4 0.8-4.9 1.6-7.3 2.6-0.5 0.2-1.1-0.1-1.3-0.6-0.1-0.3-0.1-0.6 0.1-0.8zm19.6-5.4c0.2-0.3 0.4-0.5 0.8-0.6 2.6-0.4 5.2-0.8 7.8-1 0.5 0 1 0.4 1.1 0.9 0 0.6-0.4 1-0.9 1.1-2.6 0.2-5.2 0.6-7.7 1-0.5 0.1-1-0.3-1.1-0.8q-0.1-0.4 0-0.6zm20.4-1.3c0.2-0.4 0.5-0.6 1-0.6 2.6 0.1 5.2 0.3 7.8 0.6 0.6 0.1 0.9 0.6 0.9 1.1-0.1 0.6-0.6 1-1.1 0.9-2.6-0.3-5.2-0.5-7.7-0.6-0.6 0-1-0.5-1-1.1q0-0.2 0.1-0.3zm20.2 2.9c0.2-0.5 0.7-0.7 1.2-0.6 2.5 0.6 5.1 1.4 7.5 2.2 0.6 0.2 0.8 0.8 0.7 1.3-0.2 0.5-0.8 0.8-1.3 0.6-2.4-0.8-4.9-1.5-7.4-2.1-0.5-0.2-0.9-0.7-0.7-1.3q0-0.1 0-0.1zm19.2 6.9h0.1c0.2-0.5 0.8-0.7 1.3-0.5 2.3 1.2 4.7 2.4 6.9 3.7 0.5 0.3 0.7 0.9 0.4 1.4-0.3 0.4-0.9 0.6-1.4 0.3-2.2-1.3-4.5-2.5-6.8-3.6-0.5-0.2-0.7-0.8-0.5-1.3zm17.5 10.7q0-0.1 0.1-0.2c0.3-0.4 0.9-0.5 1.4-0.2 2 1.6 4.1 3.3 6 5 0.4 0.4 0.5 1 0.1 1.5-0.4 0.4-1 0.4-1.4 0-1.9-1.7-3.9-3.3-5.9-4.9-0.4-0.3-0.5-0.8-0.3-1.2z"/>
						<path id="&lt;Path&gt;" class="s1" d="m555.1 178.7q0-0.1 0.2-0.3c0.4-0.3 1.1-0.3 1.4 0.1q1.3 1.6 2.6 3.1c0.3 0.5 0.3 1.1-0.2 1.4-0.4 0.4-1 0.3-1.4-0.1q-1.2-1.6-2.5-3.1c-0.3-0.3-0.3-0.7-0.1-1.1z"/>
					</g>
					<g id="&lt;Group&gt;">
						<path id="&lt;Path&gt;" class="s1" d="m578.8 253.1c0.2-0.4 0.6-0.6 1-0.6 0.6 0.1 1 0.5 0.9 1.1q-0.2 2-0.4 4c-0.1 0.6-0.6 0.9-1.1 0.9-0.6-0.1-1-0.6-0.9-1.2q0.3-1.9 0.4-3.9 0.1-0.2 0.1-0.3z"/>
						<path id="&lt;Compound Path&gt;" class="s1" d="m409.2 314.8q0.1-0.1 0.2-0.2c0.4-0.4 1-0.4 1.4-0.1 1.8 1.8 3.7 3.5 5.6 5.2 0.4 0.3 0.5 1 0.1 1.4-0.3 0.4-1 0.5-1.4 0.1-1.9-1.7-3.9-3.4-5.7-5.2-0.3-0.3-0.4-0.8-0.2-1.2zm15.7 12.7q0-0.1 0-0.2c0.3-0.4 0.9-0.6 1.4-0.3 2.1 1.4 4.3 2.7 6.5 3.9 0.5 0.3 0.7 0.9 0.4 1.4-0.2 0.5-0.9 0.7-1.3 0.4-2.3-1.2-4.5-2.6-6.7-4-0.4-0.3-0.6-0.8-0.3-1.2zm17.8 9.2c0.2-0.5 0.8-0.7 1.3-0.5q0.7 0.2 1.4 0.5 2.8 1.1 5.8 2c0.5 0.2 0.8 0.7 0.6 1.3-0.1 0.5-0.7 0.8-1.2 0.6q-3-0.9-5.9-2-0.7-0.3-1.4-0.6c-0.6-0.2-0.8-0.7-0.6-1.3q0 0 0 0zm19.4 5.5c0.1-0.4 0.6-0.7 1-0.6 2.5 0.5 5 0.8 7.5 1.1 0.6 0 1 0.5 0.9 1.1 0 0.5-0.5 0.9-1.1 0.8-2.5-0.2-5.1-0.6-7.6-1-0.6-0.1-0.9-0.6-0.8-1.2q0-0.1 0.1-0.2zm20 1.5c0.1-0.4 0.5-0.6 0.9-0.6 2.5-0.1 5-0.2 7.5-0.5 0.6-0.1 1.1 0.3 1.1 0.9 0.1 0.5-0.3 1-0.9 1.1-2.5 0.3-5.1 0.4-7.7 0.5-0.5 0-1-0.4-1-1q0-0.2 0.1-0.4zm19.9-2.6c0.1-0.3 0.4-0.5 0.7-0.5 2.4-0.6 4.9-1.3 7.3-2 0.5-0.2 1.1 0.1 1.3 0.6 0.1 0.5-0.2 1.1-0.7 1.3-2.4 0.7-4.9 1.4-7.5 2-0.5 0.1-1-0.2-1.2-0.7q0-0.4 0.1-0.7zm19-6.5q0.2-0.3 0.5-0.5c2.3-1 4.6-2.2 6.8-3.4 0.5-0.3 1.1-0.1 1.3 0.4 0.3 0.5 0.1 1.1-0.3 1.3-2.3 1.3-4.6 2.5-7 3.5-0.5 0.3-1.1 0.1-1.3-0.4-0.1-0.3-0.1-0.6 0-0.9zm17.4-10.2q0.1-0.2 0.3-0.3c2-1.5 4-3.1 5.9-4.7 0.5-0.4 1.1-0.4 1.4 0.1 0.4 0.4 0.4 1-0.1 1.4-1.9 1.6-4 3.3-6 4.8-0.5 0.3-1.1 0.2-1.4-0.2-0.3-0.3-0.3-0.7-0.1-1.1zm14.9-13.4q0.1-0.1 0.2-0.2c1.7-1.9 3.3-3.9 4.9-5.9 0.3-0.4 0.9-0.5 1.4-0.1 0.4 0.3 0.5 0.9 0.2 1.4-1.6 2-3.3 4-5 5.9-0.4 0.4-1 0.4-1.4 0.1-0.4-0.3-0.5-0.8-0.3-1.2zm22.7-41.7c0.2-0.5 0.6-0.7 1.1-0.6 0.6 0.2 0.9 0.7 0.7 1.2-0.6 2.5-1.4 5-2.2 7.5-0.2 0.5-0.8 0.8-1.3 0.6-0.5-0.2-0.8-0.8-0.6-1.3 0.8-2.4 1.6-4.8 2.2-7.3q0-0.1 0.1-0.1zm-10.7 25.5q0 0 0 0c1.3-2.2 2.5-4.4 3.6-6.7 0.3-0.5 0.9-0.7 1.4-0.5 0.5 0.3 0.6 0.9 0.4 1.4-1.1 2.3-2.4 4.6-3.7 6.8-0.3 0.4-0.9 0.6-1.3 0.3-0.5-0.2-0.7-0.8-0.4-1.3z"/>
						<path id="&lt;Path&gt;" class="s1" d="m398.5 302.3q0.1-0.3 0.3-0.4c0.5-0.3 1.1-0.2 1.4 0.2q1.2 1.6 2.4 3.2c0.3 0.4 0.3 1-0.2 1.4-0.4 0.3-1 0.2-1.4-0.2q-1.2-1.6-2.4-3.2c-0.2-0.3-0.3-0.7-0.1-1z"/>
					</g>
					<g id="&lt;Group&gt;">
						<path id="&lt;Compound Path&gt;" class="s112" d="m413 281c0.2 0.4 0.7 0.7 1.2 0.7l14.5-0.9c4 5.6 8.9 10.5 14.6 14.6l-0.9 14.5c-0.1 0.6 0.2 1 0.7 1.2l16.1 6.7c0.5 0.2 1.1 0.1 1.4-0.3l9.7-10.9c6.9 1.2 13.8 1.1 20.5 0l9.7 11c0.3 0.4 0.9 0.5 1.4 0.3l16.1-6.7c0.5-0.2 0.8-0.7 0.8-1.2l-0.9-14.5c5.5-4 10.5-8.9 14.6-14.5l14.5 0.9c0.5 0 1-0.3 1.2-0.8l6.7-16.1c0.2-0.5 0.1-1-0.3-1.4l-10.9-9.6c1.1-7 1.1-13.9 0-20.6l10.9-9.7c0.4-0.3 0.5-0.9 0.3-1.3l-6.6-16.2c-0.2-0.5-0.7-0.8-1.2-0.7l-14.6 0.8c-3.9-5.5-8.8-10.4-14.5-14.5l0.9-14.6c0-0.5-0.3-1-0.7-1.1l-16.2-6.8c-0.4-0.2-1 0-1.3 0.4l-9.7 10.8c-6.9-1.1-13.9-1.1-20.6 0l-9.6-10.9c-0.4-0.4-0.9-0.5-1.4-0.3l-16.1 6.7c-0.5 0.2-0.8 0.6-0.8 1.1l0.9 14.6c-5.5 4-10.5 8.8-14.6 14.5l-14.5-0.9c-0.5 0-1 0.3-1.2 0.8l-6.7 16.1c-0.2 0.5-0.1 1 0.3 1.4l10.9 9.6c-1.1 6.9-1.1 13.9 0 20.6l-10.9 9.7c-0.4 0.3-0.6 0.8-0.4 1.3z"/>
						<path id="&lt;Compound Path&gt;" fill-rule="evenodd" class="s1" d="m465.3 236.3c1.1-2.5 2.9-4.7 5.2-6.4 3.6-2.7 8.1-3.8 12.6-3.2 9.3 1.4 15.7 10.1 14.4 19.4-1.4 9.3-10.1 15.7-19.4 14.3-4.4-0.6-8.4-3-11.1-6.7-2.7-3.6-3.9-8.1-3.2-12.6q0.4-2.6 1.5-4.8zm28 13.3q0.9-1.8 1.2-4c1.1-7.6-4.2-14.8-11.8-15.9-3.7-0.5-7.4 0.4-10.4 2.6-3 2.3-5 5.5-5.5 9.2-0.6 3.7 0.3 7.4 2.6 10.5 2.2 3 5.5 4.9 9.2 5.5 6.2 0.9 12.1-2.5 14.7-7.9z"/>
						<path id="&lt;Path&gt;" class="s1" d="m441.5 224.6c9.9-20.8 34.7-30.5 56.2-21.5q1.1 0.4 2.1 0.9c20.8 9.9 30.5 34.6 21.5 56.2-4.5 10.8-12.9 19.2-23.7 23.6-10.7 4.5-22.6 4.4-33.4 0q-1-0.5-2-0.9-3.2-1.6-6.2-3.6l1.7-2.5q2.8 1.9 5.8 3.4 0.9 0.4 1.9 0.8c20.7 8.6 44.5-1.2 53.1-22 8.4-20-0.6-43.1-20-52.3q-1-0.5-1.9-0.9c-20.7-8.6-44.6 1.3-53.2 22-2.8 6.8-3.8 14.3-2.7 21.5l-3 0.4c-1.1-7.7-0.1-15.7 2.9-23q0.4-1.1 0.9-2.1z"/>
					</g>
				</g>
				<path id="&lt;Compound Path&gt;" class="s113" d="m568.6 222.2l8.1-1.1c2.5 2.9 5.4 5.4 8.8 7.4l0.1 8.2c0 0.3 0.2 0.5 0.5 0.6l9.3 3.1c0.3 0.1 0.6 0 0.8-0.3l4.9-6.5c3.9 0.3 7.8 0 11.5-0.9l5.8 5.7c0.3 0.2 0.6 0.2 0.8 0.1l8.7-4.4c0.3-0.2 0.4-0.5 0.4-0.7l-1.1-8.1c2.9-2.5 5.4-5.4 7.5-8.8l8.1-0.1c0.3 0 0.6-0.2 0.7-0.5l3-9.3c0.1-0.3 0-0.6-0.2-0.8l-6.6-4.9c0.4-3.9 0-7.8-0.9-11.5l5.7-5.8c0.2-0.2 0.2-0.5 0.1-0.8l-4.4-8.7c-0.2-0.3-0.4-0.4-0.7-0.4l-8.1 1.1c-2.5-2.9-5.4-5.4-8.8-7.5l-0.1-8.1c0-0.3-0.2-0.6-0.5-0.6l-9.3-3.1c-0.3-0.1-0.6 0-0.7 0.3l-4.9 6.5c-4-0.4-7.8 0-11.5 0.9l-5.9-5.7c-0.2-0.2-0.5-0.2-0.8-0.1l-8.7 4.4c-0.3 0.2-0.4 0.4-0.4 0.7l1.2 8.1c-3 2.5-5.5 5.4-7.5 8.8l-8.2 0.1c-0.3 0-0.5 0.2-0.6 0.5l-3.1 9.3c0 0.3 0.1 0.6 0.3 0.7l6.5 5c-0.3 3.9 0 7.7 0.9 11.4l-5.7 5.9c-0.2 0.2-0.2 0.5-0.1 0.8l4.5 8.7c0.1 0.3 0.4 0.4 0.6 0.4z"/>
				<path id="&lt;Compound Path&gt;" fill-rule="evenodd" class="s1" d="m594.9 193.6c1.7-3.7 5.6-6.1 9.9-5.8 2.7 0.2 5.2 1.4 6.9 3.4 1.8 2.1 2.7 4.7 2.5 7.4-0.1 2.7-1.4 5.2-3.4 7-2.1 1.8-4.7 2.7-7.4 2.5-5.6-0.4-9.9-5.2-9.5-10.8 0.1-1.4 0.4-2.6 1-3.7zm15.7 7.4q0.6-1.2 0.6-2.6c0.2-1.9-0.4-3.7-1.7-5.2-1.3-1.4-3-2.3-5-2.4-3.9-0.3-7.3 2.7-7.6 6.7-0.3 3.9 2.7 7.4 6.7 7.6 1.9 0.2 3.8-0.5 5.2-1.7q1.1-1 1.8-2.4z"/>
				<g id="&lt;Group&gt;">
					<path id="&lt;Path&gt;" class="s1" d="m551.8 208.5c0.1-0.3 0.4-0.5 0.7-0.5 0.5-0.1 1.1 0.2 1.2 0.7q0.4 2 1 3.8c0.1 0.6-0.2 1.1-0.7 1.3-0.6 0.1-1.1-0.2-1.3-0.7q-0.5-1.9-1-3.9 0-0.4 0.1-0.7z"/>
					<path id="&lt;Compound Path&gt;" class="s1" d="m556 174.4q0 0 0 0c1.2-2.5 2.6-4.9 4.2-7.2 0.4-0.4 1-0.5 1.4-0.2 0.5 0.3 0.6 0.9 0.3 1.4-1.6 2.2-3 4.5-4.1 6.9-0.3 0.5-0.9 0.7-1.4 0.5-0.5-0.3-0.7-0.9-0.4-1.4zm-4.3 12.7c0.2-0.4 0.6-0.7 1.1-0.6 0.5 0.1 0.9 0.7 0.8 1.2-0.5 2.2-0.8 4.5-0.9 6.8q-0.1 0.6-0.1 1.2c0 0.6-0.5 1-1 1-0.6-0.1-1-0.5-1-1.1q0-0.6 0.1-1.3c0.1-2.3 0.5-4.7 0.9-7q0-0.1 0.1-0.2zm17.4-29.6q0.1-0.2 0.3-0.3c2.1-1.8 4.4-3.5 6.8-4.9 0.4-0.3 1-0.2 1.3 0.3 0.3 0.5 0.2 1.1-0.3 1.4-2.3 1.4-4.5 3-6.5 4.7-0.4 0.4-1.1 0.3-1.4-0.1-0.3-0.3-0.3-0.7-0.2-1.1zm18.8-10.3c0.2-0.2 0.4-0.4 0.6-0.5 2.7-0.8 5.5-1.4 8.2-1.8 0.6-0.1 1.1 0.3 1.2 0.9 0 0.5-0.4 1-0.9 1.1-2.7 0.4-5.3 0.9-7.9 1.7-0.5 0.2-1.1-0.1-1.2-0.6q-0.1-0.4 0-0.8zm21.4-1.9c0.2-0.3 0.6-0.6 1-0.5 2.8 0.3 5.5 0.8 8.2 1.6 0.6 0.1 0.9 0.7 0.7 1.2-0.1 0.6-0.7 0.9-1.2 0.7-2.6-0.7-5.3-1.2-7.9-1.5-0.6-0.1-1-0.6-0.9-1.1q0-0.2 0.1-0.4z"/>
					<path id="&lt;Path&gt;" class="s1" d="m629.7 152.2q0-0.1 0-0.1c0.3-0.5 0.9-0.7 1.4-0.4q1.7 1 3.4 2.2c0.5 0.3 0.6 0.9 0.3 1.4-0.3 0.5-1 0.6-1.4 0.3q-1.6-1.2-3.3-2.2c-0.5-0.2-0.7-0.8-0.4-1.2z"/>
				</g>
				<g id="&lt;Group&gt;">
					<path id="&lt;Path&gt;" class="s1" d="m654.6 186.9c0.2-0.2 0.4-0.4 0.7-0.5 0.6-0.1 1.1 0.2 1.2 0.8q0.4 2 0.7 4c0 0.5-0.3 1-0.9 1.1-0.5 0.1-1-0.3-1.1-0.9q-0.3-1.9-0.7-3.8 0-0.4 0.1-0.7z"/>
					<path id="&lt;Compound Path&gt;" class="s1" d="m586.4 247.3c0.3-0.4 0.8-0.7 1.3-0.5 2.5 0.8 5.1 1.5 7.7 1.9 0.5 0.1 0.9 0.6 0.8 1.2-0.1 0.5-0.6 0.9-1.2 0.8-2.7-0.5-5.4-1.1-8-2-0.5-0.2-0.8-0.8-0.6-1.3q0 0 0-0.1zm21 2.6c0.1-0.3 0.4-0.6 0.8-0.6 2.6-0.2 5.3-0.6 7.8-1.2 0.6-0.2 1.1 0.2 1.2 0.7 0.2 0.5-0.2 1.1-0.7 1.2-2.7 0.6-5.4 1.1-8.1 1.3-0.6 0-1.1-0.4-1.1-0.9q0-0.3 0.1-0.5zm20.2-5.9q0.2-0.3 0.5-0.5c2.3-1.2 4.6-2.6 6.7-4.2 0.4-0.3 1-0.2 1.4 0.2 0.3 0.5 0.2 1.1-0.2 1.4-2.2 1.7-4.6 3.1-7 4.4-0.5 0.3-1.1 0.1-1.4-0.4-0.1-0.3-0.1-0.6 0-0.9zm27.7-40c0.2-0.4 0.6-0.6 1-0.6 0.6 0.1 0.9 0.6 0.9 1.1-0.4 2.8-0.9 5.5-1.7 8.1-0.1 0.6-0.7 0.9-1.2 0.7-0.5-0.1-0.8-0.7-0.7-1.2 0.7-2.6 1.3-5.2 1.6-7.8q0-0.2 0.1-0.3zm-11.4 26.6q0.1-0.1 0.2-0.2c1.6-2 3.2-4.2 4.5-6.5 0.3-0.5 0.9-0.6 1.3-0.4 0.5 0.3 0.7 0.9 0.4 1.4-1.4 2.4-2.9 4.7-4.7 6.8-0.3 0.4-1 0.5-1.4 0.1-0.4-0.3-0.5-0.8-0.3-1.2z"/>
					<path id="&lt;Path&gt;" class="s1" d="m571.3 239.3q0.1-0.1 0.1-0.2c0.4-0.4 1-0.5 1.4-0.2q1.6 1.2 3.2 2.3c0.5 0.3 0.6 0.9 0.3 1.4-0.3 0.4-0.9 0.6-1.3 0.3q-1.7-1.2-3.4-2.4c-0.4-0.3-0.5-0.8-0.3-1.2z"/>
				</g>
				<path id="&lt;Path&gt;" class="s1" d="m581.5 187c5.4-11.2 18.4-17 30.5-13.1q1.6 0.5 3.1 1.2c11.2 5.4 17 18.4 13 30.5-2 6.4-6.5 11.6-12.5 14.6-5.9 3.1-12.7 3.6-19.1 1.5q-2.5-0.7-4.7-2-0.1-0.1-0.2-0.1l1.5-2.6q0.8 0.4 1.6 0.8 1.3 0.6 2.7 1.1c5.6 1.8 11.6 1.3 16.9-1.3 5.3-2.7 9.2-7.3 11-12.9 1.8-5.6 1.4-11.6-1.3-16.9-2.3-4.4-5.8-7.9-10.2-9.9q-1.3-0.7-2.7-1.1c-5.6-1.8-11.6-1.4-16.9 1.3-5.3 2.7-9.2 7.3-11 12.9-1.3 3.8-1.4 7.9-0.5 11.8l-3 0.6c-1-4.4-0.8-9 0.6-13.3q0.6-1.6 1.2-3.1z"/>
			</g>
		</g>
	</g>
</svg>